{
.formatVersion = 3;
DisplayStrings = (
"/.notdef ABCDEFGHIJKLMNOPQRSTUVWXYZ\rAabcdefghijklmnopqrstuvwxyz\rGenaminto Slasher\r0123456789,.<>//?:;\"'{[}]|\\\\~`\r!@$%^&*()_+-=",
" !\"#$%&'()*+,-.//0123456789:;<=>?@ABCDEFGHIJKLMNOPQRSTUVWXYZ[\\\\]^_`abcdefghijklmnopqrstuvwxyz{|}~¡¢£¤¥¦§¨©ª«¬­®¯°±²³´¶·¸¹º»¼½¾¿ÀÁÂÃÄÅÆÇÈÉÊËÌÍÎÏÐÓÔÖ×ØÙÚÛÜÝÞßàáâãäåæçèéêëìíîïðñòóôõö÷øùúûüýþÿĀāĂăĄąĆćĈĉĊċČčĎďĐđĒĔĕĖėĘĚěĜĝĞğĠġĤĥĦħĨĩĪīĬĭĮįİıĲĳĴĵķĸĹĺĽľĿŀŁłŃńŇňŉŊŋŌōŎŏŐőŒœŔŕŘřŚśŜŝŞşŠšŤťŦŧŨũŪūŬŭŮůŰűŲųŴŵŶŷŸŹźŻżŽžƀƉƒǀǁǂǃǉǢǦǧǼǽǿȍȑȕȷȼʃʹʻʼˆˇˈˉˊˌ˗˘˙˚˛˜˝ˮ̵̣̤̦̩̯̱̲̀́̃̄̇̈̉̌̍̏̑̒̓͘ΣπḏḳẀẁẂẃẄẅẑẓẞỲỳ  ‐‒–—― ‘’‚“”„†‡•…‰′″‹›⁄⁰⁴⁵⁶⁷⁸⁹₀₁₂₃₄₅₆₇₈₉₡₣₤€₵₺ℓ№™℮⅓⅔⅛⅜⅝⅞←↑→↓∅∏∑−∕∙√∞∫≈≠≤≥■□▲△▶▷▼▽◀◁◆◇◊⟨⟩꞉꞊ꞌꞵﬁﬂ\r/parenleft.case/parenright.case/comma.dnom/comma.numr/comma.sups/hyphen.case/period.dnom/period.numr/period.sups/slash.case/zero.dnom/zero.numr/zero.zero/one.dnom/one.numr/two.dnom/two.numr/three.dnom/three.numr/four.dnom/four.numr/five.dnom/five.numr/six.dnom/six.numr/seven.dnom/seven.numr/eight.dnom/eight.numr/nine.dnom/nine.numr/at.case/T_h/bracketleft.case/backslash.case/bracketright.case/c_h/c_t/f_f/f_f_i/f_f_l/f_j/s_t/braceleft.case/braceright.case/guillemotleft.case/periodcentered.case/periodcentered.loclCAT/periodcentered.loclCAT.case/guillemotright.case/gravecomb.case/acutecomb.case/uni0302.case/tildecomb.case/uni0304.case/uni0306.case/uni0307.case/uni0308.case/uni030B.case/uni030C.alt/uni030C.case/uni030F.case/uni0311.case/uni0312.case/dotbelowcomb.case/uni0324.case/uni0326.alt/uni0326.case/uni0327.case/uni0331.case/endash.case/emdash.case/bullet.case/guilsinglleft.case/guilsinglright.case/.notdef",
"/T_h e Lion's Gate\rChaos Gate\rRAINBOW SIX\rUBISOFT GENAMINTO\rGenaminto"
);
classes = (
{

glyphs = (
{
glyphname = .notdef;
layers = (
{
layerId = "F0BF49F4-A9AA-409A-9DDE-053E9F81ED51";
shapes = (
{
closed = 1;
nodes = (
(72,0,l),
(72,1760,l),
(1062,1760,l),
(1062,0,l)
);
},
{
closed = 1;
nodes = (
(567,970,l),
(939,1696,l),
(195,1696,l)
);
},
{
closed = 1;
nodes = (
(143,151,l),
(524,879,l),
(143,1609,l)
);
},
{
closed = 1;
nodes = (
(991,151,l),
(991,1609,l),
(612,879,l)
);
},
{
closed = 1;
nodes = (
(567,794,l),
(195,64,l),
(939,64,l)
);
}
);
width = 1134;
}
);
},
{
glyphname = A;
layers = (
{
anchors = (
{
name = m.uni0328_3;
position = "{982, 0}";
},
{
name = t.acutecomb.case;
position = "{609, 1760}";
},
{
name = m.uni032E;
position = "{611, 20}";
}
);
layerId = "F0BF49F4-A9AA-409A-9DDE-053E9F81ED51";
shapes = (
{
closed = 1;
nodes = (
(72.188,0,l),
(287.493,1760,l),
(937.207,1760,l),
(1148.713,0,l),
(833.354,0,l),
(801.692,284,l),
(219.102,284,l),
(219.102,269,l),
(415.409,162,l),
(398.945,0,l)
);
},
{
closed = 1;
nodes = (
(250.764,565,l),
(767.496,565,l),
(669.976,1460,l),
(544.592,1460,l),
(544.592,1457,l),
(538.26,1406,l),
(468.602,679,l),
(250.764,580,l)
);
}
);
width = 1221;
}
);
leftKerningGroup = A2;
rightKerningGroup = A;
unicode = 65;
},
{
glyphname = AE;
layers = (
{
anchors = (
{
name = t.acutecomb;
position = "{1083, 1760}";
}
);
layerId = "F0BF49F4-A9AA-409A-9DDE-053E9F81ED51";
shapes = (
{
closed = 1;
nodes = (
(72.467,0,l),
(479.013,1760,l),
(1603.665,1760,l),
(1603.665,1451,l),
(1100.865,1451,l),
(1100.865,1437,l),
(1241.446,1358,l),
(1241.446,1049,l),
(1585.934,1049,l),
(1585.934,750,l),
(1100.865,750,l),
(1100.865,732,l),
(1241.446,638,l),
(1241.446,454,l),
(1100.865,332,l),
(1100.865,311,l),
(1632.795,311,l),
(1632.795,0,l),
(917.222,0,l),
(917.222,479,l),
(349.83,479,l),
(349.83,464,l),
(519.541,337,l),
(448.617,0,l)
);
},
{
closed = 1;
nodes = (
(429.62,769,l),
(910.89,769,l),
(910.89,1461,l),
(732.313,1461,l),
(632.26,909,l),
(429.62,788,l)
);
}
);
width = 1705;
}
);
unicode = 198;
},
{
glyphname = B;
layers = (
{
anchors = (
{
name = t.acutecomb;
position = "{492, 1760}";
},
{
name = m.uni032E;
position = "{492, 0}";
}
);
layerId = "F0BF49F4-A9AA-409A-9DDE-053E9F81ED51";
shapes = (
{
closed = 1;
nodes = (
(72.98,0,l),
(72.98,1760,l),
(623.907,1760,ls),
(910.136,1760,o),
(1035.52,1645,o),
(1035.52,1358,cs),
(1035.52,1281,ls),
(1035.52,1110,o),
(973.461,1005,o),
(846.811,979,c),
(848.078,979,l),
(1039.319,939,o),
(1060.85,694,o),
(1060.85,569,cs),
(1060.85,227,o),
(974.728,0,o),
(623.907,0,cs)
);
},
{
closed = 1;
nodes = (
(402.27,1097,l),
(546.651,1097,ls),
(674.567,1097,o),
(697.364,1155,o),
(697.364,1226,cs),
(697.364,1403,ls),
(697.364,1460,o),
(647.971,1488,o),
(549.184,1488,cs),
(241.424,1488,l),
(241.424,1477,l),
(402.27,1412,l),
(402.27,1169,l),
(402.27,1108,l)
);
},
{
closed = 1;
nodes = (
(651.77,310,o),
(726.494,353,o),
(726.494,440,cs),
(726.494,660,ls),
(726.494,760,o),
(683.433,822,o),
(537.785,822,cs),
(241.424,822,l),
(241.424,812,l),
(402.27,746,l),
(402.27,420,l),
(242.691,325,l),
(241.424,312,l),
(450.397,312,l),
(469.394,311,o),
(485.859,310,o),
(499.79,310,cs)
);
}
);
width = 1133;
}
);
unicode = 66;
},
{
glyphname = C;
layers = (
{
anchors = (
{
name = b.uni0327;
position = "{558, 0}";
},
{
name = t.acutecomb;
position = "{566, 1760}";
}
);
layerId = "F0BF49F4-A9AA-409A-9DDE-053E9F81ED51";
shapes = (
{
closed = 1;
nodes = (
(219.163,-16,o),
(72.249,196,o),
(72.249,436,cs),
(72.249,1248,ls),
(72.249,1589,o),
(217.896,1776,o),
(566.184,1776,cs),
(851.146,1776,o),
(1060.119,1639,o),
(1060.119,1362,cs),
(1060.119,1058,l),
(723.23,1058,l),
(723.23,1318,ls),
(723.23,1423,o),
(673.836,1452,o),
(566.184,1452,c),
(407.871,1452,l),
(205.231,1452,l),
(205.231,1423,l),
(407.871,1328,l),
(407.871,441,ls),
(407.871,344,o),
(463.597,308,o),
(566.184,308,cs),
(681.435,308,o),
(723.23,362,o),
(723.23,441,cs),
(723.23,758,l),
(1065.185,758,l),
(1065.185,425,ls),
(1065.185,116,o),
(876.476,-16,o),
(556.052,-16,cs)
);
}
);
width = 1138;
}
);
unicode = 67;
},
{
glyphname = D;
layers = (
{
anchors = (
{
name = t.uni0304_2;
position = "{264, 923}";
},
{
name = t.uni0335_4;
position = "{561, 880}";
},
{
name = t.acutecomb;
position = "{560, 1760}";
},
{
name = m.uni032E;
position = "{561, 0}";
}
);
layerId = "F0BF49F4-A9AA-409A-9DDE-053E9F81ED51";
shapes = (
{
closed = 1;
nodes = (
(72.98,0,l),
(72.98,1760,l),
(632.773,1760,ls),
(917.735,1760,o),
(1063.383,1617,o),
(1063.383,1346,cs),
(1063.383,522,ls),
(1063.383,277,o),
(1001.324,0,o),
(617.575,0,cs)
);
},
{
closed = 1;
nodes = (
(247.757,311,l),
(545.384,311,ls),
(663.169,311,o),
(721.428,342,o),
(721.428,405,cs),
(721.428,1313,ls),
(721.428,1364,o),
(707.496,1401,o),
(678.367,1427,cs),
(658.103,1444,o),
(604.91,1452,o),
(517.521,1452,cs),
(247.757,1452,l),
(247.757,1433,l),
(414.935,1339,l),
(414.935,444,l),
(247.757,336,l)
);
}
);
width = 1136;
}
);
unicode = 68;
},
{
glyphname = E;
layers = (
{
anchors = (
{
name = m.uni0328_3;
position = "{550, 0}";
},
{
name = t.acutecomb.case;
position = "{497, 1760}";
},
{
name = m.uni032E;
position = "{506, 0}";
}
);
layerId = "F0BF49F4-A9AA-409A-9DDE-053E9F81ED51";
shapes = (
{
closed = 1;
nodes = (
(72.65,0,l),
(72.65,1760,l),
(857.88,1760,l),
(857.88,1420,l),
(196.767,1420,l),
(196.767,1398,l),
(419.671,1301,l),
(419.671,1077,l),
(840.149,1077,l),
(840.149,746,l),
(217.031,746,l),
(217.031,721,l),
(419.671,646,l),
(419.671,452,l),
(222.097,371,l),
(222.097,343,l),
(887.009,343,l),
(887.009,0,l)
);
}
);
width = 960;
}
);
unicode = 69;
},
{
glyphname = Eng;
layers = (
{
layerId = "F0BF49F4-A9AA-409A-9DDE-053E9F81ED51";
shapes = (
{
closed = 1;
nodes = (
(659,-286,l),
(770,-286,o),
(820,-234,o),
(820,-131,cs),
(820,5,l),
(856,5,l),
(1180,5,l),
(1180,-108,ls),
(1180,-425,o),
(990,-588,o),
(659,-588,c)
);
},
{
alignment = -1;
ref = N;
}
);
width = 1252;
}
);
unicode = 330;
},
{
glyphname = Eth;
layers = (
{
layerId = "F0BF49F4-A9AA-409A-9DDE-053E9F81ED51";
shapes = (
{
closed = 1;
nodes = (
(620.12,804,l),
(72.992,804,l),
(72.992,1036,l),
(620.12,1036,l)
);
},
{
alignment = -1;
pos = (96,0);
ref = D;
}
);
width = 1232;
}
);
unicode = 208;
},
{
glyphname = F;
layers = (
{
anchors = (
{
name = t.acutecomb;
position = "{494, 1760}";
}
);
layerId = "F0BF49F4-A9AA-409A-9DDE-053E9F81ED51";
shapes = (
{
closed = 1;
nodes = (
(72.98,0,l),
(72.98,1760,l),
(858.21,1760,l),
(858.21,1417,l),
(237.625,1417,l),
(237.625,1404,l),
(414.935,1335,l),
(414.935,1137,l),
(835.413,1137,l),
(835.413,798,l),
(237.625,798,l),
(237.625,783,l),
(414.935,699,l),
(414.935,0,l)
);
}
);
width = 931;
}
);
rightKerningGroup = F;
unicode = 70;
},
{
glyphname = G;
layers = (
{
anchors = (
{
name = b.uni0327;
position = "{577, 0}";
},
{
name = t.acutecomb;
position = "{565, 1760}";
}
);
layerId = "F0BF49F4-A9AA-409A-9DDE-053E9F81ED51";
shapes = (
{
closed = 1;
nodes = (
(259.691,-16,o),
(72.249,110,o),
(72.249,470,cs),
(72.249,1283,ls),
(72.249,1612,o),
(236.894,1776,o),
(566.184,1776,cs),
(934.735,1776,o),
(1070.251,1585,o),
(1070.251,1293,c),
(1071.517,1162,l),
(740.961,1162,l),
(740.961,1288,ls),
(740.961,1378,o),
(697.9,1452,o),
(571.25,1452,cs),
(449.666,1452,o),
(406.605,1378,o),
(406.605,1291,cs),
(406.605,468,ls),
(406.605,373,o),
(440.8,308,o),
(575.049,308,cs),
(713.098,308,o),
(746.027,373,o),
(746.027,470,cs),
(746.027,586,l),
(942.334,692,l),
(942.334,721,l),
(537.054,721,l),
(537.054,1025,l),
(1065.185,1025,l),
(1065.185,0,l),
(749.826,0,l),
(749.826,278,l),
(729.562,278,l),
(649.773,33,o),
(542.12,-16,o),
(406.605,-16,cs)
);
}
);
width = 1144;
}
);
unicode = 71;
},
{
glyphname = uni1E9E;
layers = (
{
layerId = "F0BF49F4-A9AA-409A-9DDE-053E9F81ED51";
shapes = (
{
closed = 1;
nodes = (
(72,0,l),
(72,1403,ls),
(72,1654,o),
(250,1777,o),
(567,1777,cs),
(795,1777,o),
(958,1777,o),
(1075,1777,c),
(1075,1397,l),
(972,1163,l),
(695,1050,l),
(695,1032,l),
(943,1032,l),
(1082,982,o),
(1119,823,o),
(1119,538,cs),
(1119,173,o),
(1022,0,o),
(682,0,cs),
(604,0,l),
(604,281,l),
(725,281,o),
(785,320,o),
(785,399,cs),
(785,676,ls),
(785,784,o),
(738,823,o),
(599,823,c),
(599,1050,l),
(736,1329,l),
(998,1453,l),
(998,1470,l),
(596,1470,l),
(471,1470,o),
(409,1433,o),
(409,1358,cs),
(409,0,l)
);
}
);
width = 1191;
}
);
unicode = 7838;
},
{
glyphname = H;
layers = (
{
anchors = (
{
name = t.uni0335_4;
position = "{568, 880}";
},
{
name = t.acutecomb;
position = "{568, 1760}";
},
{
name = m.uni032E;
position = "{568, 0}";
}
);
layerId = "F0BF49F4-A9AA-409A-9DDE-053E9F81ED51";
shapes = (
{
closed = 1;
nodes = (
(72.98,0,l),
(72.98,1760,l),
(409.869,1760,l),
(409.869,1242,l),
(254.089,1155,l),
(254.089,1131,l),
(882.273,1131,l),
(882.273,1155,l),
(726.494,1242,l),
(726.494,1760,l),
(1063.383,1760,l),
(1063.383,0,l),
(726.494,0,l),
(726.494,699,l),
(882.273,776,l),
(882.273,798,l),
(254.089,798,l),
(254.089,776,l),
(409.869,699,l),
(409.869,0,l)
);
}
);
width = 1136;
}
);
unicode = 72;
},
{
glyphname = Hbar;
layers = (
{
layerId = "F0BF49F4-A9AA-409A-9DDE-053E9F81ED51";
shapes = (
{
closed = 1;
nodes = (
(72,1342,l),
(72,1562,l),
(1309,1562,l),
(1309,1342,l)
);
},
{
alignment = -1;
pos = (120,0);
ref = H;
}
);
width = 1381;
}
);
unicode = 294;
},
{
glyphname = I;
layers = (
{
anchors = (
{
name = m.uni0328_3;
position = "{308, 0}";
},
{
name = t.acutecomb.case;
position = "{235, 1760}";
},
{
name = m.uni032E;
position = "{235, 0}";
}
);
layerId = "F0BF49F4-A9AA-409A-9DDE-053E9F81ED51";
shapes = (
{
closed = 1;
nodes = (
(72.716,0,l),
(72.716,1760,l),
(396.94,1760,l),
(396.94,0,l)
);
}
);
width = 469;
}
);
unicode = 73;
},
{
glyphname = J;
layers = (
{
anchors = (
{
name = t.acutecomb;
position = "{884, 1760}";
}
);
layerId = "F0BF49F4-A9AA-409A-9DDE-053E9F81ED51";
shapes = (
{
closed = 1;
nodes = (
(291.424,-16,o),
(72.32,124,o),
(72.32,389,cs),
(72.32,830,l),
(406.676,830,l),
(406.676,410,ls),
(406.676,349,o),
(452.27,308,o),
(558.656,308,cs),
(661.242,308,o),
(711.902,340,o),
(711.902,405,cs),
(711.902,1267,l),
(933.54,1422,l),
(933.54,1441,l),
(711.902,1441,l),
(533.326,1441,l),
(533.326,1760,l),
(1055.124,1760,l),
(1055.124,440,ls),
(1055.124,160,o),
(851.217,-16,o),
(563.722,-16,cs)
);
}
);
width = 1128;
}
);
leftKerningGroup = J;
unicode = 74;
},
{
glyphname = K;
layers = (
{
anchors = (
{
name = t.acutecomb;
position = "{568, 1760}";
},
{
name = m.uni032E;
position = "{584, 0}";
}
);
layerId = "F0BF49F4-A9AA-409A-9DDE-053E9F81ED51";
shapes = (
{
closed = 1;
nodes = (
(72.98,0,l),
(72.98,1760,l),
(407.336,1760,l),
(407.336,1055,l),
(512.455,1055,l),
(720.161,1760,l),
(1064.649,1760,l),
(851.877,1073,l),
(656.836,963,l),
(656.836,954,l),
(815.149,954,l),
(1116.576,0,l),
(758.156,0,l),
(514.988,852,l),
(214.828,852,l),
(214.828,840,l),
(409.869,754,l),
(409.869,0,l)
);
}
);
width = 1189;
}
);
unicode = 75;
},
{
glyphname = L;
layers = (
{
anchors = (
{
name = t.uni0304_2;
position = "{828, 931}";
},
{
name = t.acutecomb;
position = "{243, 1760}";
},
{
name = m.uni032E;
position = "{470, 0}";
}
);
layerId = "F0BF49F4-A9AA-409A-9DDE-053E9F81ED51";
shapes = (
{
closed = 1;
nodes = (
(72.98,0,l),
(72.98,1760,l),
(412.402,1760,l),
(412.402,448,l),
(185.698,321,l),
(185.698,300,l),
(870.875,300,l),
(870.875,0,l)
);
}
);
width = 943;
}
);
unicode = 76;
},
{
glyphname = Lslash;
layers = (
{
anchors = (
{
name = t.uni0304_2;
position = "{940, 931}";
},
{
name = t.acutecomb;
position = "{355, 1760}";
},
{
name = m.uni032E;
position = "{582, 0}";
}
);
layerId = "F0BF49F4-A9AA-409A-9DDE-053E9F81ED51";
shapes = (
{
closed = 1;
nodes = (
(72,705,l),
(72,1012,l),
(785,1257,l),
(785,950,l)
);
},
{
alignment = -1;
pos = (105,0);
ref = L;
}
);
width = 1055;
}
);
unicode = 321;
},
{
glyphname = M;
layers = (
{
anchors = (
{
name = t.acutecomb;
position = "{886, 1760}";
},
{
name = m.uni032E;
position = "{889, 0}";
}
);
layerId = "F0BF49F4-A9AA-409A-9DDE-053E9F81ED51";
shapes = (
{
closed = 1;
nodes = (
(72.98,0,l),
(72.98,1760,l),
(680.9,1760,l),
(829.08,1055,l),
(817.682,575,l),
(843.012,575,l),
(1089.979,1760,l),
(1704.232,1760,l),
(1704.232,0,l),
(1347.079,0,l),
(1347.079,1268,l),
(1317.949,1268,l),
(1317.949,1260,l),
(1297.685,1168,l),
(1040.586,0,l),
(746.758,0,l),
(452.93,1268,l),
(425.067,1268,l),
(425.067,1259,l),
(425.067,1168,l),
(425.067,0,l)
);
}
);
width = 1777;
}
);
unicode = 77;
},
{
glyphname = N;
layers = (
{
anchors = (
{
name = t.acutecomb;
position = "{663, 1760}";
},
{
name = m.uni032E;
position = "{627, 0}";
}
);
layerId = "F0BF49F4-A9AA-409A-9DDE-053E9F81ED51";
shapes = (
{
closed = 1;
nodes = (
(72.98,0,l),
(72.98,1760,l),
(452.93,1760,l),
(975.994,346,l),
(997.525,346,l),
(824.014,1213,l),
(824.014,1760,l),
(1179.901,1760,l),
(1179.901,0,l),
(820.215,0,l),
(293.351,1353,l),
(273.087,1353,l),
(433.932,497,l),
(433.932,0,l)
);
}
);
width = 1252;
}
);
unicode = 78;
},
{
glyphname = O;
layers = (
{
anchors = (
{
name = m.uni0328_3;
position = "{796, 80}";
},
{
name = t.acutecomb.case;
position = "{569, 1760}";
},
{
name = m.uni032E;
position = "{569, 0}";
}
);
layerId = "F0BF49F4-A9AA-409A-9DDE-053E9F81ED51";
shapes = (
{
closed = 1;
nodes = (
(247.026,-16,o),
(72.249,159,o),
(72.249,480,cs),
(72.249,1316,ls),
(72.249,1617,o),
(244.493,1776,o),
(568.717,1776,cs),
(892.941,1776,o),
(1065.185,1617,o),
(1065.185,1316,cs),
(1065.185,480,ls),
(1065.185,159,o),
(890.408,-16,o),
(568.717,-16,cs)
);
},
{
closed = 1;
nodes = (
(676.369,308,o),
(727.029,360,o),
(727.029,463,cs),
(727.029,1322,ls),
(727.029,1409,o),
(676.369,1452,o),
(575.049,1452,c),
(410.404,1454,l),
(228.028,1454,l),
(228.028,1444,l),
(410.404,1336,l),
(410.404,461,ls),
(410.404,352,o),
(455.998,308,o),
(572.516,308,cs)
);
}
);
width = 1138;
}
);
unicode = 79;
},
{
glyphname = OE;
layers = (
{
layerId = "F0BF49F4-A9AA-409A-9DDE-053E9F81ED51";
shapes = (
{
closed = 1;
nodes = (
(723,0,ls),
(289,0,o),
(72,143,o),
(72,430,cs),
(72,1356,ls),
(72,1666,o),
(335,1760,o),
(712,1760,cs),
(1508,1760,l),
(1508,1451,l),
(913,1451,l),
(913,1423,l),
(1081,1334,l),
(1081,1083,l),
(1490,1083,l),
(1490,784,l),
(913,784,l),
(913,767,l),
(1081,666,l),
(1081,409,l),
(913,324,l),
(913,311,l),
(1537,311,l),
(1537,0,l)
);
},
{
closed = 1;
nodes = (
(735,311,l),
(735,1451,l),
(612,1451,ls),
(478,1451,o),
(406,1399,o),
(406,1314,cs),
(406,480,ls),
(406,387,o),
(464,311,o),
(605,311,cs)
);
}
);
width = 1609;
}
);
unicode = 338;
},
{
glyphname = Oslash;
layers = (
{
anchors = (
{
name = m.uni0328_3;
position = "{796, 80}";
},
{
name = t.acutecomb.case;
position = "{569, 1760}";
},
{
name = t.acutecomb;
position = "{564, 1897}";
},
{
name = m.uni032E;
position = "{569, 0}";
}
);
layerId = "F0BF49F4-A9AA-409A-9DDE-053E9F81ED51";
shapes = (
{
closed = 1;
nodes = (
(179,-194,l),
(371,-194,l),
(922,2026,l),
(730,2026,l)
);
},
{
alignment = -1;
ref = O;
}
);
width = 1138;
}
);
unicode = 216;
},
{
glyphname = P;
layers = (
{
anchors = (
{
name = t.acutecomb;
position = "{533, 1760}";
}
);
layerId = "F0BF49F4-A9AA-409A-9DDE-053E9F81ED51";
shapes = (
{
closed = 1;
nodes = (
(72.98,0,l),
(72.98,1760,l),
(608.709,1760,ls),
(937.999,1760,o),
(1050.718,1555,o),
(1050.718,1224,cs),
(1050.718,904,o),
(967.129,697,o),
(639.105,697,cs),
(212.295,697,l),
(212.295,678,l),
(404.803,556,l),
(404.803,0,l)
);
},
{
closed = 1;
nodes = (
(404.803,1013,l),
(483.326,1013,ls),
(698.631,1013,o),
(716.362,1075,o),
(716.362,1230,cs),
(716.362,1366,o),
(702.43,1439,o),
(507.389,1439,cs),
(218.627,1439,l),
(218.627,1425,l),
(404.803,1322,l)
);
}
);
width = 1123;
}
);
unicode = 80;
},
{
glyphname = Q;
layers = (
{
layerId = "F0BF49F4-A9AA-409A-9DDE-053E9F81ED51";
shapes = (
{
closed = 1;
nodes = (
(253,-16,o),
(72,150,o),
(72,462,cs),
(72,1313,ls),
(72,1616,o),
(246,1776,o),
(568,1776,cs),
(890,1776,o),
(1065,1616,o),
(1065,1313,cs),
(1065,462,l),
(1065,147,o),
(866,-16,o),
(566,-16,cs)
);
},
{
closed = 1;
nodes = (
(714,308,o),
(723,408,o),
(723,484,cs),
(723,1307,ls),
(723,1422,o),
(680,1452,o),
(566,1452,c),
(406,1452,l),
(226,1452,l),
(226,1437,l),
(406,1340,l),
(406,477,ls),
(406,407,o),
(412,308,o),
(568,308,cs)
);
},
{
closed = 1;
nodes = (
(409,160,l),
(722,160,l),
(722,-314,l),
(409,-314,l)
);
}
);
width = 1137;
}
);
unicode = 81;
},
{
glyphname = R;
layers = (
{
anchors = (
{
name = t.acutecomb;
position = "{528, 1760}";
},
{
name = m.uni032E;
position = "{573, 0}";
}
);
layerId = "F0BF49F4-A9AA-409A-9DDE-053E9F81ED51";
shapes = (
{
closed = 1;
nodes = (
(72.98,0,l),
(72.98,1760,l),
(703.697,1760,ls),
(1001.324,1760,o),
(1055.784,1564,o),
(1055.784,1267,cs),
(1055.784,1062,o),
(907.603,888,o),
(732.826,846,c),
(732.826,824,l),
(849.344,794,l),
(1054.517,0,l),
(721.428,0,l),
(527.653,803,l),
(218.627,803,l),
(218.627,777,l),
(417.468,677,l),
(417.468,0,l)
);
},
{
closed = 1;
nodes = (
(420.001,1108,l),
(580.846,1108,ls),
(678.367,1108,o),
(726.494,1161,o),
(726.494,1267,cs),
(726.494,1373,o),
(730.293,1434,o),
(577.047,1434,cs),
(221.16,1434,l),
(218.627,1413,l),
(420.001,1319,l)
);
}
);
width = 1128;
}
);
unicode = 82;
},
{
glyphname = S;
layers = (
{
anchors = (
{
name = t.acutecomb;
position = "{559, 1760}";
},
{
name = m.uni032E;
position = "{569, 0}";
}
);
layerId = "F0BF49F4-A9AA-409A-9DDE-053E9F81ED51";
shapes = (
{
closed = 1;
nodes = (
(225.632,-16,o),
(72.386,137,o),
(72.386,486,cs),
(72.386,658,l),
(406.742,658,l),
(406.742,438,ls),
(406.742,357,o),
(447.27,308,o),
(565.054,308,cs),
(686.638,308,o),
(725.9,343,o),
(725.9,428,cs),
(725.9,581,o),
(672.707,640,o),
(480.199,783,cs),
(280.092,933,ls),
(142.043,1036,o),
(72.386,1163,o),
(72.386,1315,cs),
(72.386,1615,o),
(235.764,1776,o),
(534.658,1776,cs),
(955.136,1776,o),
(1045.058,1542,o),
(1045.058,1255,c),
(698.037,1255,l),
(698.037,1376,ls),
(698.037,1424,o),
(641.044,1452,o),
(548.59,1452,cs),
(440.937,1452,o),
(447.27,1452,o),
(392.81,1452,c),
(228.165,1452,l),
(228.165,1432,l),
(307.955,1367,o),
(324.419,1354,o),
(371.28,1316,cs),
(421.94,1275,o),
(473.866,1235,o),
(534.658,1189,cs),
(791.758,994,ls),
(937.405,885,o),
(1060.256,770,o),
(1060.256,513,cs),
(1060.256,259,o),
(984.266,-16,o),
(594.184,-16,cs)
);
}
);
width = 1133;
}
);
unicode = 83;
},
{
glyphname = Sigma;
layers = (
{
layerId = "F0BF49F4-A9AA-409A-9DDE-053E9F81ED51";
shapes = (
{
closed = 1;
nodes = (
(72,-119,l),
(72,158,l),
(397,672,l),
(644,810,l),
(644,822,l),
(493,822,l),
(72,1446,l),
(72,1760,l),
(873,1760,l),
(873,1444,l),
(221,1444,l),
(221,1431,l),
(466,1318,l),
(763,875,l),
(763,781,l),
(382,176,l),
(894,176,l),
(894,-119,l)
);
}
);
width = 966;
}
);
unicode = 931;
},
{
glyphname = T;
layers = (
{
anchors = (
{
name = t.uni0304_2;
position = "{507, 883}";
},
{
name = t.acutecomb;
position = "{507, 1760}";
},
{
name = m.uni032E;
position = "{507, 0}";
}
);
layerId = "F0BF49F4-A9AA-409A-9DDE-053E9F81ED51";
shapes = (
{
closed = 1;
nodes = (
(337.221,0,l),
(337.221,1422,l),
(72.523,1422,l),
(72.523,1760,l),
(941.342,1760,l),
(941.342,1422,l),
(494.267,1422,l),
(494.267,1414,l),
(676.643,1341,l),
(676.643,0,l)
);
}
);
width = 1014;
}
);
leftKerningGroup = T2;
rightKerningGroup = T;
unicode = 84;
},
{
glyphname = Tbar;
layers = (
{
layerId = "F0BF49F4-A9AA-409A-9DDE-053E9F81ED51";
shapes = (
{
closed = 1;
nodes = (
(861,985,l),
(861,752,l),
(144,752,l),
(144,985,l)
);
},
{
alignment = -1;
ref = T;
}
);
width = 1012;
}
);
leftKerningGroup = T2;
rightKerningGroup = T;
unicode = 358;
},
{
glyphname = Thorn;
layers = (
{
layerId = "F0BF49F4-A9AA-409A-9DDE-053E9F81ED51";
shapes = (
{
closed = 1;
nodes = (
(72,0,l),
(72,1760,l),
(402,1760,l),
(402,1516,l),
(607,1516,ls),
(956,1516,o),
(1049,1290,o),
(1049,973,cs),
(1049,735,o),
(1020,434,o),
(638,434,cs),
(237,434,l),
(237,413,l),
(404,306,l),
(404,0,l)
);
},
{
closed = 1;
nodes = (
(404,721,l),
(482,721,ls),
(675,721,o),
(715,777,o),
(715,967,cs),
(715,1121,o),
(702,1226,o),
(506,1226,cs),
(237,1226,l),
(237,1208,l),
(404,1129,l)
);
}
);
width = 1121;
}
);
unicode = 222;
},
{
glyphname = U;
layers = (
{
anchors = (
{
name = m.uni0328_3;
position = "{589, 0}";
},
{
name = t.acutecomb.case;
position = "{561, 1760}";
},
{
name = t.acutecomb;
position = "{561, 1760}";
},
{
name = m.uni032E;
position = "{561, 0}";
}
);
layerId = "F0BF49F4-A9AA-409A-9DDE-053E9F81ED51";
shapes = (
{
closed = 1;
nodes = (
(226.896,-16,o),
(72.383,151,o),
(72.383,471,cs),
(72.383,1760,l),
(399.14,1760,l),
(399.14,485,ls),
(399.14,398,o),
(410.539,308,o),
(561.252,308,c),
(929.804,308,l),
(929.804,331,l),
(723.364,428,l),
(723.364,1760,l),
(1050.121,1760,l),
(1050.121,471,ls),
(1050.121,151,o),
(895.608,-16,o),
(561.252,-16,cs)
);
}
);
width = 1123;
}
);
unicode = 85;
},
{
glyphname = V;
layers = (
{
anchors = (
{
name = t.acutecomb;
position = "{599, 1760}";
},
{
name = m.uni032E;
position = "{599, 0}";
}
);
layerId = "F0BF49F4-A9AA-409A-9DDE-053E9F81ED51";
shapes = (
{
closed = 1;
nodes = (
(347.153,0,l),
(72.322,1761,l),
(390.214,1761,l),
(539.661,881,l),
(537.128,242,l),
(568.79,242,l),
(805.626,1761,l),
(1123.517,1761,l),
(848.687,0,l)
);
}
);
width = 1196;
}
);
leftKerningGroup = V2;
rightKerningGroup = V;
unicode = 86;
},
{
glyphname = W;
layers = (
{
anchors = (
{
name = t.acutecomb;
position = "{926, 1760}";
},
{
name = m.uni032E;
position = "{908, 0}";
}
);
layerId = "F0BF49F4-A9AA-409A-9DDE-053E9F81ED51";
shapes = (
{
closed = 1;
nodes = (
(311.757,0,l),
(72.388,1760,l),
(401.678,1760,l),
(518.196,941,l),
(504.265,266,l),
(539.727,266,l),
(756.298,1760,l),
(1065.324,1760,l),
(1176.776,954,l),
(1162.845,266,l),
(1200.84,266,l),
(1409.812,1760,l),
(1744.168,1760,l),
(1501.,0,l),
(1027.329,0,l),
(952.606,580,l),
(976.669,1228,l),
(951.339,1228,l),
(794.293,0,l)
);
}
);
width = 1817;
}
);
rightKerningGroup = W;
unicode = 87;
},
{
glyphname = X;
layers = (
{
anchors = (
{
name = t.acutecomb;
position = "{613, 1760}";
},
{
name = m.uni032E;
position = "{613, 0}";
}
);
layerId = "F0BF49F4-A9AA-409A-9DDE-053E9F81ED51";
shapes = (
{
closed = 1;
nodes = (
(72.388,0,l),
(311.757,933,l),
(473.869,933,l),
(473.869,949,l),
(278.828,1077,l),
(121.782,1761,l),
(451.072,1761,l),
(604.318,1156,l),
(632.181,1156,l),
(775.296,1761,l),
(1105.852,1761,l),
(915.877,933,l),
(739.834,933,l),
(739.834,917,l),
(952.606,787,l),
(1153.979,0,l),
(809.491,0,l),
(630.915,688,l),
(603.052,688,l),
(418.143,0,l)
);
}
);
width = 1226;
}
);
unicode = 88;
},
{
glyphname = Y;
layers = (
{
anchors = (
{
name = t.acutecomb.case;
position = "{586, 1760}";
},
{
name = m.uni032E;
position = "{587, 0}";
}
);
layerId = "F0BF49F4-A9AA-409A-9DDE-053E9F81ED51";
shapes = (
{
closed = 1;
nodes = (
(429.744,0,l),
(429.744,579,l),
(428.478,579,l),
(72.591,1760,l),
(409.48,1760,l),
(543.729,1228,l),
(531.064,914,l),
(543.729,914,l),
(764.1,1760,l),
(1099.723,1760,l),
(745.103,579,l),
(743.836,579,l),
(743.836,0,l)
);
}
);
width = 1172;
}
);
leftKerningGroup = Y2;
rightKerningGroup = Y;
unicode = 89;
},
{
glyphname = Z;
layers = (
{
anchors = (
{
name = t.acutecomb;
position = "{535, 1760}";
},
{
name = m.uni032E;
position = "{511, 0}";
}
);
layerId = "F0BF49F4-A9AA-409A-9DDE-053E9F81ED51";
shapes = (
{
closed = 1;
nodes = (
(72.721,0,l),
(72.721,327,l),
(509.663,1281,l),
(752.831,1425,l),
(752.831,1436,l),
(122.114,1436,l),
(122.114,1760,l),
(946.606,1760,l),
(946.606,1445,l),
(507.13,492,l),
(239.899,338,l),
(239.899,324,l),
(925.075,324,l),
(925.075,0,l)
);
}
);
width = 1019;
}
);
unicode = 90;
},
{
glyphname = a;
layers = (
{
anchors = (
{
name = m.uni0328_3;
position = "{921, 0}";
},
{
name = t.acutecomb.case;
position = "{601, 1500}";
},
{
name = t.acutecomb;
position = "{601, 1516}";
},
{
name = m.uni032E;
position = "{590, 0}";
}
);
layerId = "F0BF49F4-A9AA-409A-9DDE-053E9F81ED51";
shapes = (
{
closed = 1;
nodes = (
(132.444,-16,o),
(72.919,245,o),
(72.919,501,cs),
(72.919,782,o),
(235.031,969,o),
(511.128,969,cs),
(694.77,969,l),
(734.032,969,l),
(734.032,1123,ls),
(734.032,1204,o),
(680.839,1244,o),
(576.986,1244,cs),
(478.199,1244,o),
(428.805,1188,o),
(428.805,1123,cs),
(428.805,1056,l),
(100.782,1056,l),
(100.782,1061,o),
(100.782,1071,o),
(100.782,1085,cs),
(100.782,1345,o),
(205.901,1516,o),
(601.049,1516,cs),
(870.814,1516,o),
(1077.253,1387,o),
(1077.253,1143,cs),
(1077.253,0,l),
(740.364,0,l),
(740.364,264,l),
(712.501,264,l),
(671.973,83,o),
(560.521,-16,o),
(403.475,-16,cs)
);
},
{
closed = 1;
nodes = (
(697.303,282,o),
(732.765,342,o),
(732.765,399,cs),
(732.765,586,l),
(917.674,676,l),
(917.674,696,l),
(573.186,696,l),
(495.93,696,o),
(421.206,633,o),
(421.206,538,cs),
(421.206,415,ls),
(421.206,326,o),
(474.399,282,o),
(579.519,282,cs)
);
}
);
width = 1150;
}
);
unicode = 97;
},
{
glyphname = acute;
layers = (
{
layerId = "F0BF49F4-A9AA-409A-9DDE-053E9F81ED51";
shapes = (
{
closed = 1;
nodes = (
(72.444,1563,l),
(72.444,1787,l),
(567.646,1895,l),
(567.646,1660,l)
);
}
);
width = 640;
}
);
unicode = 180;
},
{
glyphname = acutecomb;
layers = (
{
anchors = (
{
name = _t.acutecomb;
position = "{320, 1500}";
},
{
name = _t.acutecomb_2;
position = "{320, 1500}";
},
{
name = _t.acutecomb_3;
position = "{320, 1500}";
},
{
name = t.acutecomb.case_2;
position = "{320, 1963}";
}
);
layerId = "F0BF49F4-A9AA-409A-9DDE-053E9F81ED51";
shapes = (
{
closed = 1;
nodes = (
(72.766,1563,l),
(72.766,1787,l),
(567.967,1895,l),
(567.967,1660,l)
);
}
);
width = 640;
}
);
unicode = 769;
},
{
glyphname = acutecomb.case;
layers = (
{
anchors = (
{
name = _t.acutecomb.case;
position = "{320, 1500}";
},
{
name = _t.acutecomb.case_2;
position = "{320, 1500}";
},
{
name = t.acutecomb.case_2;
position = "{320, 1873}";
}
);
layerId = "F0BF49F4-A9AA-409A-9DDE-053E9F81ED51";
shapes = (
{
closed = 1;
nodes = (
(72.766,1546,l),
(72.766,1770,l),
(567.967,1878,l),
(567.967,1643,l)
);
}
);
width = 640;
}
);
},
{
glyphname = ae;
layers = (
{
anchors = (
{
name = t.acutecomb;
position = "{915, 1500}";
},
{
name = m.uni0328_3;
position = "{921, 0}";
},
{
name = t.acutecomb.case;
position = "{601, 1500}";
},
{
name = m.uni032E;
position = "{590, 0}";
}
);
layerId = "F0BF49F4-A9AA-409A-9DDE-053E9F81ED51";
shapes = (
{
closed = 1;
nodes = (
(224.899,-16,o),
(72.919,175,o),
(72.919,501,cs),
(72.919,782,o),
(235.031,969,o),
(511.128,969,cs),
(694.77,969,l),
(734.032,969,l),
(734.032,1123,ls),
(734.032,1204,o),
(680.839,1244,o),
(576.986,1244,cs),
(478.199,1244,o),
(428.805,1188,o),
(428.805,1123,cs),
(428.805,1056,l),
(100.782,1056,l),
(100.782,1061,o),
(100.782,1071,o),
(100.782,1085,cs),
(100.782,1345,o),
(242.63,1516,o),
(532.658,1516,cs),
(793.557,1516,o),
(954.403,1387,o),
(954.403,1143,cs),
(954.403,489,l),
(954.403,98,o),
(836.618,-16,o),
(557.988,-16,cs)
);
},
{
closed = 1;
nodes = (
(697.303,282,o),
(732.765,342,o),
(732.765,399,cs),
(732.765,586,l),
(917.674,676,l),
(917.674,696,l),
(573.186,696,ls),
(495.93,696,o),
(421.206,633,o),
(421.206,538,cs),
(421.206,415,ls),
(421.206,326,o),
(474.399,282,o),
(579.519,282,cs)
);
},
{
closed = 1;
nodes = (
(995.975,-16,o),
(888.322,171,o),
(888.322,489,cs),
(888.322,586,l),
(945.315,633,l),
(945.315,731,l),
(888.322,771,l),
(888.322,1092,ls),
(888.322,1371,o),
(1026.371,1516,o),
(1253.074,1516,cs),
(1579.831,1516,o),
(1743.21,1375,o),
(1743.21,1092,cs),
(1743.21,983,ls),
(1743.21,851,o),
(1741.943,732,o),
(1738.144,687,c),
(1079.564,687,l),
(1079.564,427,ls),
(1079.564,347,o),
(1092.229,260,o),
(1242.942,260,cs),
(1387.323,260,o),
(1406.321,331,o),
(1406.321,435,cs),
(1406.321,579,l),
(1743.21,579,l),
(1743.21,494,ls),
(1743.21,158,o),
(1638.09,-16,o),
(1298.668,-16,cs)
);
},
{
closed = 1;
nodes = (
(1077.031,945,l),
(1406.321,945,l),
(1406.321,1097,ls),
(1406.321,1205,o),
(1353.128,1249,o),
(1248.008,1249,cs),
(1139.089,1249,o),
(1077.031,1209,o),
(1077.031,1097,cs)
);
}
);
width = 1814;
}
);
rightKerningGroup = e;
unicode = 230;
},
{
glyphname = ampersand;
layers = (
{
layerId = "F0BF49F4-A9AA-409A-9DDE-053E9F81ED51";
shapes = (
{
closed = 1;
nodes = (
(188,-21,o),
(72,211,o),
(72,456,cs),
(72,785,o),
(180,920,o),
(336,1017,c),
(353,1017,l),
(350,1024,o),
(346,1030,o),
(343,1037,cs),
(274,1172,o),
(213,1289,o),
(213,1430,cs),
(213,1631,o),
(369,1776,o),
(588,1776,cs),
(806,1776,o),
(985,1650,o),
(985,1391,cs),
(985,1200,o),
(894,1076,o),
(738,972,c),
(505,972,l),
(505,959,l),
(794,827,l),
(844,730,l),
(870,730,l),
(938,862,l),
(1192,862,l),
(989,441,l),
(779,441,l),
(779,429,l),
(1066,291,l),
(1213,0,l),
(881,0,l),
(831,95,l),
(809,95,l),
(743,31,o),
(643,-21,o),
(463,-21,cs)
);
},
{
closed = 1;
nodes = (
(327,1530,l),
(327,1517,l),
(501,1444,l),
(510,1418,o),
(557,1300,o),
(601,1210,c),
(617,1210,l),
(656,1243,o),
(767,1301,o),
(767,1391,cs),
(767,1494,o),
(711,1530,o),
(629,1530,c)
);
},
{
closed = 1;
nodes = (
(353,413,ls),
(353,294,o),
(412,235,o),
(534,235,cs),
(641,235,o),
(697,285,o),
(712,329,c),
(710,329,l),
(497,738,l),
(463,738,l),
(391,730,o),
(353,604,o),
(353,493,cs)
);
}
);
width = 1315;
}
);
unicode = 38;
},
{
glyphname = uni02BC;
layers = (
{
layerId = "F0BF49F4-A9AA-409A-9DDE-053E9F81ED51";
shapes = (
{
closed = 1;
nodes = (
(148.696,966,l),
(200.622,1116,l),
(356.402,1190,l),
(356.402,1202,l),
(72.706,1202,l),
(72.706,1500,l),
(438.724,1500,l),
(438.724,1203,l),
(314.607,966,l)
);
}
);
width = 512;
}
);
unicode = 700;
},
{
glyphname = approxequal;
layers = (
{
layerId = "F0BF49F4-A9AA-409A-9DDE-053E9F81ED51";
shapes = (
{
closed = 1;
nodes = (
(788,810,o),
(699,830,o),
(594,862,cs),
(491,894,o),
(421,910,o),
(359,910,cs),
(317,910,o),
(288,889,o),
(274,827,c),
(72,913,l),
(143,1050,o),
(216,1164,o),
(368,1164,cs),
(489,1164,o),
(560,1147,o),
(671,1113,cs),
(771,1084,o),
(819,1073,o),
(875,1073,cs),
(924,1073,o),
(958,1102,o),
(976,1188,c),
(1188,1103,l),
(1117,952,o),
(1050,810,o),
(890,810,cs)
);
},
{
closed = 1;
nodes = (
(788,340,o),
(699,360,o),
(594,392,cs),
(491,424,o),
(421,440,o),
(359,440,cs),
(317,440,o),
(288,419,o),
(274,357,c),
(72,443,l),
(143,580,o),
(216,694,o),
(368,694,cs),
(489,694,o),
(560,677,o),
(671,643,cs),
(771,614,o),
(819,603,o),
(875,603,cs),
(924,603,o),
(958,632,o),
(976,718,c),
(1188,633,l),
(1117,482,o),
(1050,340,o),
(890,340,cs)
);
}
);
width = 1260;
}
);
unicode = 8776;
},
{
glyphname = asciicircum;
layers = (
{
layerId = "F0BF49F4-A9AA-409A-9DDE-053E9F81ED51";
shapes = (
{
closed = 1;
nodes = (
(72,432,l),
(377,1355,l),
(790,1355,l),
(1095,432,l),
(745,432,l),
(532,1238,l),
(512,1238,l),
(520,825,l),
(421,432,l)
);
}
);
width = 1167;
}
);
unicode = 94;
},
{
glyphname = asciitilde;
layers = (
{
layerId = "F0BF49F4-A9AA-409A-9DDE-053E9F81ED51";
shapes = (
{
closed = 1;
nodes = (
(788,810,o),
(699,830,o),
(594,862,cs),
(491,894,o),
(462,892,o),
(400,892,cs),
(334,892,o),
(315,858,o),
(290,820,c),
(72,913,l),
(143,1050,o),
(216,1164,o),
(368,1164,cs),
(489,1164,o),
(558,1141,o),
(671,1113,cs),
(735,1097,o),
(785,1073,o),
(839,1086,cs),
(894,1099,o),
(915,1134,o),
(945,1184,c),
(1188,1103,l),
(1117,952,o),
(1050,810,o),
(890,810,cs)
);
}
);
width = 1260;
}
);
unicode = 126;
},
{
glyphname = asterisk;
layers = (
{
layerId = "F0BF49F4-A9AA-409A-9DDE-053E9F81ED51";
shapes = (
{
closed = 1;
nodes = (
(453,707,l),
(512,1033,l),
(493,1046,l),
(238,866,l),
(124,1053,l),
(416,1164,l),
(416,1181,l),
(124,1281,l),
(239,1469,l),
(491,1299,l),
(509,1312,l),
(453,1627,l),
(690,1627,l),
(643,1318,l),
(661,1304,l),
(904,1469,l),
(1018,1281,l),
(724,1181,l),
(724,1171,l),
(1018,1053,l),
(905,866,l),
(659,1040,l),
(640,1026,l),
(690,707,l)
);
}
);
width = 1142;
}
);
unicode = 42;
},
{
glyphname = at;
layers = (
{
layerId = "F0BF49F4-A9AA-409A-9DDE-053E9F81ED51";
shapes = (
{
closed = 1;
nodes = (
(535.788,-158,o),
(72.249,102,o),
(72.249,777,cs),
(72.249,1404,o),
(461.064,1776,o),
(1113.312,1776,cs),
(1731.364,1776,o),
(2053.055,1440,o),
(2053.055,882,cs),
(2053.055,493,o),
(1928.938,277,o),
(1621.178,277,cs),
(1419.805,277,o),
(1331.15,350,o),
(1264.025,491,c),
(1247.561,491,l),
(1217.165,370,o),
(1123.444,285,o),
(963.865,285,cs),
(832.149,285,o),
(734.628,385,o),
(677.636,534,cs),
(651.039,604,o),
(637.108,684,o),
(637.108,774,cs),
(637.108,973,o),
(675.103,1142,o),
(771.357,1228,cs),
(824.55,1275,o),
(884.075,1299,o),
(948.667,1299,c),
(1489.462,1290,l),
(1489.462,650,ls),
(1489.462,546,o),
(1552.787,505,o),
(1655.374,505,cs),
(1809.887,505,o),
(1847.882,634,o),
(1847.882,877,cs),
(1847.882,1286,o),
(1669.305,1536,o),
(1141.175,1536,cs),
(607.978,1536,o),
(328.082,1265,o),
(328.082,774,cs),
(328.082,366,o),
(575.049,78,o),
(1120.911,78,cs),
(1215.898,78,o),
(1310.886,83,o),
(1405.873,93,c),
(1445.135,-133,l),
(1323.551,-150,o),
(1209.566,-158,o),
(1101.913,-158,cs)
);
},
{
closed = 1;
nodes = (
(1153.84,532,o),
(1198.167,548,o),
(1212.099,580,cs),
(1227.297,616,o),
(1234.896,650,o),
(1234.896,682,cs),
(1234.896,976,l),
(1378.01,1052,l),
(1378.01,1074,l),
(1181.703,1074,ls),
(982.862,1074,o),
(923.337,1013,o),
(923.337,783,cs),
(923.337,665,o),
(956.266,532,o),
(1081.649,532,cs)
);
}
);
width = 2126;
}
);
unicode = 64;
},
{
glyphname = b;
layers = (
{
anchors = (
{
name = t.acutecomb;
position = "{244, 1760}";
},
{
name = m.uni032E;
position = "{570, 0}";
}
);
layerId = "F0BF49F4-A9AA-409A-9DDE-053E9F81ED51";
shapes = (
{
closed = 1;
nodes = (
(640.905,0,o),
(480.059,83,o),
(440.798,244,c),
(419.267,244,l),
(419.267,0,l),
(72.246,0,l),
(72.246,1760,l),
(419.267,1760,l),
(419.267,1517,l),
(761.222,1516,ls),
(1048.718,1515,o),
(1086.713,1273,o),
(1086.713,1129,cs),
(1086.713,391,ls),
(1086.713,161,o),
(971.461,0,o),
(752.357,0,cs)
);
},
{
closed = 1;
nodes = (
(696.631,263,o),
(740.958,349,o),
(740.958,457,cs),
(740.958,1043,ls),
(740.958,1151,o),
(752.357,1237,o),
(582.646,1237,c),
(217.894,1238,l),
(217.894,1221,l),
(419.267,1122,l),
(419.267,457,ls),
(419.267,349,o),
(467.394,263,o),
(581.379,263,cs)
);
}
);
width = 1159;
}
);
unicode = 98;
},
{
glyphname = backslash;
layers = (
{
layerId = "F0BF49F4-A9AA-409A-9DDE-053E9F81ED51";
shapes = (
{
closed = 1;
nodes = (
(593,0,l),
(72,1767,l),
(429,1767,l),
(949,0,l)
);
}
);
width = 1021;
}
);
unicode = 92;
},
{
glyphname = backslash.case;
layers = (
{
layerId = "F0BF49F4-A9AA-409A-9DDE-053E9F81ED51";
shapes = (
{
closed = 1;
nodes = (
(593,0,l),
(72,1760,l),
(429,1760,l),
(949,0,l)
);
}
);
width = 1021;
}
);
},
{
glyphname = bar;
layers = (
{
layerId = "F0BF49F4-A9AA-409A-9DDE-053E9F81ED51";
shapes = (
{
closed = 1;
nodes = (
(72,-84,l),
(72,1953,l),
(369,1953,l),
(369,-84,l)
);
}
);
width = 441;
}
);
unicode = 124;
},
{
glyphname = uniA7B5;
layers = (
{
layerId = "F0BF49F4-A9AA-409A-9DDE-053E9F81ED51";
shapes = (
{
closed = 1;
nodes = (
(72,-250,l),
(72,1412,ls),
(72,1655,o),
(232,1776,o),
(554,1776,cs),
(696,1776,o),
(815,1748,o),
(913,1692,cs),
(996,1645,o),
(1036,1552,o),
(1036,1412,cs),
(1036,1295,ls),
(1036,1149,o),
(994,1047,o),
(886,1020,c),
(891,1020,l),
(1102,979,o),
(1112,692,o),
(1112,559,cs),
(1112,249,o),
(1008,-10,o),
(776,-10,cs),
(571,-10,o),
(479,59,o),
(428,176,c),
(402,176,l),
(402,-250,l)
);
},
{
closed = 1;
nodes = (
(402,369,l),
(402,285,o),
(479,237,o),
(592,237,cs),
(704,237,o),
(786,292,o),
(786,407,c),
(786,731,ls),
(786,839,o),
(737,878,o),
(599,878,c),
(599,1126,l),
(688,1126,o),
(706,1177,o),
(706,1245,cs),
(706,1427,ls),
(706,1478,o),
(655,1529,o),
(554,1529,c),
(223,1529,l),
(223,1510,l),
(402,1397,l)
);
}
);
width = 1184;
}
);
unicode = 42933;
},
{
glyphname = uni25C6;
layers = (
{
layerId = "F0BF49F4-A9AA-409A-9DDE-053E9F81ED51";
shapes = (
{
closed = 1;
nodes = (
(1088,1733,l),
(2103,718,l),
(1087,-297,l),
(72,718,l)
);
}
);
width = 2175;
}
);
unicode = 9670;
},
{
glyphname = filledbox;
layers = (
{
layerId = "F0BF49F4-A9AA-409A-9DDE-053E9F81ED51";
shapes = (
{
closed = 1;
nodes = (
(277,1436,l),
(1712,1436,l),
(1712,0,l),
(277,0,l)
);
}
);
width = 1932;
}
);
unicode = 9632;
},
{
glyphname = braceleft;
layers = (
{
layerId = "F0BF49F4-A9AA-409A-9DDE-053E9F81ED51";
shapes = (
{
closed = 1;
nodes = (
(764,-187,l),
(365,-180,o),
(249,-100,o),
(249,180,cs),
(249,515,ls),
(249,576,o),
(237,625,o),
(214,662,cs),
(195,691,o),
(148,708,o),
(72,715,c),
(72,920,l),
(148,928,o),
(195,945,o),
(213,974,cs),
(237,1011,o),
(249,1059,o),
(249,1120,cs),
(249,1455,ls),
(249,1648,o),
(304,1748,o),
(457,1786,cs),
(549,1808,o),
(650,1820,o),
(764,1822,c),
(764,1554,l),
(406,1554,l),
(406,1535,l),
(588,1441,l),
(588,1097,ls),
(588,898,o),
(476,840,o),
(354,818,c),
(476,796,o),
(588,739,o),
(588,538,cs),
(588,163,ls),
(588,110,o),
(708,84,o),
(764,82,c)
);
}
);
width = 836;
}
);
unicode = 123;
},
{
glyphname = braceleft.case;
layers = (
{
layerId = "F0BF49F4-A9AA-409A-9DDE-053E9F81ED51";
shapes = (
{
closed = 1;
nodes = (
(764,-9,l),
(365,-2,o),
(249,78,o),
(249,358,cs),
(249,583,ls),
(249,644,o),
(237,693,o),
(214,730,cs),
(195,759,o),
(148,776,o),
(72,783,c),
(72,988,l),
(148,996,o),
(195,1013,o),
(213,1042,cs),
(237,1079,o),
(249,1127,o),
(249,1188,cs),
(249,1402,ls),
(249,1595,o),
(304,1695,o),
(457,1733,cs),
(549,1755,o),
(650,1767,o),
(764,1769,c),
(764,1500,l),
(401,1500,l),
(401,1476,l),
(588,1383,l),
(588,1165,ls),
(588,965,o),
(476,908,o),
(354,886,c),
(476,864,o),
(588,807,o),
(588,606,cs),
(588,341,ls),
(588,288,o),
(708,262,o),
(764,260,c)
);
}
);
width = 836;
}
);
},
{
glyphname = braceright;
layers = (
{
layerId = "F0BF49F4-A9AA-409A-9DDE-053E9F81ED51";
shapes = (
{
closed = 1;
nodes = (
(72,82,l),
(128,84,o),
(248,110,o),
(248,163,cs),
(248,538,ls),
(248,736,o),
(362,795,o),
(482,818,c),
(362,841,o),
(248,899,o),
(248,1097,cs),
(248,1451,l),
(428,1536,l),
(428,1553,l),
(72,1553,l),
(72,1822,l),
(324,1818,o),
(464,1779,o),
(538,1674,cs),
(571,1628,o),
(587,1555,o),
(587,1455,cs),
(587,1120,ls),
(587,1059,o),
(599,1011,o),
(623,974,cs),
(642,945,o),
(689,928,o),
(763,921,c),
(763,715,l),
(689,708,o),
(642,691,o),
(623,662,cs),
(599,625,o),
(587,576,o),
(587,515,cs),
(587,180,ls),
(587,-100,o),
(471,-180,o),
(72,-187,c)
);
}
);
width = 835;
}
);
unicode = 125;
},
{
glyphname = braceright.case;
layers = (
{
layerId = "F0BF49F4-A9AA-409A-9DDE-053E9F81ED51";
shapes = (
{
closed = 1;
nodes = (
(72,260,l),
(127,262,o),
(248,288,o),
(248,341,cs),
(248,606,ls),
(248,804,o),
(362,863,o),
(482,886,c),
(362,909,o),
(248,967,o),
(248,1165,cs),
(248,1404,l),
(418,1487,l),
(418,1500,l),
(72,1500,l),
(72,1769,l),
(324,1765,o),
(464,1726,o),
(538,1621,cs),
(571,1575,o),
(587,1502,o),
(587,1402,cs),
(587,1188,ls),
(587,1127,o),
(598,1079,o),
(622,1042,cs),
(641,1013,o),
(688,996,o),
(763,989,c),
(763,783,l),
(688,776,o),
(641,759,o),
(622,730,cs),
(598,693,o),
(587,644,o),
(587,583,cs),
(587,358,ls),
(587,78,o),
(470,-2,o),
(72,-9,c)
);
}
);
width = 835;
}
);
},
{
glyphname = bracketleft;
layers = (
{
layerId = "F0BF49F4-A9AA-409A-9DDE-053E9F81ED51";
shapes = (
{
closed = 1;
nodes = (
(72,-188,l),
(72,1823,l),
(667,1823,l),
(667,1542,l),
(210,1542,l),
(210,1512,l),
(411,1402,l),
(411,93,l),
(667,93,l),
(667,-188,l)
);
}
);
width = 739;
}
);
unicode = 91;
},
{
glyphname = bracketleft.case;
layers = (
{
layerId = "F0BF49F4-A9AA-409A-9DDE-053E9F81ED51";
shapes = (
{
closed = 1;
nodes = (
(72,0,l),
(72,1760,l),
(667,1760,l),
(667,1479,l),
(220,1479,l),
(220,1460,l),
(411,1363,l),
(411,281,l),
(667,281,l),
(667,0,l)
);
}
);
width = 739;
}
);
},
{
glyphname = bracketright;
layers = (
{
layerId = "F0BF49F4-A9AA-409A-9DDE-053E9F81ED51";
shapes = (
{
closed = 1;
nodes = (
(72,-188,l),
(72,93,l),
(327,93,l),
(327,1443,l),
(523,1521,l),
(523,1542,l),
(72,1542,l),
(72,1823,l),
(667,1823,l),
(667,-188,l)
);
}
);
width = 739;
}
);
unicode = 93;
},
{
glyphname = bracketright.case;
layers = (
{
layerId = "F0BF49F4-A9AA-409A-9DDE-053E9F81ED51";
shapes = (
{
closed = 1;
nodes = (
(667,0,l),
(72,0,l),
(72,281,l),
(327,281,l),
(327,1369,l),
(492,1469,l),
(492,1479,l),
(72,1479,l),
(72,1760,l),
(667,1760,l)
);
}
);
width = 739;
}
);
},
{
glyphname = breve;
layers = (
{
layerId = "F0BF49F4-A9AA-409A-9DDE-053E9F81ED51";
shapes = (
{
closed = 1;
nodes = (
(243.219,1592,o),
(72.241,1716,o),
(72.241,1903,c),
(72.241,1945,l),
(293.879,1945,l),
(293.879,1835,o),
(347.072,1778,o),
(518.049,1778,cs),
(689.027,1778,o),
(742.22,1835,o),
(742.22,1945,c),
(962.591,1945,l),
(962.591,1910,l),
(962.591,1719,o),
(794.146,1592,o),
(515.516,1592,cs)
);
}
);
width = 1035;
}
);
unicode = 728;
},
{
glyphname = uni0306.case;
layers = (
{
anchors = (
{
name = _t.acutecomb.case;
position = "{517, 1500}";
},
{
name = _t.acutecomb.case_2;
position = "{517, 1500}";
},
{
name = t.acutecomb.case_2;
position = "{518, 1914}";
}
);
layerId = "F0BF49F4-A9AA-409A-9DDE-053E9F81ED51";
shapes = (
{
closed = 1;
nodes = (
(386.551,1592,o),
(276.365,1614,o),
(185.177,1659,cs),
(110.454,1695,o),
(72.459,1767,o),
(72.459,1873,cs),
(72.459,1889,o),
(73.725,1903,o),
(76.258,1915,c),
(294.096,1915,l),
(294.096,1832,o),
(347.289,1789,o),
(518.266,1789,cs),
(689.244,1789,o),
(742.437,1832,o),
(742.437,1915,c),
(960.275,1915,l),
(961.541,1900,o),
(962.808,1889,o),
(962.808,1880,cs),
(962.808,1771,o),
(924.813,1698,o),
(851.356,1661,cs),
(760.168,1615,o),
(648.716,1592,o),
(515.734,1592,cs)
);
}
);
width = 1035;
}
);
},
{
glyphname = uni0311.case;
layers = (
{
anchors = (
{
name = _t.acutecomb.case;
position = "{492, 1610}";
},
{
name = t.acutecomb_3;
position = "{492, 2062}";
},
{
name = _t.acutecomb.case_2;
position = "{492, 1610}";
}
);
layerId = "F0BF49F4-A9AA-409A-9DDE-053E9F81ED51";
shapes = (
{
closed = 1;
nodes = (
(76.322,1709,l),
(73.789,1721,o),
(72.522,1735,o),
(72.522,1751,cs),
(72.522,1968,o),
(228.302,2062,o),
(490.467,2062,cs),
(760.231,2062,o),
(912.211,1967,o),
(912.211,1744,cs),
(912.211,1736,o),
(910.945,1722,o),
(909.678,1709,c),
(717.17,1709,l),
(717.17,1800,o),
(623.449,1844,o),
(493,1844,cs),
(363.817,1844,o),
(268.83,1800,o),
(268.83,1709,c)
);
}
);
width = 985;
}
);
},
{
glyphname = brokenbar;
layers = (
{
layerId = "F0BF49F4-A9AA-409A-9DDE-053E9F81ED51";
shapes = (
{
closed = 1;
nodes = (
(72,1043,l),
(72,1953,l),
(370,1953,l),
(370,1043,l)
);
},
{
closed = 1;
nodes = (
(72,-84,l),
(72,796,l),
(370,796,l),
(370,-84,l)
);
}
);
width = 442;
}
);
unicode = 166;
},
{
glyphname = bullet;
layers = (
{
layerId = "F0BF49F4-A9AA-409A-9DDE-053E9F81ED51";
shapes = (
{
closed = 1;
nodes = (
(317.153,403,o),
(233.564,434,o),
(163.906,497,cs),
(103.114,551,o),
(72.718,632,o),
(72.718,741,cs),
(72.718,850,o),
(103.114,932,o),
(163.906,986,cs),
(233.564,1048,o),
(317.153,1079,o),
(415.94,1079,cs),
(514.727,1079,o),
(599.582,1048,o),
(669.24,986,cs),
(730.032,932,o),
(760.428,850,o),
(760.428,741,cs),
(760.428,632,o),
(730.032,551,o),
(669.24,497,cs),
(599.582,434,o),
(514.727,403,o),
(415.94,403,cs)
);
}
);
width = 833;
}
);
unicode = 8226;
},
{
glyphname = uni2219;
layers = (
{
layerId = "F0BF49F4-A9AA-409A-9DDE-053E9F81ED51";
shapes = (
{
closed = 1;
nodes = (
(72,723,l),
(72,1021,l),
(369,1021,l),
(369,723,l)
);
}
);
width = 441;
}
);
unicode = 8729;
},
{
glyphname = c;
layers = (
{
anchors = (
{
name = b.uni0327;
position = "{591, 0}";
},
{
name = t.acutecomb;
position = "{593, 1500}";
}
);
layerId = "F0BF49F4-A9AA-409A-9DDE-053E9F81ED51";
shapes = (
{
closed = 1;
nodes = (
(183.168,-16,o),
(72.982,197,o),
(72.982,492,cs),
(72.982,954,ls),
(72.982,1330,o),
(186.967,1516,o),
(596.047,1516,cs),
(877.21,1516,o),
(1089.982,1381,o),
(1089.982,1135,cs),
(1089.982,906,l),
(741.694,906,l),
(741.694,1116,ls),
(741.694,1185,o),
(715.098,1239,o),
(583.382,1239,c),
(242.693,1239,l),
(242.693,1223,l),
(414.937,1117,l),
(414.937,387,ls),
(414.937,326,o),
(463.064,264,o),
(580.849,264,cs),
(702.433,264,o),
(744.227,322,o),
(744.227,389,cs),
(744.227,641,l),
(1089.982,641,l),
(1089.982,379,ls),
(1089.982,131,o),
(884.809,-16,o),
(602.379,-16,cs)
);
}
);
width = 1162;
}
);
leftKerningGroup = c2;
rightKerningGroup = c;
unicode = 99;
},
{
glyphname = c_h;
layers = (
{
anchors = (
{
name = t.acutecomb_2_ligComponent_1;
position = "{592, 1500}";
},
{
name = t.acutecomb_2_ligComponent_2;
position = "{1538, 1760}";
},
{
name = b.uni0327;
position = "{591, 0}";
},
{
name = t.acutecomb;
position = "{593, 1500}";
},
{
name = t.uni0304_2;
position = "{1340, 1603}";
},
{
name = t.uni0335_4;
position = "{1679, 1000}";
},
{
name = m.uni032E;
position = "{1679, 0}";
}
);
layerId = "F0BF49F4-A9AA-409A-9DDE-053E9F81ED51";
shapes = (
{
closed = 1;
nodes = (
(183.168,-16,o),
(72.982,197,o),
(72.982,492,cs),
(72.982,954,ls),
(72.982,1319,o),
(181.901,1500,o),
(570.717,1500,c),
(1225.497,1500,l),
(1225.497,1198,l),
(242.693,1198,l),
(242.693,1182,l),
(414.937,1076,l),
(414.937,387,ls),
(414.937,326,o),
(463.064,264,o),
(580.849,264,cs),
(702.433,264,o),
(744.227,322,o),
(744.227,389,cs),
(744.227,641,l),
(1089.982,641,l),
(1089.982,379,ls),
(1089.982,131,o),
(884.809,-16,o),
(602.379,-16,cs)
);
},
{
closed = 1;
nodes = (
(1211.566,0,l),
(1211.566,1760,l),
(1563.653,1760,l),
(1563.653,1500,l),
(1910.674,1500,ls),
(2134.844,1500,o),
(2231.098,1375,o),
(2231.098,1155,cs),
(2231.098,0,l),
(1886.61,0,l),
(1886.61,1087,ls),
(1886.61,1152,o),
(1835.95,1198,o),
(1721.965,1198,cs),
(1369.878,1198,l),
(1369.878,1185,l),
(1563.653,1076,l),
(1563.653,0,l)
);
}
);
width = 2304;
}
);
},
{
glyphname = c_t;
layers = (
{
anchors = (
{
name = t.acutecomb_2_ligComponent_1;
position = "{592, 1500}";
},
{
name = t.acutecomb_2_ligComponent_2;
position = "{1612, 1760}";
},
{
name = b.uni0327;
position = "{591, 0}";
},
{
name = t.acutecomb;
position = "{593, 1500}";
},
{
name = t.uni0304_2;
position = "{1552, 776}";
},
{
name = m.uni032E;
position = "{1637, 0}";
}
);
layerId = "F0BF49F4-A9AA-409A-9DDE-053E9F81ED51";
shapes = (
{
closed = 1;
nodes = (
(1380.01,1760,l),
(1715.633,1760,l),
(1715.633,1500,l),
(1900.542,1500,l),
(1900.542,1197,l),
(1530.724,1197,l),
(1530.724,1178,l),
(1706.767,1067,l),
(1706.767,415,ls),
(1706.767,323,o),
(1740.963,282,o),
(1835.95,284,c),
(1900.542,283,l),
(1900.542,0,l),
(1735.897,0,ls),
(1497.795,0,o),
(1380.01,116,o),
(1380.01,345,cs),
(1380.01,1197,l),
(1202.7,1197,l),
(1202.7,1496,l),
(1380.01,1496,l)
);
},
{
closed = 1;
nodes = (
(344.013,-16,o),
(233.828,197,o),
(233.828,492,cs),
(233.828,954,ls),
(233.828,1319,o),
(342.747,1500,o),
(731.562,1500,c),
(1345.815,1500,l),
(1345.815,1198,l),
(403.539,1198,l),
(403.539,1182,l),
(575.783,1076,l),
(575.783,387,ls),
(575.783,326,o),
(623.91,264,o),
(741.694,264,cs),
(863.278,264,o),
(905.073,322,o),
(905.073,389,cs),
(905.073,641,l),
(1250.827,641,l),
(1250.827,379,ls),
(1250.827,131,o),
(1045.654,-16,o),
(763.225,-16,cs)
);
}
);
width = 1973;
}
);
},
{
glyphname = caron;
layers = (
{
layerId = "F0BF49F4-A9AA-409A-9DDE-053E9F81ED51";
shapes = (
{
closed = 1;
nodes = (
(165.975,1918,l),
(445.871,1918,l),
(567.455,1709,l),
(613.049,1709,l),
(734.633,1918,l),
(1014.53,1918,l),
(803.024,1591,l),
(377.48,1591,l)
);
}
);
width = 1181;
}
);
unicode = 711;
},
{
glyphname = uni030C;
layers = (
{
anchors = (
{
name = _t.acutecomb;
position = "{590, 1500}";
},
{
name = _t.acutecomb_2;
position = "{590, 1500}";
},
{
name = _t.acutecomb_3;
position = "{590, 1500}";
}
);
layerId = "F0BF49F4-A9AA-409A-9DDE-053E9F81ED51";
shapes = (
{
closed = 1;
nodes = (
(165.723,1918,l),
(445.619,1918,l),
(567.203,1709,l),
(612.797,1709,l),
(734.381,1918,l),
(1014.277,1918,l),
(802.772,1591,l),
(377.228,1591,l)
);
}
);
width = 1180;
}
);
unicode = 780;
},
{
glyphname = uni030C.alt;
layers = (
{
layerId = "F0BF49F4-A9AA-409A-9DDE-053E9F81ED51";
shapes = (
{
closed = 1;
nodes = (
(133.352,1283,l),
(173.88,1418,l),
(297.997,1484,l),
(297.997,1495,l),
(72.56,1495,l),
(72.56,1763,l),
(363.855,1763,l),
(363.855,1496,l),
(265.068,1283,l)
);
}
);
width = 430;
}
);
},
{
glyphname = uni030C.case;
layers = (
{
anchors = (
{
name = _t.acutecomb.case;
position = "{593, 1610}";
},
{
name = _b.uni030C.case;
position = "{593, 2145}";
},
{
name = b.uni030C.case;
position = "{593, 1673}";
},
{
name = t.acutecomb_3;
position = "{593, 2044}";
},
{
name = _t.acutecomb.case_2;
position = "{593, 1610}";
}
);
layerId = "F0BF49F4-A9AA-409A-9DDE-053E9F81ED51";
shapes = (
{
closed = 1;
nodes = (
(72.469,2044,l),
(434.688,2044,l),
(543.607,1829,l),
(642.393,1829,l),
(751.312,2044,l),
(1113.531,2044,l),
(808.305,1711,l),
(377.695,1711,l)
);
}
);
width = 1186;
}
);
},
{
glyphname = ccedilla;
layers = (
{
anchors = (
{
name = b.uni0327;
position = "{590, 0}";
},
{
name = t.acutecomb;
position = "{592, 1500}";
}
);
layerId = "F0BF49F4-A9AA-409A-9DDE-053E9F81ED51";
shapes = (
{
closed = 1;
nodes = (
(563.385,-631,o),
(497.527,-621,o),
(439.268,-602,c),
(439.268,-386,l),
(451.933,-389,o),
(477.263,-391,o),
(535.522,-391,cs),
(650.774,-391,o),
(736.896,-360,o),
(736.896,-273,cs),
(736.896,-205,o),
(684.969,-104,o),
(596.314,0,c),
(720.431,0,l),
(872.411,-105,o),
(961.066,-255,o),
(961.066,-387,cs),
(961.066,-549,o),
(839.482,-631,o),
(636.842,-631,cs)
);
},
{
alignment = -1;
ref = c;
}
);
width = 1162;
}
);
leftKerningGroup = c2;
rightKerningGroup = c;
unicode = 231;
},
{
glyphname = cedilla;
layers = (
{
layerId = "F0BF49F4-A9AA-409A-9DDE-053E9F81ED51";
shapes = (
{
closed = 1;
nodes = (
(72.853,-533,l),
(72.853,-329,l),
(169.107,-329,l),
(284.358,-329,o),
(370.48,-303,o),
(370.48,-230,cs),
(370.48,-173,o),
(289.424,-66,o),
(169.107,0,c),
(354.016,0,l),
(505.996,-88,o),
(594.651,-215,o),
(594.651,-326,cs),
(594.651,-462,o),
(473.067,-531,o),
(270.427,-531,c)
);
}
);
width = 667;
}
);
unicode = 184;
},
{
glyphname = uni0327.case;
layers = (
{
anchors = (
{
name = _b.uni0327;
position = "{303, 0}";
},
{
name = _m.uni032E;
position = "{333, 0}";
},
{
name = _m.uni032E_2;
position = "{333, 0}";
},
{
name = _b.uni032E;
position = "{333, 0}";
},
{
name = b.uni032E;
position = "{333, -631}";
}
);
layerId = "F0BF49F4-A9AA-409A-9DDE-053E9F81ED51";
shapes = (
{
closed = 1;
nodes = (
(196,-631,o),
(131,-621,o),
(72,-602,c),
(72,-386,l),
(85,-389,o),
(110,-391,o),
(169,-391,cs),
(284,-391,o),
(370,-360,o),
(370,-273,cs),
(370,-205,o),
(318,-104,o),
(229,0,c),
(353,0,l),
(505,-105,o),
(594,-255,o),
(594,-387,cs),
(594,-549,o),
(472,-631,o),
(270,-631,cs)
);
}
);
width = 666;
}
);
},
{
glyphname = cent;
layers = (
{
layerId = "F0BF49F4-A9AA-409A-9DDE-053E9F81ED51";
shapes = (
{
closed = 1;
nodes = (
(520.059,-163,l),
(520.059,1677,l),
(632.778,1677,l),
(632.778,-163,l)
);
},
{
alignment = -1;
ref = c;
}
);
width = 1170;
}
);
unicode = 162;
},
{
glyphname = circumflex;
layers = (
{
layerId = "F0BF49F4-A9AA-409A-9DDE-053E9F81ED51";
shapes = (
{
closed = 1;
nodes = (
(165.975,1591,l),
(377.48,1918,l),
(803.024,1918,l),
(1014.53,1591,l),
(734.633,1591,l),
(613.049,1800,l),
(567.455,1800,l),
(445.871,1591,l)
);
}
);
width = 1181;
}
);
unicode = 710;
},
{
glyphname = uni0302.case;
layers = (
{
anchors = (
{
name = _t.acutecomb.case;
position = "{593, 1500}";
},
{
name = _t.acutecomb.case_2;
position = "{593, 1500}";
},
{
name = t.acutecomb.case_2;
position = "{593, 1972}";
}
);
layerId = "F0BF49F4-A9AA-409A-9DDE-053E9F81ED51";
shapes = (
{
closed = 1;
nodes = (
(72.469,1601,l),
(377.695,1934,l),
(808.305,1934,l),
(1113.531,1601,l),
(751.312,1601,l),
(642.393,1816,l),
(543.607,1816,l),
(434.688,1601,l)
);
}
);
width = 1186;
}
);
},
{
glyphname = uni01C2;
layers = (
{
layerId = "F0BF49F4-A9AA-409A-9DDE-053E9F81ED51";
shapes = (
{
closed = 1;
nodes = (
(303,-186,l),
(303,348,l),
(72,348,l),
(72,644,l),
(303,644,l),
(303,938,l),
(72,938,l),
(72,1234,l),
(303,1234,l),
(303,1760,l),
(628,1760,l),
(628,1373,l),
(450,1254,l),
(450,1234,l),
(856,1234,l),
(856,938,l),
(628,938,l),
(628,644,l),
(856,644,l),
(856,348,l),
(450,348,l),
(450,329,l),
(628,215,l),
(628,-186,l)
);
}
);
width = 928;
}
);
unicode = 450;
},
{
glyphname = uni01C0;
layers = (
{
layerId = "F0BF49F4-A9AA-409A-9DDE-053E9F81ED51";
shapes = (
{
closed = 1;
nodes = (
(72,-186,l),
(72,1760,l),
(396,1760,l),
(396,-186,l)
);
}
);
width = 468;
}
);
unicode = 448;
},
{
glyphname = uni01C1;
layers = (
{
layerId = "F0BF49F4-A9AA-409A-9DDE-053E9F81ED51";
shapes = (
{
closed = 1;
nodes = (
(72,-186,l),
(72,1760,l),
(396,1760,l),
(396,-186,l)
);
},
{
closed = 1;
nodes = (
(756,-186,l),
(756,1760,l),
(1080,1760,l),
(1080,-186,l)
);
}
);
width = 1152;
}
);
unicode = 449;
},
{
glyphname = colon;
layers = (
{
layerId = "F0BF49F4-A9AA-409A-9DDE-053E9F81ED51";
shapes = (
{
closed = 1;
nodes = (
(72.315,976,l),
(72.315,1274,l),
(419.336,1274,l),
(419.336,976,l)
);
},
{
closed = 1;
nodes = (
(72.315,237,l),
(72.315,535,l),
(419.336,535,l),
(419.336,237,l)
);
}
);
width = 492;
}
);
unicode = 58;
},
{
glyphname = colonmonetary;
layers = (
{
layerId = "F0BF49F4-A9AA-409A-9DDE-053E9F81ED51";
shapes = (
{
closed = 1;
nodes = (
(149,-113,l),
(618,1679,l),
(695,1679,l),
(226,-113,l)
);
},
{
closed = 1;
nodes = (
(379,-113,l),
(848,1679,l),
(925,1679,l),
(456,-113,l)
);
},
{
alignment = -1;
ref = c;
}
);
width = 1035;
}
);
unicode = 8353;
},
{
glyphname = comma;
layers = (
{
layerId = "F0BF49F4-A9AA-409A-9DDE-053E9F81ED51";
shapes = (
{
closed = 1;
nodes = (
(148,-235,l),
(211,-54,l),
(337,-9,l),
(337,1,l),
(72,1,l),
(72,299,l),
(439,299,l),
(439,2,l),
(314,-235,l)
);
}
);
width = 511;
}
);
unicode = 44;
},
{
glyphname = comma.dnom;
layers = (
{
layerId = "F0BF49F4-A9AA-409A-9DDE-053E9F81ED51";
shapes = (
{
closed = 1;
nodes = (
(133,-210,l),
(174,-75,l),
(298,-9,l),
(298,2,l),
(72,2,l),
(72,270,l),
(364,270,l),
(364,3,l),
(265,-210,l)
);
}
);
width = 435;
}
);
},
{
glyphname = comma.numr;
layers = (
{
layerId = "F0BF49F4-A9AA-409A-9DDE-053E9F81ED51";
shapes = (
{
closed = 1;
nodes = (
(132.972,936,l),
(173.5,1071,l),
(297.617,1137,l),
(297.617,1148,l),
(72.18,1148,l),
(72.18,1416,l),
(363.475,1416,l),
(363.475,1149,l),
(264.688,936,l)
);
}
);
width = 436;
}
);
},
{
glyphname = uni0313;
layers = (
{
anchors = (
{
name = _t.acutecomb;
position = "{256, 1500}";
},
{
name = _t.acutecomb_2;
position = "{256, 1500}";
},
{
name = _t.acutecomb_3;
position = "{256, 1500}";
},
{
name = t.acutecomb_3;
position = "{256, 2190}";
}
);
layerId = "F0BF49F4-A9AA-409A-9DDE-053E9F81ED51";
shapes = (
{
closed = 1;
nodes = (
(362,2190,l),
(310,2040,l),
(154,1966,l),
(154,1954,l),
(438,1954,l),
(438,1656,l),
(72,1656,l),
(72,1953,l),
(196,2190,l)
);
}
);
width = 512;
}
);
unicode = 787;
},
{
glyphname = uni0326;
layers = (
{
anchors = (
{
name = _m.uni032E;
position = "{272, 0}";
},
{
name = _m.uni032E_2;
position = "{272, 0}";
},
{
name = _b.uni032E;
position = "{272, 0}";
},
{
name = b.uni032E;
position = "{256, -643}";
}
);
layerId = "F0BF49F4-A9AA-409A-9DDE-053E9F81ED51";
shapes = (
{
closed = 1;
nodes = (
(148.15,-644,l),
(200.076,-494,l),
(355.855,-420,l),
(355.855,-408,l),
(72.16,-408,l),
(72.16,-110,l),
(438.178,-110,l),
(438.178,-407,l),
(314.061,-644,l)
);
}
);
width = 512;
}
);
unicode = 806;
},
{
glyphname = uni0326.alt;
layers = (
{
layerId = "F0BF49F4-A9AA-409A-9DDE-053E9F81ED51";
shapes = (
{
closed = 1;
nodes = (
(362.6,2260,l),
(310.673,2110,l),
(154.894,2036,l),
(154.894,2024,l),
(438.59,2024,l),
(438.59,1726,l),
(72.571,1726,l),
(72.571,2023,l),
(196.688,2260,l)
);
}
);
width = 505;
}
);
},
{
glyphname = uni0326.case;
layers = (
{
anchors = (
{
name = _m.uni032E;
position = "{256, 0}";
},
{
name = _m.uni032E_2;
position = "{256, 0}";
},
{
name = _b.uni032E;
position = "{256, 0}";
},
{
name = b.uni032E;
position = "{256, -643}";
}
);
layerId = "F0BF49F4-A9AA-409A-9DDE-053E9F81ED51";
shapes = (
{
closed = 1;
nodes = (
(148,-644,l),
(200,-494,l),
(356,-420,l),
(356,-408,l),
(72,-408,l),
(72,-110,l),
(438,-110,l),
(438,-407,l),
(314,-644,l)
);
}
);
width = 511;
}
);
},
{
glyphname = uni0312;
layers = (
{
anchors = (
{
name = _t.acutecomb;
position = "{256, 1500}";
},
{
name = _t.acutecomb_2;
position = "{256, 1500}";
},
{
name = _t.acutecomb_3;
position = "{256, 1500}";
},
{
name = t.acutecomb_3;
position = "{256, 2190}";
}
);
layerId = "F0BF49F4-A9AA-409A-9DDE-053E9F81ED51";
shapes = (
{
closed = 1;
nodes = (
(362,2190,l),
(310,2040,l),
(154,1966,l),
(154,1954,l),
(438,1954,l),
(438,1656,l),
(72,1656,l),
(72,1953,l),
(196,2190,l)
);
}
);
width = 512;
}
);
unicode = 786;
},
{
glyphname = uni0312.case;
layers = (
{
anchors = (
{
name = _t.acutecomb;
position = "{256, 1760}";
},
{
name = _t.acutecomb_2;
position = "{256, 1760}";
},
{
name = _t.acutecomb_3;
position = "{256, 1760}";
},
{
name = t.acutecomb_3;
position = "{256, 2300}";
}
);
layerId = "F0BF49F4-A9AA-409A-9DDE-053E9F81ED51";
shapes = (
{
closed = 1;
nodes = (
(362,2300,l),
(310,2150,l),
(154,2076,l),
(154,2064,l),
(438,2064,l),
(438,1766,l),
(72,1766,l),
(72,2063,l),
(196,2300,l)
);
}
);
width = 512;
}
);
},
{
glyphname = uni02BB;
layers = (
{
layerId = "F0BF49F4-A9AA-409A-9DDE-053E9F81ED51";
shapes = (
{
closed = 1;
nodes = (
(362,1500,l),
(310,1350,l),
(154,1276,l),
(154,1264,l),
(438,1264,l),
(438,966,l),
(72,966,l),
(72,1263,l),
(196,1500,l)
);
}
);
width = 511;
}
);
unicode = 699;
},
{
glyphname = copyright;
layers = (
{
layerId = "F0BF49F4-A9AA-409A-9DDE-053E9F81ED51";
shapes = (
{
closed = 1;
nodes = (
(409,0,o),
(72,380,o),
(72,880,cs),
(72,1380,o),
(409,1760,o),
(851,1760,cs),
(1293,1760,o),
(1630,1380,o),
(1630,880,cs),
(1630,380,o),
(1293,0,o),
(851,0,cs)
);
},
{
closed = 1;
nodes = (
(1259,107,o),
(1535,453,o),
(1535,880,cs),
(1535,1309,o),
(1243,1653,o),
(851,1653,cs),
(444,1653,o),
(167,1307,o),
(167,880,cs),
(167,455,o),
(463,107,o),
(851,107,cs)
);
},
{
closed = 1;
nodes = (
(700,293,o),
(509,405,o),
(509,594,cs),
(509,1205,ls),
(509,1387,o),
(678,1474,o),
(849,1474,cs),
(988,1474,o),
(1191,1387,o),
(1191,1205,cs),
(1191,1001,l),
(960,1001,l),
(960,1136,ls),
(960,1204,o),
(923,1239,o),
(849,1239,c),
(628,1239,l),
(628,1228,l),
(740,1174,l),
(740,606,ls),
(740,566,o),
(779,518,o),
(849,518,cs),
(923,518,o),
(960,548,o),
(960,606,cs),
(960,805,l),
(1191,805,l),
(1191,587,ls),
(1191,391,o),
(1013,293,o),
(844,293,cs)
);
}
);
width = 1702;
}
);
unicode = 169;
},
{
glyphname = uni023C;
layers = (
{
anchors = (
{
name = b.uni0327;
position = "{590, 0}";
},
{
name = t.acutecomb;
position = "{592, 1500}";
}
);
layerId = "F0BF49F4-A9AA-409A-9DDE-053E9F81ED51";
shapes = (
{
closed = 1;
nodes = (
(248,-186,l),
(888,1760,l),
(956,1760,l),
(316,-186,l)
);
},
{
alignment = -1;
ref = c;
}
);
width = 1161;
}
);
leftKerningGroup = c2;
rightKerningGroup = c;
unicode = 572;
},
{
glyphname = currency;
layers = (
{
layerId = "F0BF49F4-A9AA-409A-9DDE-053E9F81ED51";
shapes = (
{
closed = 1;
nodes = (
(296,253,o),
(186,354,o),
(186,555,cs),
(186,945,ls),
(186,1143,o),
(326,1247,o),
(516,1247,cs),
(706,1247,o),
(848,1144,o),
(848,945,cs),
(848,555,ls),
(848,354,o),
(738,253,o),
(516,253,cs)
);
},
{
closed = 1;
nodes = (
(586,465,o),
(621,497,o),
(621,560,cs),
(621,920,ls),
(621,982,o),
(576,1015,o),
(517,1015,c),
(281,1015,l),
(281,991,l),
(413,920,l),
(413,560,ls),
(413,497,o),
(448,465,o),
(517,465,cs)
);
},
{
closed = 1;
nodes = (
(90,1275,l),
(216,1376,l),
(365,1189,l),
(239,1088,l)
);
},
{
closed = 1;
nodes = (
(941,1275,l),
(792,1088,l),
(666,1189,l),
(815,1376,l)
);
},
{
closed = 1;
nodes = (
(90,261,l),
(239,448,l),
(365,347,l),
(216,160,l)
);
},
{
closed = 1;
nodes = (
(941,261,l),
(815,160,l),
(666,347,l),
(792,448,l)
);
}
);
width = 978;
}
);
unicode = 164;
},
{
glyphname = d;
layers = (
{
anchors = (
{
name = t.uni0304_2;
position = "{891, 1629}";
},
{
name = t.uni0335_4;
position = "{565, 750}";
},
{
name = t.acutecomb;
position = "{893, 1760}";
},
{
name = m.uni032E;
position = "{618, 0}";
}
);
layerId = "F0BF49F4-A9AA-409A-9DDE-053E9F81ED51";
shapes = (
{
closed = 1;
nodes = (
(226.759,-16,o),
(72.246,161,o),
(72.246,391,cs),
(72.246,1129,ls),
(72.246,1273,o),
(110.241,1515,o),
(397.737,1516,cs),
(739.692,1517,l),
(739.692,1760,l),
(1086.713,1760,l),
(1086.713,0,l),
(739.692,0,l),
(739.692,224,l),
(728.293,224,l),
(678.9,42,o),
(557.316,-16,o),
(445.864,-16,cs)
);
},
{
closed = 1;
nodes = (
(662.435,263,o),
(710.562,282,o),
(721.961,320,cs),
(733.359,360,o),
(739.692,406,o),
(739.692,457,cs),
(739.692,1122,l),
(941.065,1221,l),
(941.065,1238,l),
(576.313,1237,l),
(406.602,1237,o),
(418.001,1151,o),
(418.001,1043,cs),
(418.001,457,ls),
(418.001,405,o),
(424.333,359,o),
(434.465,319,cs),
(444.597,282,o),
(492.724,263,o),
(577.58,263,cs)
);
}
);
width = 1159;
}
);
unicode = 100;
},
{
glyphname = dagger;
layers = (
{
layerId = "F0BF49F4-A9AA-409A-9DDE-053E9F81ED51";
shapes = (
{
closed = 1;
nodes = (
(304,0,l),
(304,996,l),
(72,996,l),
(72,1292,l),
(304,1292,l),
(304,1592,l),
(659,1592,l),
(659,1292,l),
(887,1292,l),
(887,996,l),
(452,996,l),
(452,976,l),
(659,871,l),
(659,0,l)
);
}
);
width = 959;
}
);
unicode = 8224;
},
{
glyphname = daggerdbl;
layers = (
{
layerId = "F0BF49F4-A9AA-409A-9DDE-053E9F81ED51";
shapes = (
{
closed = 1;
nodes = (
(304,0,l),
(304,350,l),
(72,350,l),
(72,646,l),
(304,646,l),
(304,940,l),
(72,940,l),
(72,1236,l),
(304,1236,l),
(304,1592,l),
(658,1592,l),
(658,1236,l),
(886,1236,l),
(886,940,l),
(460,940,l),
(460,920,l),
(658,784,l),
(658,646,l),
(886,646,l),
(886,350,l),
(460,350,l),
(460,325,l),
(658,194,l),
(658,0,l)
);
}
);
width = 958;
}
);
unicode = 8225;
},
{
glyphname = uni030F;
layers = (
{
anchors = (
{
name = _t.acutecomb;
position = "{649, 1500}";
},
{
name = _t.acutecomb_2;
position = "{649, 1500}";
},
{
name = _t.acutecomb_3;
position = "{649, 1500}";
}
);
layerId = "F0BF49F4-A9AA-409A-9DDE-053E9F81ED51";
shapes = (
{
closed = 1;
nodes = (
(399.5,1601,l),
(148.733,1964,l),
(376.703,1964,l),
(621.137,1601,l)
);
},
{
closed = 1;
nodes = (
(784.515,1601,l),
(545.147,1964,l),
(762.985,1964,l),
(1001.087,1601,l)
);
}
);
width = 1018;
}
);
unicode = 783;
},
{
glyphname = uni030F.case;
layers = (
{
anchors = (
{
name = _t.acutecomb;
position = "{648, 1500}";
},
{
name = _t.acutecomb_2;
position = "{648, 1500}";
},
{
name = _t.acutecomb_3;
position = "{648, 1500}";
}
);
layerId = "F0BF49F4-A9AA-409A-9DDE-053E9F81ED51";
shapes = (
{
closed = 1;
nodes = (
(343,1601,l),
(92,1964,l),
(320,1964,l),
(565,1601,l)
);
},
{
closed = 1;
nodes = (
(728,1601,l),
(489,1964,l),
(706,1964,l),
(944,1601,l)
);
}
);
width = 1016;
}
);
},
{
glyphname = dcroat;
layers = (
{
anchors = (
{
name = t.uni0304_2;
position = "{908, 1629}";
},
{
name = t.uni0335_4;
position = "{582, 750}";
},
{
name = t.acutecomb;
position = "{910, 1760}";
},
{
name = m.uni032E;
position = "{635, 0}";
}
);
layerId = "F0BF49F4-A9AA-409A-9DDE-053E9F81ED51";
shapes = (
{
closed = 1;
nodes = (
(527,1561,l),
(527,1714,l),
(1237,1714,l),
(1237,1561,l)
);
},
{
alignment = -1;
ref = d;
}
);
width = 1309;
}
);
unicode = 273;
},
{
glyphname = degree;
layers = (
{
layerId = "F0BF49F4-A9AA-409A-9DDE-053E9F81ED51";
shapes = (
{
closed = 1;
nodes = (
(249,1055,o),
(72,1159,o),
(72,1393,cs),
(72,1627,o),
(249,1731,o),
(466,1731,cs),
(683,1731,o),
(861,1628,o),
(861,1393,cs),
(861,1158,o),
(683,1055,o),
(466,1055,cs)
);
},
{
closed = 1;
nodes = (
(583,1236,o),
(651,1306,o),
(651,1393,cs),
(651,1480,o),
(583,1550,o),
(467,1550,cs),
(351,1550,o),
(283,1480,o),
(283,1393,cs),
(283,1306,o),
(351,1236,o),
(467,1236,cs)
);
}
);
width = 933;
}
);
unicode = 176;
},
{
glyphname = dieresis;
layers = (
{
layerId = "F0BF49F4-A9AA-409A-9DDE-053E9F81ED51";
shapes = (
{
closed = 1;
nodes = (
(622.443,1599,l),
(622.443,1864,l),
(931.469,1864,l),
(931.469,1599,l)
);
},
{
closed = 1;
nodes = (
(174.102,1599,l),
(174.102,1866,l),
(485.661,1866,l),
(485.661,1599,l)
);
}
);
width = 1105;
}
);
unicode = 168;
},
{
glyphname = uni0324.case;
layers = (
{
anchors = (
{
name = _t.acutecomb.case;
position = "{552, -566}";
},
{
name = _m.uni032E;
position = "{552, 0}";
},
{
name = _m.uni032E_2;
position = "{552, 0}";
},
{
name = _b.uni032E;
position = "{552, 0}";
},
{
name = b.uni032E;
position = "{552, -467}";
},
{
name = _t.acutecomb.case_2;
position = "{552, -566}";
},
{
name = t.acutecomb.case_2;
position = "{552, -169}";
}
);
layerId = "F0BF49F4-A9AA-409A-9DDE-053E9F81ED51";
shapes = (
{
closed = 1;
nodes = (
(685,-467,l),
(685,-219,l),
(1032,-219,l),
(1032,-467,l)
);
},
{
closed = 1;
nodes = (
(72,-467,l),
(72,-219,l),
(419,-219,l),
(419,-467,l)
);
}
);
width = 1104;
}
);
},
{
glyphname = uni0308;
layers = (
{
anchors = (
{
name = _t.acutecomb;
position = "{562, 1500}";
},
{
name = _t.acutecomb_2;
position = "{562, 1500}";
},
{
name = _t.acutecomb_3;
position = "{562, 1500}";
},
{
name = t.acutecomb_3;
position = "{553, 1897}";
}
);
layerId = "F0BF49F4-A9AA-409A-9DDE-053E9F81ED51";
shapes = (
{
closed = 1;
nodes = (
(594.794,1599,l),
(594.794,1897,l),
(941.815,1897,l),
(941.815,1599,l)
);
},
{
closed = 1;
nodes = (
(164.185,1599,l),
(164.185,1897,l),
(511.206,1897,l),
(511.206,1599,l)
);
}
);
width = 1106;
}
);
unicode = 776;
},
{
glyphname = uni0308.case;
layers = (
{
anchors = (
{
name = _t.acutecomb.case;
position = "{553, 1500}";
},
{
name = _t.acutecomb.case_2;
position = "{553, 1500}";
},
{
name = t.acutecomb.case_2;
position = "{553, 1897}";
}
);
layerId = "F0BF49F4-A9AA-409A-9DDE-053E9F81ED51";
shapes = (
{
closed = 1;
nodes = (
(685.982,1599,l),
(685.982,1847,l),
(1033.003,1847,l),
(1033.003,1599,l)
);
},
{
closed = 1;
nodes = (
(72.997,1599,l),
(72.997,1847,l),
(420.018,1847,l),
(420.018,1599,l)
);
}
);
width = 1106;
}
);
},
{
glyphname = divide;
layers = (
{
layerId = "F0BF49F4-A9AA-409A-9DDE-053E9F81ED51";
shapes = (
{
closed = 1;
nodes = (
(274,976,l),
(274,1274,l),
(545,1274,l),
(545,976,l)
);
},
{
closed = 1;
nodes = (
(72,638,l),
(72,870,l),
(746,870,l),
(746,638,l)
);
},
{
closed = 1;
nodes = (
(274,237,l),
(274,535,l),
(545,535,l),
(545,237,l)
);
}
);
width = 818;
}
);
unicode = 247;
},
{
glyphname = uni2215;
layers = (
{
layerId = "F0BF49F4-A9AA-409A-9DDE-053E9F81ED51";
shapes = (
{
closed = 1;
nodes = (
(72,0,l),
(591,1760,l),
(809,1760,l),
(288,0,l)
);
}
);
width = 881;
}
);
unicode = 8725;
},
{
glyphname = dollar;
layers = (
{
layerId = "F0BF49F4-A9AA-409A-9DDE-053E9F81ED51";
shapes = (
{
closed = 1;
nodes = (
(408,-141,l),
(408,12,l),
(469,36,l),
(185,62,o),
(72,205,o),
(72,488,cs),
(72,607,l),
(407,607,l),
(407,501,ls),
(407,398,o),
(465,347,o),
(583,347,cs),
(690,347,o),
(738,387,o),
(738,434,cs),
(738,467,o),
(707,509,o),
(643,560,cs),
(280,849,ls),
(157,946,o),
(95,1060,o),
(95,1192,cs),
(95,1396,o),
(269,1529,o),
(471,1558,c),
(408,1582,l),
(408,1707,l),
(736,1707,l),
(736,1585,l),
(675,1561,l),
(932,1535,o),
(1070,1369,o),
(1070,1041,c),
(725,1041,l),
(725,1163,l),
(904,1247,l),
(904,1259,l),
(565,1259,l),
(459,1259,o),
(405,1229,o),
(405,1182,cs),
(405,1157,o),
(452,1108,o),
(546,1034,cs),
(665,942,o),
(783,850,o),
(901,758,cs),
(997,684,o),
(1077,569,o),
(1077,413,cs),
(1077,295,o),
(1039,207,o),
(964,150,cs),
(877,82,o),
(780,43,o),
(675,34,c),
(736,10,l),
(736,-141,l)
);
}
);
width = 1149;
}
);
unicode = 36;
},
{
glyphname = uni0358;
layers = (
{
layerId = "F0BF49F4-A9AA-409A-9DDE-053E9F81ED51";
shapes = (
{
closed = 1;
nodes = (
(72,1592,l),
(72,1890,l),
(419,1890,l),
(419,1592,l)
);
}
);
width = 491;
}
);
unicode = 856;
},
{
glyphname = dotaccent;
layers = (
{
layerId = "F0BF49F4-A9AA-409A-9DDE-053E9F81ED51";
shapes = (
{
closed = 1;
nodes = (
(72.048,1592,l),
(72.048,1890,l),
(419.069,1890,l),
(419.069,1592,l)
);
}
);
width = 492;
}
);
unicode = 729;
},
{
glyphname = uni0307;
layers = (
{
anchors = (
{
name = _t.acutecomb;
position = "{246, 1500}";
},
{
name = _t.acutecomb_2;
position = "{246, 1500}";
},
{
name = _t.acutecomb_3;
position = "{246, 1500}";
},
{
name = t.acutecomb_3;
position = "{246, 1890}";
}
);
layerId = "F0BF49F4-A9AA-409A-9DDE-053E9F81ED51";
shapes = (
{
closed = 1;
nodes = (
(72.49,1592,l),
(72.49,1890,l),
(419.51,1890,l),
(419.51,1592,l)
);
}
);
width = 492;
}
);
unicode = 775;
},
{
glyphname = uni0307.case;
layers = (
{
anchors = (
{
name = _t.acutecomb.case;
position = "{246, 1500}";
},
{
name = _t.acutecomb.case_2;
position = "{246, 1500}";
},
{
name = t.acutecomb.case_2;
position = "{246, 1879}";
}
);
layerId = "F0BF49F4-A9AA-409A-9DDE-053E9F81ED51";
shapes = (
{
closed = 1;
nodes = (
(72.49,1592,l),
(72.49,1850,l),
(419.51,1850,l),
(419.51,1592,l)
);
}
);
width = 492;
}
);
},
{
glyphname = dotbelowcomb;
layers = (
{
anchors = (
{
name = _t.acutecomb;
position = "{246, -509}";
},
{
name = _m.uni032E;
position = "{246, 0}";
},
{
name = _t.acutecomb_2;
position = "{246, -509}";
},
{
name = _m.uni032E_2;
position = "{246, 0}";
},
{
name = _b.uni032E;
position = "{246, 0}";
},
{
name = _t.acutecomb_3;
position = "{246, -509}";
}
);
layerId = "F0BF49F4-A9AA-409A-9DDE-053E9F81ED51";
shapes = (
{
closed = 1;
nodes = (
(72.49,-417,l),
(72.49,-119,l),
(419.51,-119,l),
(419.51,-417,l)
);
}
);
width = 492;
}
);
unicode = 803;
},
{
glyphname = dotbelowcomb.case;
layers = (
{
anchors = (
{
name = _t.acutecomb;
position = "{246, -579}";
},
{
name = _m.uni032E;
position = "{246, 0}";
},
{
name = _t.acutecomb_2;
position = "{246, -579}";
},
{
name = _m.uni032E_2;
position = "{246, 0}";
},
{
name = _b.uni032E;
position = "{246, 0}";
},
{
name = b.uni032E;
position = "{246, -484}";
},
{
name = _t.acutecomb_3;
position = "{246, -579}";
}
);
layerId = "F0BF49F4-A9AA-409A-9DDE-053E9F81ED51";
shapes = (
{
closed = 1;
nodes = (
(72,-487,l),
(72,-189,l),
(420,-189,l),
(420,-487,l)
);
}
);
width = 492;
}
);
},
{
glyphname = arrowdown;
layers = (
{
layerId = "F0BF49F4-A9AA-409A-9DDE-053E9F81ED51";
shapes = (
{
closed = 1;
nodes = (
(1345,361,l),
(694,-61,l),
(103,361,l),
(103,686,l),
(454,419,l),
(518,203,l),
(540,204,l),
(540,1507,l),
(858,1507,l),
(858,204,l),
(880,203,l),
(945,419,l),
(1345,686,l)
);
}
);
width = 1450;
}
);
unicode = 8595;
},
{
glyphname = triagdn;
layers = (
{
layerId = "F0BF49F4-A9AA-409A-9DDE-053E9F81ED51";
shapes = (
{
closed = 1;
nodes = (
(151,1439,l),
(1791,1439,l),
(971,0,l)
);
}
);
width = 1942;
}
);
unicode = 9660;
},
{
glyphname = uni25BD;
layers = (
{
layerId = "F0BF49F4-A9AA-409A-9DDE-053E9F81ED51";
shapes = (
{
closed = 1;
nodes = (
(151,1439,l),
(1791,1439,l),
(971,0,l)
);
},
{
closed = 1;
nodes = (
(369,1298,l),
(971,241,l),
(1573,1298,l)
);
}
);
width = 1942;
}
);
unicode = 9661;
},
{
glyphname = e;
layers = (
{
anchors = (
{
name = m.uni0328_3;
position = "{596, 0}";
},
{
name = t.acutecomb.case;
position = "{586, 1500}";
},
{
name = t.acutecomb;
position = "{586, 1500}";
},
{
name = m.uni032E;
position = "{567, 0}";
}
);
layerId = "F0BF49F4-A9AA-409A-9DDE-053E9F81ED51";
shapes = (
{
closed = 1;
nodes = (
(198.366,-16,o),
(72.982,171,o),
(72.982,489,cs),
(72.982,1092,ls),
(72.982,1371,o),
(266.757,1516,o),
(585.915,1516,cs),
(912.672,1516,o),
(1076.05,1375,o),
(1076.05,1092,cs),
(1076.05,983,ls),
(1076.05,851,o),
(1074.784,732,o),
(1070.984,687,c),
(211.031,687,l),
(211.031,668,l),
(412.404,559,l),
(412.404,427,ls),
(412.404,347,o),
(425.069,260,o),
(575.783,260,cs),
(720.164,260,o),
(739.161,331,o),
(739.161,435,cs),
(739.161,579,l),
(1076.05,579,l),
(1076.05,494,ls),
(1076.05,158,o),
(951.933,-16,o),
(563.118,-16,cs)
);
},
{
closed = 1;
nodes = (
(409.871,945,l),
(739.161,945,l),
(739.161,1097,ls),
(739.161,1205,o),
(685.968,1249,o),
(580.849,1249,cs),
(471.93,1249,o),
(409.871,1209,o),
(409.871,1097,cs)
);
}
);
width = 1149;
}
);
leftKerningGroup = c2;
rightKerningGroup = e;
unicode = 101;
},
{
glyphname = eight;
layers = (
{
layerId = "F0BF49F4-A9AA-409A-9DDE-053E9F81ED51";
shapes = (
{
closed = 1;
nodes = (
(178,-19,o),
(72,236,o),
(72,525,cs),
(72,642,ls),
(72,829,o),
(110,936,o),
(233,986,c),
(230,986,l),
(117,1022,o),
(74,1129,o),
(74,1289,cs),
(74,1335,ls),
(74,1647,o),
(259,1782,o),
(602,1782,cs),
(954,1782,o),
(1129,1644,o),
(1129,1321,cs),
(1129,1145,o),
(1096,1026,o),
(972,984,c),
(969,984,l),
(1120,922,o),
(1131,759,o),
(1131,642,cs),
(1131,525,ls),
(1131,236,o),
(1026,-19,o),
(602,-19,cs)
);
},
{
closed = 1;
nodes = (
(716,1134,o),
(773,1190,o),
(773,1302,cs),
(773,1420,o),
(715,1458,o),
(602,1458,c),
(245,1458,l),
(245,1438,l),
(431,1358,l),
(431,1302,l),
(431,1190,o),
(488,1134,o),
(602,1134,cs)
);
},
{
closed = 1;
nodes = (
(718,329,o),
(777,381,o),
(777,484,cs),
(777,645,ls),
(777,752,o),
(731,815,o),
(602,815,c),
(242,815,l),
(242,801,l),
(428,721,l),
(428,645,l),
(428,484,ls),
(428,381,o),
(485,329,o),
(602,329,cs)
);
}
);
width = 1203;
}
);
unicode = 56;
},
{
glyphname = eight.dnom;
layers = (
{
layerId = "F0BF49F4-A9AA-409A-9DDE-053E9F81ED51";
shapes = (
{
closed = 1;
nodes = (
(152.041,-10,o),
(72.251,106,o),
(72.251,310,cs),
(72.251,374,ls),
(72.251,488,o),
(91.249,551,o),
(153.307,576,c),
(149.508,576,l),
(93.782,594,o),
(73.518,657,o),
(73.518,754,cs),
(73.518,781,ls),
(73.518,965,o),
(172.305,1044,o),
(358.48,1044,cs),
(548.455,1044,o),
(642.176,964,o),
(642.176,773,cs),
(642.176,667,o),
(626.978,595,o),
(566.186,575,c),
(563.653,575,l),
(637.11,547,o),
(643.443,461,o),
(643.443,336,cs),
(643.443,310,ls),
(643.443,106,o),
(563.653,-10,o),
(358.48,-10,cs)
);
},
{
closed = 1;
nodes = (
(442.069,663,o),
(483.864,696,o),
(483.864,762,cs),
(483.864,806,o),
(457.267,854,o),
(358.48,854,c),
(167.239,854,l),
(167.239,848,l),
(231.83,804,l),
(231.83,762,l),
(231.83,696,o),
(274.891,663,o),
(358.48,663,cs)
);
},
{
closed = 1;
nodes = (
(443.336,195,o),
(486.397,229,o),
(486.397,297,cs),
(486.397,364,ls),
(486.397,424,o),
(456.001,476,o),
(358.48,476,c),
(168.505,476,l),
(168.505,469,l),
(233.097,420,l),
(233.097,362,l),
(233.097,297,ls),
(233.097,229,o),
(274.891,195,o),
(358.48,195,cs)
);
}
);
width = 716;
}
);
},
{
glyphname = eight.numr;
layers = (
{
layerId = "F0BF49F4-A9AA-409A-9DDE-053E9F81ED51";
shapes = (
{
closed = 1;
nodes = (
(152,707,o),
(72,823,o),
(72,1027,cs),
(72,1091,ls),
(72,1205,o),
(91,1268,o),
(153,1293,c),
(150,1293,l),
(94,1311,o),
(74,1374,o),
(74,1471,cs),
(74,1498,ls),
(74,1682,o),
(172,1761,o),
(358,1761,cs),
(548,1761,o),
(642,1681,o),
(642,1490,cs),
(642,1384,o),
(627,1312,o),
(566,1292,c),
(564,1292,l),
(637,1264,o),
(643,1178,o),
(643,1053,cs),
(643,1027,ls),
(643,823,o),
(564,707,o),
(358,707,cs)
);
},
{
closed = 1;
nodes = (
(442,1380,o),
(484,1413,o),
(484,1479,cs),
(484,1523,o),
(457,1571,o),
(358,1571,c),
(167,1571,l),
(167,1565,l),
(232,1521,l),
(232,1479,l),
(232,1413,o),
(275,1380,o),
(358,1380,cs)
);
},
{
closed = 1;
nodes = (
(443,912,o),
(486,946,o),
(486,1014,cs),
(486,1081,ls),
(486,1141,o),
(456,1193,o),
(358,1193,c),
(169,1193,l),
(169,1186,l),
(233,1137,l),
(233,1079,l),
(233,1014,ls),
(233,946,o),
(275,912,o),
(358,912,cs)
);
}
);
width = 715;
}
);
},
{
glyphname = uni2088;
layers = (
{
layerId = "F0BF49F4-A9AA-409A-9DDE-053E9F81ED51";
shapes = (
{
closed = 1;
nodes = (
(152,-92,o),
(72,24,o),
(72,228,cs),
(72,292,ls),
(72,406,o),
(91,469,o),
(153,494,c),
(150,494,l),
(94,512,o),
(74,575,o),
(74,672,cs),
(74,699,ls),
(74,883,o),
(172,962,o),
(358,962,cs),
(548,962,o),
(642,882,o),
(642,691,cs),
(642,585,o),
(627,513,o),
(566,493,c),
(564,493,l),
(637,465,o),
(643,379,o),
(643,254,cs),
(643,228,ls),
(643,24,o),
(564,-92,o),
(358,-92,cs)
);
},
{
closed = 1;
nodes = (
(442,581,o),
(484,614,o),
(484,680,cs),
(484,724,o),
(457,772,o),
(358,772,c),
(167,772,l),
(167,766,l),
(232,722,l),
(232,680,l),
(232,614,o),
(275,581,o),
(358,581,cs)
);
},
{
closed = 1;
nodes = (
(443,113,o),
(486,147,o),
(486,215,cs),
(486,282,ls),
(486,342,o),
(456,394,o),
(358,394,c),
(169,394,l),
(169,387,l),
(233,338,l),
(233,280,l),
(233,215,ls),
(233,147,o),
(275,113,o),
(358,113,cs)
);
}
);
width = 715;
}
);
unicode = 8328;
},
{
glyphname = uni2078;
layers = (
{
layerId = "F0BF49F4-A9AA-409A-9DDE-053E9F81ED51";
shapes = (
{
closed = 1;
nodes = (
(152,759,o),
(72,875,o),
(72,1079,cs),
(72,1143,ls),
(72,1257,o),
(91,1320,o),
(153,1345,c),
(150,1345,l),
(94,1363,o),
(74,1426,o),
(74,1523,cs),
(74,1550,ls),
(74,1734,o),
(172,1813,o),
(358,1813,cs),
(548,1813,o),
(642,1733,o),
(642,1542,cs),
(642,1436,o),
(627,1364,o),
(566,1344,c),
(564,1344,l),
(637,1316,o),
(643,1230,o),
(643,1105,cs),
(643,1079,ls),
(643,875,o),
(564,759,o),
(358,759,cs)
);
},
{
closed = 1;
nodes = (
(442,1432,o),
(484,1465,o),
(484,1531,cs),
(484,1575,o),
(457,1623,o),
(358,1623,c),
(167,1623,l),
(167,1617,l),
(232,1573,l),
(232,1531,l),
(232,1465,o),
(275,1432,o),
(358,1432,cs)
);
},
{
closed = 1;
nodes = (
(443,964,o),
(486,998,o),
(486,1066,cs),
(486,1133,ls),
(486,1193,o),
(456,1245,o),
(358,1245,c),
(169,1245,l),
(169,1238,l),
(233,1189,l),
(233,1131,l),
(233,1066,ls),
(233,998,o),
(275,964,o),
(358,964,cs)
);
}
);
width = 715;
}
);
unicode = 8312;
},
{
glyphname = ellipsis;
layers = (
{
layerId = "F0BF49F4-A9AA-409A-9DDE-053E9F81ED51";
shapes = (
{
closed = 1;
nodes = (
(72,1,l),
(72,299,l),
(419,299,l),
(419,1,l)
);
},
{
closed = 1;
nodes = (
(694,1,l),
(694,299,l),
(1041,299,l),
(1041,1,l)
);
},
{
closed = 1;
nodes = (
(1316,1,l),
(1316,299,l),
(1663,299,l),
(1663,1,l)
);
}
);
width = 1735;
}
);
unicode = 8230;
},
{
glyphname = emdash;
layers = (
{
layerId = "F0BF49F4-A9AA-409A-9DDE-053E9F81ED51";
shapes = (
{
closed = 1;
nodes = (
(72.183,509,l),
(72.183,741,l),
(1272.825,741,l),
(1272.825,509,l)
);
}
);
width = 1345;
}
);
unicode = 8212;
},
{
glyphname = emptyset;
layers = (
{
layerId = "F0BF49F4-A9AA-409A-9DDE-053E9F81ED51";
shapes = (
{
closed = 1;
nodes = (
(701,205,o),
(557,257,o),
(438,342,c),
(298,205,l),
(211,300,l),
(346,426,l),
(349,426,l),
(248,533,o),
(188,685,o),
(188,862,cs),
(188,1235,o),
(475,1519,o),
(852,1519,cs),
(1017,1519,o),
(1172,1460,o),
(1294,1360,c),
(1431,1500,l),
(1534,1413,l),
(1382,1272,l),
(1379,1272,l),
(1465,1169,o),
(1517,1027,o),
(1517,862,cs),
(1517,489,o),
(1230,205,o),
(852,205,cs)
);
},
{
closed = 1;
nodes = (
(1207,1269,l),
(1118,1349,o),
(990,1395,o),
(836,1390,cs),
(587,1382,o),
(297,1202,o),
(308,845,cs),
(312,727,o),
(357,614,o),
(432,518,c)
);
},
{
closed = 1;
nodes = (
(1119,342,o),
(1409,522,o),
(1397,879,cs),
(1394,984,o),
(1360,1084,o),
(1294,1178,c),
(524,433,l),
(527,433,l),
(612,367,o),
(729,330,o),
(868,334,cs)
);
}
);
width = 1722;
}
);
unicode = 8709;
},
{
glyphname = endash;
layers = (
{
layerId = "F0BF49F4-A9AA-409A-9DDE-053E9F81ED51";
shapes = (
{
closed = 1;
nodes = (
(72.183,509,l),
(72.183,741,l),
(619.311,741,l),
(619.311,509,l)
);
}
);
width = 692;
}
);
unicode = 8211;
},
{
glyphname = eng;
layers = (
{
layerId = "F0BF49F4-A9AA-409A-9DDE-053E9F81ED51";
shapes = (
{
closed = 1;
nodes = (
(541,-196,l),
(675,-196,o),
(741,-111,o),
(741,0,cs),
(741,1074,ls),
(741,1133,o),
(698,1193,o),
(583,1193,c),
(215,1193,l),
(215,1175,l),
(412,1061,l),
(412,0,l),
(72,0,l),
(72,1516,l),
(755,1516,l),
(979,1516,o),
(1074,1380,o),
(1074,1157,cs),
(1074,0,l),
(1074,-305,o),
(822,-493,o),
(541,-493,c)
);
}
);
width = 1146;
}
);
unicode = 331;
},
{
glyphname = equal;
layers = (
{
layerId = "F0BF49F4-A9AA-409A-9DDE-053E9F81ED51";
shapes = (
{
closed = 1;
nodes = (
(72.449,892,l),
(72.449,1116,l),
(617.044,1116,l),
(617.044,892,l)
);
},
{
closed = 1;
nodes = (
(72.449,509,l),
(72.449,741,l),
(617.044,741,l),
(617.044,509,l)
);
}
);
width = 690;
}
);
unicode = 61;
},
{
glyphname = uni0283;
layers = (
{
layerId = "F0BF49F4-A9AA-409A-9DDE-053E9F81ED51";
shapes = (
{
closed = 1;
nodes = (
(194,-266,o),
(126,-266,o),
(49,-266,c),
(49,48,l),
(407,48,l),
(407,76,l),
(198,162,l),
(198,1365,ls),
(198,1528,o),
(278,1674,o),
(451,1674,cs),
(545,1674,o),
(613,1674,o),
(690,1674,c),
(690,1365,l),
(670,1363,o),
(670,1362,o),
(655,1362,cs),
(545,1362,o),
(532,1332,o),
(532,1281,cs),
(532,45,ls),
(532,-115,o),
(457,-266,o),
(288,-266,cs)
);
}
);
width = 750;
}
);
unicode = 643;
},
{
glyphname = estimated;
layers = (
{
layerId = "F0BF49F4-A9AA-409A-9DDE-053E9F81ED51";
shapes = (
{
closed = 1;
nodes = (
(242,-16,o),
(72,157,o),
(72,489,cs),
(72,1092,ls),
(72,1375,o),
(244,1516,o),
(589,1516,cs),
(918,1516,o),
(1083,1375,o),
(1083,1092,cs),
(1083,738,l),
(369,738,l),
(369,237,ls),
(369,126,o),
(439,70,o),
(581,70,cs),
(746,70,o),
(827,128,o),
(827,245,cs),
(827,579,l),
(1083,579,l),
(1083,494,ls),
(1083,137,o),
(927,-16,o),
(566,-16,cs)
);
},
{
closed = 1;
nodes = (
(206,835,l),
(827,835,l),
(827,1277,ls),
(827,1385,o),
(746,1439,o),
(584,1439,cs),
(438,1439,o),
(366,1385,o),
(366,1277,cs),
(366,970,l),
(206,855,l)
);
}
);
width = 1155;
}
);
unicode = 8494;
},
{
glyphname = eth;
layers = (
{
layerId = "F0BF49F4-A9AA-409A-9DDE-053E9F81ED51";
shapes = (
{
closed = 1;
nodes = (
(203,-16,o),
(72,207,o),
(72,589,cs),
(72,936,o),
(213,1102,o),
(541,1102,cs),
(621,1102,o),
(732,1067,o),
(774,931,c),
(799,931,l),
(799,1075,o),
(732,1171,o),
(634,1259,c),
(628,1259,l),
(369,1132,l),
(301,1279,l),
(489,1369,l),
(489,1372,l),
(356,1464,o),
(228,1519,o),
(109,1540,c),
(229,1770,l),
(377,1759,o),
(552,1684,o),
(750,1545,c),
(755,1545,l),
(998,1668,l),
(1066,1521,l),
(880,1438,l),
(880,1432,l),
(1054,1244,o),
(1150,1055,o),
(1150,799,cs),
(1150,538,ls),
(1150,161,o),
(1019,-16,o),
(596,-16,cs)
);
},
{
closed = 1;
nodes = (
(719,279,o),
(799,326,o),
(799,420,cs),
(799,701,ls),
(799,791,o),
(719,836,o),
(614,836,cs),
(510,836,o),
(447,784,o),
(447,680,cs),
(447,482,ls),
(447,334,o),
(510,279,o),
(622,279,cs)
);
}
);
width = 1222;
}
);
unicode = 240;
},
{
glyphname = Euro;
layers = (
{
layerId = "F0BF49F4-A9AA-409A-9DDE-053E9F81ED51";
shapes = (
{
closed = 1;
nodes = (
(573,-16,o),
(442,30,o),
(339,121,cs),
(245,203,o),
(199,325,o),
(199,484,cs),
(199,490,l),
(459,552,l),
(459,571,l),
(72,571,l),
(72,753,l),
(199,753,l),
(199,804,l),
(72,804,l),
(72,988,l),
(199,988,l),
(199,1078,ls),
(199,1399,o),
(375,1576,o),
(736,1576,cs),
(1077,1576,o),
(1235,1396,o),
(1235,1092,c),
(899,1092,l),
(899,1120,ls),
(899,1246,o),
(863,1271,o),
(736,1271,cs),
(608,1271,o),
(572,1247,o),
(572,1120,cs),
(572,1084,l),
(349,1005,l),
(349,988,l),
(971,988,l),
(971,804,l),
(572,804,l),
(572,753,l),
(971,753,l),
(971,571,l),
(572,571,l),
(572,449,ls),
(572,388,o),
(635,332,o),
(736,332,cs),
(838,332,o),
(899,388,o),
(899,449,cs),
(899,474,l),
(1235,474,l),
(1235,189,o),
(1060,-16,o),
(736,-16,cs)
);
}
);
width = 1307;
}
);
unicode = 8364;
},
{
glyphname = exclam;
layers = (
{
layerId = "F0BF49F4-A9AA-409A-9DDE-053E9F81ED51";
shapes = (
{
closed = 1;
nodes = (
(161.505,479,l),
(72.85,1760,l),
(419.871,1760,l),
(331.216,479,l)
);
},
{
closed = 1;
nodes = (
(72.85,1,l),
(72.85,299,l),
(419.871,299,l),
(419.871,1,l)
);
}
);
width = 492;
}
);
unicode = 33;
},
{
glyphname = exclamdown;
layers = (
{
layerId = "F0BF49F4-A9AA-409A-9DDE-053E9F81ED51";
shapes = (
{
closed = 1;
nodes = (
(72,1353,l),
(72,1651,l),
(419,1651,l),
(419,1353,l)
);
},
{
closed = 1;
nodes = (
(72,-108,l),
(161,1173,l),
(330,1173,l),
(419,-108,l)
);
}
);
width = 491;
}
);
unicode = 161;
},
{
glyphname = f;
layers = (
{
anchors = (
{
name = t.acutecomb;
position = "{467, 1760}";
}
);
layerId = "F0BF49F4-A9AA-409A-9DDE-053E9F81ED51";
shapes = (
{
closed = 1;
nodes = (
(249.975,0,l),
(249.975,1159,l),
(72.665,1159,l),
(72.665,1434,l),
(249.975,1434,l),
(249.975,1580,ls),
(249.975,1741,o),
(332.297,1822,o),
(499.475,1822,c),
(770.506,1822,l),
(770.506,1539,l),
(642.59,1539,l),
(577.998,1540,o),
(576.732,1525,o),
(576.732,1453,cs),
(576.732,1434,l),
(770.506,1434,l),
(770.506,1159,l),
(391.823,1159,l),
(391.823,1147,l),
(585.597,1052,l),
(585.597,0,l)
);
}
);
width = 843;
}
);
unicode = 102;
},
{
glyphname = f_f;
layers = (
{
anchors = (
{
name = t.acutecomb_2_ligComponent_1;
position = "{467, 1760}";
},
{
name = t.acutecomb_2_ligComponent_2;
position = "{1194, 1760}";
},
{
name = t.acutecomb;
position = "{467, 1760}";
}
);
layerId = "F0BF49F4-A9AA-409A-9DDE-053E9F81ED51";
shapes = (
{
closed = 1;
nodes = (
(249.975,0,l),
(249.975,1159,l),
(72.665,1159,l),
(72.665,1434,l),
(249.975,1434,l),
(249.975,1580,ls),
(249.975,1741,o),
(332.297,1822,o),
(499.475,1822,cs),
(770.506,1822,l),
(770.506,1539,l),
(642.59,1539,l),
(577.998,1540,o),
(576.732,1525,o),
(576.732,1453,cs),
(576.732,1434,l),
(770.506,1434,l),
(770.506,1159,l),
(391.823,1159,l),
(391.823,1147,l),
(585.597,1052,l),
(585.597,0,l)
);
},
{
closed = 1;
nodes = (
(887.024,0,l),
(887.024,1159,l),
(709.714,1159,l),
(709.714,1434,l),
(887.024,1434,l),
(887.024,1580,ls),
(887.024,1741,o),
(969.347,1822,o),
(1136.525,1822,cs),
(1407.556,1822,l),
(1407.556,1539,l),
(1279.639,1539,l),
(1215.048,1540,o),
(1213.781,1525,o),
(1213.781,1453,cs),
(1213.781,1434,l),
(1407.556,1434,l),
(1407.556,1159,l),
(1028.872,1159,l),
(1028.872,1147,l),
(1222.647,1052,l),
(1222.647,0,l)
);
}
);
width = 1480;
}
);
},
{
glyphname = f_f_i;
layers = (
{
anchors = (
{
name = t.acutecomb_2_ligComponent_1;
position = "{467, 1760}";
},
{
name = t.acutecomb_2_ligComponent_2;
position = "{1194, 1760}";
},
{
name = t.acutecomb;
position = "{467, 1760}";
},
{
name = m.uni0328_3;
position = "{1761, 0}";
},
{
name = m.uni032E;
position = "{1646, 0}";
}
);
layerId = "F0BF49F4-A9AA-409A-9DDE-053E9F81ED51";
shapes = (
{
closed = 1;
nodes = (
(249.975,0,l),
(249.975,1159,l),
(72.665,1159,l),
(72.665,1434,l),
(249.975,1434,l),
(249.975,1580,ls),
(249.975,1741,o),
(332.297,1822,o),
(499.475,1822,cs),
(770.506,1822,l),
(770.506,1539,l),
(642.59,1539,l),
(577.998,1540,o),
(576.732,1525,o),
(576.732,1453,cs),
(576.732,1434,l),
(770.506,1434,l),
(770.506,1159,l),
(391.823,1159,l),
(391.823,1147,l),
(585.597,1052,l),
(585.597,0,l)
);
},
{
closed = 1;
nodes = (
(870.56,0,l),
(870.56,1159,l),
(693.25,1159,l),
(693.25,1434,l),
(870.56,1434,l),
(870.56,1580,ls),
(870.56,1741,o),
(952.882,1822,o),
(1120.06,1822,cs),
(1391.091,1822,l),
(1391.091,1539,l),
(1263.175,1539,l),
(1198.583,1540,o),
(1197.317,1525,o),
(1197.317,1453,cs),
(1197.317,1434,l),
(1475.947,1434,l),
(1475.947,1159,l),
(1012.408,1159,l),
(1012.408,1147,l),
(1206.182,1052,l),
(1206.182,0,l)
);
},
{
closed = 1;
nodes = (
(1475.947,1524,l),
(1475.947,1822,l),
(1815.369,1822,l),
(1815.369,1524,l)
);
},
{
closed = 1;
nodes = (
(1475.947,0,l),
(1475.947,1052,l),
(1669.721,1147,l),
(1669.721,1159,l),
(1475.947,1159,l),
(1475.947,1434,l),
(1814.102,1434,l),
(1814.102,0,l)
);
}
);
width = 1888;
}
);
},
{
glyphname = f_f_l;
layers = (
{
anchors = (
{
name = t.acutecomb_2_ligComponent_1;
position = "{367, 1760}";
},
{
name = t.acutecomb_2_ligComponent_2;
position = "{1094, 1760}";
},
{
name = t.acutecomb_2_ligComponent_3;
position = "{1736, 1760}";
}
);
layerId = "F0BF49F4-A9AA-409A-9DDE-053E9F81ED51";
shapes = (
{
closed = 1;
nodes = (
(249,0,l),
(249,1159,l),
(72,1159,l),
(72,1434,l),
(249,1434,l),
(249,1580,ls),
(249,1741,o),
(331,1822,o),
(498,1822,cs),
(770,1822,l),
(770,1539,l),
(642,1539,l),
(577,1540,o),
(576,1525,o),
(576,1453,cs),
(576,1434,l),
(770,1434,l),
(770,1159,l),
(391,1159,l),
(391,1147,l),
(585,1052,l),
(585,0,l)
);
},
{
closed = 1;
nodes = (
(870,0,l),
(870,1159,l),
(692,1159,l),
(692,1434,l),
(870,1434,l),
(870,1580,ls),
(870,1741,o),
(952,1822,o),
(1119,1822,cs),
(1495,1822,l),
(1495,1539,l),
(1262,1539,l),
(1198,1540,o),
(1196,1525,o),
(1196,1453,cs),
(1196,1434,l),
(1398,1434,l),
(1398,1159,l),
(1011,1159,l),
(1011,1147,l),
(1205,1052,l),
(1205,0,l)
);
},
{
closed = 1;
nodes = (
(1495,0,l),
(1495,1822,l),
(1834,1822,l),
(1834,0,l)
);
}
);
width = 1906;
}
);
},
{
glyphname = fi;
layers = (
{
layerId = "F0BF49F4-A9AA-409A-9DDE-053E9F81ED51";
shapes = (
{
closed = 1;
nodes = (
(251,0,l),
(251,1159,l),
(73,1159,l),
(73,1434,l),
(251,1434,l),
(251,1580,ls),
(251,1741,o),
(333,1822,o),
(500,1822,cs),
(771,1822,l),
(771,1539,l),
(643,1539,l),
(579,1540,o),
(577,1525,o),
(577,1453,cs),
(577,1434,l),
(856,1434,l),
(856,1159,l),
(392,1159,l),
(392,1147,l),
(586,1052,l),
(586,0,l)
);
},
{
closed = 1;
nodes = (
(856,1524,l),
(856,1822,l),
(1195,1822,l),
(1195,1524,l)
);
},
{
closed = 1;
nodes = (
(856,0,l),
(856,1052,l),
(1051,1147,l),
(1051,1159,l),
(856,1159,l),
(856,1433,l),
(1195,1433,l),
(1195,0,l)
);
}
);
width = 1268;
}
);
unicode = 64257;
},
{
glyphname = figuredash;
layers = (
{
layerId = "F0BF49F4-A9AA-409A-9DDE-053E9F81ED51";
shapes = (
{
closed = 1;
nodes = (
(72,509,l),
(72,741,l),
(1096,741,l),
(1096,509,l)
);
}
);
width = 1168;
}
);
unicode = 8210;
},
{
glyphname = uni02C9;
layers = (
{
layerId = "F0BF49F4-A9AA-409A-9DDE-053E9F81ED51";
shapes = (
{
closed = 1;
nodes = (
(72,1585,l),
(72,1738,l),
(788,1738,l),
(788,1585,l)
);
}
);
width = 860;
}
);
unicode = 713;
},
{
glyphname = five;
layers = (
{
layerId = "F0BF49F4-A9AA-409A-9DDE-053E9F81ED51";
shapes = (
{
closed = 1;
nodes = (
(329,-25,o),
(72,72,o),
(72,384,cs),
(72,646,l),
(430,646,l),
(430,495,ls),
(430,401,o),
(442,304,o),
(602,304,cs),
(742,304,o),
(773,361,o),
(773,441,cs),
(773,787,ls),
(773,872,o),
(760,970,o),
(604,970,cs),
(484,970,o),
(425,922,o),
(425,825,c),
(122,825,l),
(122,1761,l),
(1078,1761,l),
(1078,1431,l),
(260,1431,l),
(260,1409,l),
(438,1356,l),
(438,1183,l),
(454,1183,l),
(499,1226,o),
(642,1264,o),
(713,1264,cs),
(1074,1264,o),
(1145,998,o),
(1145,668,cs),
(1145,245,o),
(1076,-25,o),
(602,-25,cs)
);
}
);
width = 1217;
}
);
unicode = 53;
},
{
glyphname = five.dnom;
layers = (
{
layerId = "F0BF49F4-A9AA-409A-9DDE-053E9F81ED51";
shapes = (
{
closed = 1;
nodes = (
(189,-10,o),
(72,68,o),
(72,231,cs),
(72,385,l),
(231,385,l),
(231,296,ls),
(231,240,o),
(239,184,o),
(358,184,cs),
(460,184,o),
(484,235,o),
(484,282,cs),
(484,450,ls),
(484,545,o),
(455,575,o),
(360,575,cs),
(272,575,o),
(228,547,o),
(228,490,c),
(101,490,l),
(101,1034,l),
(612,1034,l),
(612,839,l),
(155,839,l),
(155,830,l),
(236,790,l),
(236,701,l),
(253,701,l),
(285,729,o),
(332,748,o),
(423,748,cs),
(617,748,o),
(652,592,o),
(652,398,cs),
(652,163,o),
(627,-10,o),
(358,-10,cs)
);
}
);
width = 724;
}
);
},
{
glyphname = five.numr;
layers = (
{
layerId = "F0BF49F4-A9AA-409A-9DDE-053E9F81ED51";
shapes = (
{
closed = 1;
nodes = (
(188.769,716,o),
(72.251,794,o),
(72.251,957,cs),
(72.251,1111,l),
(230.564,1111,l),
(230.564,1022,ls),
(230.564,966,o),
(239.429,910,o),
(358.48,910,cs),
(459.8,910,o),
(483.864,943,o),
(483.864,990,cs),
(483.864,1194,ls),
(483.864,1274,o),
(472.465,1301,o),
(359.747,1301,cs),
(272.358,1301,o),
(228.031,1273,o),
(228.031,1216,c),
(101.381,1216,l),
(101.381,1760,l),
(611.78,1760,l),
(611.78,1565,l),
(145.708,1565,l),
(145.708,1559,l),
(235.63,1509,l),
(235.63,1427,l),
(247.028,1427,l),
(283.757,1459,o),
(343.282,1474,o),
(423.072,1474,cs),
(616.846,1474,o),
(652.308,1318,o),
(652.308,1124,cs),
(652.308,951,o),
(633.311,822,o),
(549.722,766,cs),
(500.328,733,o),
(435.737,716,o),
(358.48,716,cs)
);
}
);
width = 725;
}
);
},
{
glyphname = uni2085;
layers = (
{
layerId = "F0BF49F4-A9AA-409A-9DDE-053E9F81ED51";
shapes = (
{
closed = 1;
nodes = (
(189,-10,o),
(72,68,o),
(72,231,cs),
(72,385,l),
(231,385,l),
(231,296,ls),
(231,240,o),
(239,184,o),
(358,184,cs),
(460,184,o),
(484,235,o),
(484,282,cs),
(484,450,ls),
(484,545,o),
(455,575,o),
(360,575,cs),
(272,575,o),
(228,547,o),
(228,490,c),
(101,490,l),
(101,1034,l),
(612,1034,l),
(612,839,l),
(155,839,l),
(155,830,l),
(236,790,l),
(236,701,l),
(253,701,l),
(285,729,o),
(332,748,o),
(423,748,cs),
(617,748,o),
(652,592,o),
(652,398,cs),
(652,163,o),
(627,-10,o),
(358,-10,cs)
);
}
);
width = 724;
}
);
unicode = 8325;
},
{
glyphname = uni2075;
layers = (
{
layerId = "F0BF49F4-A9AA-409A-9DDE-053E9F81ED51";
shapes = (
{
closed = 1;
nodes = (
(189,768,o),
(72,846,o),
(72,1009,cs),
(72,1163,l),
(231,1163,l),
(231,1074,ls),
(231,1018,o),
(239,962,o),
(358,962,cs),
(460,962,o),
(484,1013,o),
(484,1060,cs),
(484,1228,ls),
(484,1323,o),
(455,1353,o),
(360,1353,cs),
(272,1353,o),
(228,1325,o),
(228,1268,c),
(101,1268,l),
(101,1812,l),
(612,1812,l),
(612,1617,l),
(155,1617,l),
(155,1608,l),
(236,1568,l),
(236,1479,l),
(253,1479,l),
(285,1507,o),
(332,1526,o),
(423,1526,cs),
(617,1526,o),
(652,1370,o),
(652,1176,cs),
(652,941,o),
(627,768,o),
(358,768,cs)
);
}
);
width = 724;
}
);
unicode = 8309;
},
{
glyphname = fl;
layers = (
{
anchors = (
{
name = t.acutecomb_2_ligComponent_1;
position = "{454, 1760}";
},
{
name = t.acutecomb_2_ligComponent_2;
position = "{1096, 1760}";
}
);
layerId = "F0BF49F4-A9AA-409A-9DDE-053E9F81ED51";
shapes = (
{
closed = 1;
nodes = (
(250,0,l),
(250,1159,l),
(72,1159,l),
(72,1434,l),
(250,1434,l),
(250,1580,ls),
(250,1741,o),
(332,1822,o),
(499,1822,cs),
(875,1822,l),
(875,1539,l),
(642,1539,l),
(578,1540,o),
(576,1525,o),
(576,1453,cs),
(576,1434,l),
(778,1434,l),
(778,1159,l),
(391,1159,l),
(391,1147,l),
(585,1052,l),
(585,0,l)
);
},
{
closed = 1;
nodes = (
(875,0,l),
(875,1822,l),
(1214,1822,l),
(1214,0,l)
);
}
);
width = 1286;
}
);
unicode = 64258;
},
{
glyphname = florin;
layers = (
{
layerId = "F0BF49F4-A9AA-409A-9DDE-053E9F81ED51";
shapes = (
{
closed = 1;
nodes = (
(586,83,ls),
(586,-78,o),
(504,-159,o),
(337,-159,cs),
(65,-159,l),
(65,124,l),
(184,124,l),
(240,124,o),
(250,138,o),
(250,210,cs),
(250,944,l),
(73,944,l),
(73,1219,l),
(250,1219,l),
(250,1365,ls),
(250,1526,o),
(332,1607,o),
(499,1607,cs),
(771,1607,l),
(771,1324,l),
(643,1324,l),
(578,1325,o),
(577,1310,o),
(577,1238,cs),
(577,1219,l),
(771,1219,l),
(771,944,l),
(392,944,l),
(392,932,l),
(586,837,l)
);
}
);
width = 738;
}
);
unicode = 402;
},
{
glyphname = four;
layers = (
{
layerId = "F0BF49F4-A9AA-409A-9DDE-053E9F81ED51";
shapes = (
{
closed = 1;
nodes = (
(733,-1,l),
(733,278,l),
(72,278,l),
(72,639,l),
(492,1761,l),
(1081,1761,l),
(1081,639,l),
(1200,639,l),
(1200,278,l),
(929,278,l),
(929,262,l),
(1081,197,l),
(1081,-1,l)
);
},
{
closed = 1;
nodes = (
(401,639,l),
(885,639,l),
(885,659,l),
(733,723,l),
(733,1373,l),
(702,1373,l)
);
}
);
width = 1272;
}
);
unicode = 52;
},
{
glyphname = four.dnom;
layers = (
{
layerId = "F0BF49F4-A9AA-409A-9DDE-053E9F81ED51";
shapes = (
{
closed = 1;
nodes = (
(446.407,0,l),
(446.407,169,l),
(72.789,169,l),
(72.789,337,l),
(318.49,1034,l),
(614.851,1034,l),
(614.851,342,l),
(711.105,342,l),
(711.105,169,l),
(527.463,169,l),
(527.463,162,l),
(614.851,99,l),
(614.851,0,l)
);
},
{
closed = 1;
nodes = (
(256.432,342,l),
(533.795,342,l),
(533.795,350,l),
(446.407,406,l),
(446.407,857,l),
(431.209,857,l)
);
}
);
width = 784;
}
);
},
{
glyphname = four.numr;
layers = (
{
layerId = "F0BF49F4-A9AA-409A-9DDE-053E9F81ED51";
shapes = (
{
closed = 1;
nodes = (
(445,726,l),
(445,895,l),
(72,895,l),
(72,1063,l),
(317,1760,l),
(614,1760,l),
(614,1068,l),
(710,1068,l),
(710,895,l),
(526,895,l),
(526,888,l),
(614,825,l),
(614,726,l)
);
},
{
closed = 1;
nodes = (
(255,1068,l),
(533,1068,l),
(533,1076,l),
(445,1132,l),
(445,1583,l),
(430,1583,l)
);
}
);
width = 782;
}
);
},
{
glyphname = uni2084;
layers = (
{
layerId = "F0BF49F4-A9AA-409A-9DDE-053E9F81ED51";
shapes = (
{
closed = 1;
nodes = (
(445,-67,l),
(445,102,l),
(72,102,l),
(72,270,l),
(317,967,l),
(614,967,l),
(614,275,l),
(715,275,l),
(715,102,l),
(526,102,l),
(526,95,l),
(614,32,l),
(614,-67,l)
);
},
{
closed = 1;
nodes = (
(255,275,l),
(533,275,l),
(533,283,l),
(445,339,l),
(445,790,l),
(430,790,l)
);
}
);
width = 787;
}
);
unicode = 8324;
},
{
glyphname = uni2074;
layers = (
{
layerId = "F0BF49F4-A9AA-409A-9DDE-053E9F81ED51";
shapes = (
{
closed = 1;
nodes = (
(445,749,l),
(445,918,l),
(72,918,l),
(72,1086,l),
(317,1783,l),
(614,1783,l),
(614,1091,l),
(715,1091,l),
(715,918,l),
(526,918,l),
(526,911,l),
(614,848,l),
(614,749,l)
);
},
{
closed = 1;
nodes = (
(255,1091,l),
(533,1091,l),
(533,1099,l),
(445,1155,l),
(445,1606,l),
(430,1606,l)
);
}
);
width = 787;
}
);
unicode = 8308;
},
{
glyphname = fraction;
layers = (
{
layerId = "F0BF49F4-A9AA-409A-9DDE-053E9F81ED51";
shapes = (
{
closed = 1;
nodes = (
(72.36,-16,l),
(848.724,1776,l),
(1064.029,1776,l),
(310.462,-16,l)
);
}
);
width = 1137;
}
);
unicode = 8260;
},
{
glyphname = franc;
layers = (
{
layerId = "F0BF49F4-A9AA-409A-9DDE-053E9F81ED51";
shapes = (
{
closed = 1;
nodes = (
(198,0,l),
(198,325,l),
(72,325,l),
(72,505,l),
(198,505,l),
(198,1592,l),
(899,1592,l),
(899,1282,l),
(324,1282,l),
(324,1264,l),
(499,1191,l),
(499,1028,l),
(878,1028,l),
(878,722,l),
(324,722,l),
(324,704,l),
(499,635,l),
(499,505,l),
(753,505,l),
(753,325,l),
(499,325,l),
(499,0,l)
);
}
);
width = 971;
}
);
unicode = 8355;
},
{
glyphname = g;
layers = (
{
anchors = (
{
name = t.acutecomb;
position = "{571, 1500}";
}
);
layerId = "F0BF49F4-A9AA-409A-9DDE-053E9F81ED51";
shapes = (
{
closed = 1;
nodes = (
(214.762,-321,l),
(214.762,-7,l),
(531.387,-7,l),
(715.029,-7,o),
(741.626,74,o),
(741.626,191,cs),
(741.626,423,l),
(727.694,423,l),
(665.636,240,o),
(554.184,184,o),
(433.866,184,cs),
(202.097,184,o),
(72.914,353,o),
(72.914,567,cs),
(72.914,1106,ls),
(72.914,1348,o),
(142.571,1500,o),
(394.605,1500,c),
(1089.913,1500,l),
(1089.913,214,ls),
(1089.913,-105,o),
(1013.923,-321,o),
(584.58,-321,c)
);
},
{
closed = 1;
nodes = (
(687.166,454,o),
(741.626,505,o),
(741.626,606,cs),
(741.626,1091,l),
(937.933,1186,l),
(937.933,1199,l),
(573.181,1199,l),
(446.531,1199,o),
(417.402,1167,o),
(417.402,1072,cs),
(417.402,606,ls),
(417.402,574,o),
(423.734,540,o),
(436.399,503,cs),
(447.798,470,o),
(495.925,454,o),
(578.247,454,cs)
);
}
);
width = 1162;
}
);
unicode = 103;
},
{
glyphname = germandbls;
layers = (
{
layerId = "F0BF49F4-A9AA-409A-9DDE-053E9F81ED51";
shapes = (
{
closed = 1;
nodes = (
(72,0,l),
(72,1412,ls),
(72,1655,o),
(232,1776,o),
(554,1776,cs),
(814,1776,o),
(1036,1710,o),
(1036,1412,cs),
(1036,1295,ls),
(1036,1149,o),
(994,1047,o),
(886,1020,c),
(891,1020,l),
(1102,979,o),
(1112,692,o),
(1112,559,cs),
(1112,328,o),
(1053,0,o),
(679,0,cs),
(604,0,l),
(604,281,l),
(725,281,o),
(786,320,o),
(786,399,cs),
(786,731,ls),
(786,839,o),
(737,878,o),
(599,878,c),
(599,1126,l),
(688,1126,o),
(706,1177,o),
(706,1245,cs),
(706,1453,ls),
(706,1504,o),
(655,1529,o),
(554,1529,c),
(201,1530,l),
(201,1515,l),
(402,1433,l),
(402,0,l)
);
}
);
width = 1184;
}
);
unicode = 223;
},
{
glyphname = grave;
layers = (
{
layerId = "F0BF49F4-A9AA-409A-9DDE-053E9F81ED51";
shapes = (
{
closed = 1;
nodes = (
(567.651,1563,l),
(72.449,1660,l),
(72.449,1895,l),
(567.651,1787,l)
);
}
);
width = 640;
}
);
unicode = 96;
},
{
glyphname = gravecomb;
layers = (
{
anchors = (
{
name = _t.acutecomb;
position = "{321, 1500}";
},
{
name = _t.acutecomb_2;
position = "{321, 1500}";
},
{
name = _t.acutecomb_3;
position = "{321, 1500}";
},
{
name = t.acutecomb_3;
position = "{320, 1994}";
},
{
name = t.acutecomb.case_2;
position = "{321, 1954}";
}
);
layerId = "F0BF49F4-A9AA-409A-9DDE-053E9F81ED51";
shapes = (
{
closed = 1;
nodes = (
(567.967,1563,l),
(72.766,1660,l),
(72.766,1895,l),
(567.967,1787,l)
);
}
);
width = 640;
}
);
unicode = 768;
},
{
glyphname = gravecomb.case;
layers = (
{
anchors = (
{
name = _t.acutecomb.case;
position = "{321, 1500}";
},
{
name = _t.acutecomb.case_2;
position = "{321, 1500}";
},
{
name = t.acutecomb.case_2;
position = "{320, 1864}";
}
);
layerId = "F0BF49F4-A9AA-409A-9DDE-053E9F81ED51";
shapes = (
{
closed = 1;
nodes = (
(567.967,1563,l),
(72.766,1660,l),
(72.766,1895,l),
(567.967,1787,l)
);
}
);
width = 640;
}
);
},
{
glyphname = greater;
layers = (
{
layerId = "F0BF49F4-A9AA-409A-9DDE-053E9F81ED51";
shapes = (
{
closed = 1;
nodes = (
(72,239,l),
(72,570,l),
(479,749,l),
(72,929,l),
(72,1262,l),
(688,971,l),
(688,533,l)
);
}
);
width = 760;
}
);
unicode = 62;
},
{
glyphname = greaterequal;
layers = (
{
layerId = "F0BF49F4-A9AA-409A-9DDE-053E9F81ED51";
shapes = (
{
closed = 1;
nodes = (
(72,331,l),
(72,662,l),
(479,841,l),
(72,1021,l),
(72,1354,l),
(688,1063,l),
(688,625,l)
);
},
{
closed = 1;
nodes = (
(106,0,l),
(106,232,l),
(653,232,l),
(653,0,l)
);
}
);
width = 760;
}
);
unicode = 8805;
},
{
glyphname = guillemotleft;
layers = (
{
layerId = "F0BF49F4-A9AA-409A-9DDE-053E9F81ED51";
shapes = (
{
closed = 1;
nodes = (
(611.849,295,l),
(72.32,533,l),
(72.32,971,l),
(611.849,1197,l),
(611.849,860,l),
(359.815,783,l),
(153.376,758,l),
(153.376,738,l),
(359.815,712,l),
(611.849,629,l)
);
},
{
closed = 1;
nodes = (
(1342.619,295,l),
(803.09,533,l),
(803.09,971,l),
(1342.619,1197,l),
(1342.619,860,l),
(1090.586,783,l),
(884.146,758,l),
(884.146,738,l),
(1090.586,712,l),
(1342.619,629,l)
);
}
);
width = 1416;
}
);
unicode = 171;
},
{
glyphname = guillemotright;
layers = (
{
layerId = "F0BF49F4-A9AA-409A-9DDE-053E9F81ED51";
shapes = (
{
closed = 1;
nodes = (
(72.65,295,l),
(72.65,629,l),
(324.683,712,l),
(531.123,738,l),
(531.123,758,l),
(324.683,783,l),
(72.65,860,l),
(72.65,1197,l),
(612.179,971,l),
(612.179,533,l)
);
},
{
closed = 1;
nodes = (
(803.42,295,l),
(803.42,629,l),
(1055.454,712,l),
(1261.893,738,l),
(1261.893,758,l),
(1055.454,783,l),
(803.42,860,l),
(803.42,1197,l),
(1342.949,971,l),
(1342.949,533,l)
);
}
);
width = 1415;
}
);
unicode = 187;
},
{
glyphname = guilsinglleft;
layers = (
{
layerId = "F0BF49F4-A9AA-409A-9DDE-053E9F81ED51";
shapes = (
{
closed = 1;
nodes = (
(611.849,295,l),
(72.32,533,l),
(72.32,971,l),
(611.849,1197,l),
(611.849,860,l),
(359.815,783,l),
(153.376,758,l),
(153.376,738,l),
(359.815,712,l),
(611.849,629,l)
);
}
);
width = 684;
}
);
unicode = 8249;
},
{
glyphname = guilsinglright;
layers = (
{
layerId = "F0BF49F4-A9AA-409A-9DDE-053E9F81ED51";
shapes = (
{
closed = 1;
nodes = (
(72.65,295,l),
(72.65,629,l),
(324.683,712,l),
(531.123,738,l),
(531.123,758,l),
(324.683,783,l),
(72.65,860,l),
(72.65,1197,l),
(612.179,971,l),
(612.179,533,l)
);
}
);
width = 685;
}
);
unicode = 8250;
},
{
glyphname = h;
layers = (
{
anchors = (
{
name = t.uni0304_2;
position = "{241, 1603}";
},
{
name = t.uni0335_4;
position = "{580, 1000}";
},
{
name = t.acutecomb;
position = "{249, 1760}";
},
{
name = m.uni032E;
position = "{580, 0}";
}
);
layerId = "F0BF49F4-A9AA-409A-9DDE-053E9F81ED51";
shapes = (
{
closed = 1;
nodes = (
(72.18,0,l),
(72.18,1760,l),
(424.267,1760,l),
(424.267,1500,l),
(771.288,1500,l),
(995.459,1500,o),
(1091.713,1375,o),
(1091.713,1155,cs),
(1091.713,0,l),
(747.225,0,l),
(747.225,1087,ls),
(747.225,1152,o),
(696.565,1198,o),
(582.58,1198,c),
(230.493,1198,l),
(230.493,1185,l),
(424.267,1076,l),
(424.267,0,l)
);
}
);
width = 1164;
}
);
unicode = 104;
},
{
glyphname = hbar;
layers = (
{
layerId = "F0BF49F4-A9AA-409A-9DDE-053E9F81ED51";
shapes = (
{
closed = 1;
nodes = (
(72,1556,l),
(72,1709,l),
(781,1709,l),
(781,1556,l)
);
},
{
alignment = -1;
pos = (120,0);
ref = h;
}
);
width = 1354;
}
);
unicode = 295;
},
{
glyphname = hungarumlaut;
layers = (
{
layerId = "F0BF49F4-A9AA-409A-9DDE-053E9F81ED51";
shapes = (
{
closed = 1;
nodes = (
(642.105,1601,l),
(420.468,1601,l),
(664.902,1964,l),
(892.872,1964,l)
);
},
{
closed = 1;
nodes = (
(257.089,1601,l),
(40.518,1601,l),
(278.62,1964,l),
(496.458,1964,l)
);
}
);
width = 1017;
}
);
unicode = 733;
},
{
glyphname = uni030B.case;
layers = (
{
layerId = "F0BF49F4-A9AA-409A-9DDE-053E9F81ED51";
shapes = (
{
closed = 1;
nodes = (
(642,1601,l),
(420,1601,l),
(665,1964,l),
(893,1964,l)
);
},
{
closed = 1;
nodes = (
(257,1601,l),
(41,1601,l),
(279,1964,l),
(496,1964,l)
);
}
);
width = 1017;
}
);
},
{
glyphname = hyphen;
layers = (
{
layerId = "F0BF49F4-A9AA-409A-9DDE-053E9F81ED51";
shapes = (
{
closed = 1;
nodes = (
(72.183,509,l),
(72.183,741,l),
(619.311,741,l),
(619.311,509,l)
);
}
);
width = 692;
}
);
unicode = 45;
},
{
glyphname = i;
layers = (
{
anchors = (
{
name = m.uni0328_3;
position = "{358, 0}";
},
{
name = m.uni032E;
position = "{243, 0}";
}
);
layerId = "F0BF49F4-A9AA-409A-9DDE-053E9F81ED51";
shapes = (
{
closed = 1;
nodes = (
(72.647,1592,l),
(72.647,1890,l),
(412.069,1890,l),
(412.069,1592,l)
);
},
{
closed = 1;
nodes = (
(72.647,0,l),
(72.647,1500,l),
(412.069,1500,l),
(412.069,0,l)
);
}
);
width = 485;
}
);
unicode = 105;
},
{
glyphname = dotlessi;
layers = (
{
anchors = (
{
name = m.uni0328_3;
position = "{267, 0}";
},
{
name = t.acutecomb;
position = "{243, 1500}";
},
{
name = m.uni032E;
position = "{243, 0}";
}
);
layerId = "F0BF49F4-A9AA-409A-9DDE-053E9F81ED51";
shapes = (
{
closed = 1;
nodes = (
(72.515,0,l),
(72.515,1500,l),
(411.937,1500,l),
(411.937,0,l)
);
}
);
width = 484;
}
);
unicode = 305;
},
{
glyphname = infinity;
layers = (
{
layerId = "F0BF49F4-A9AA-409A-9DDE-053E9F81ED51";
shapes = (
{
closed = 1;
nodes = (
(843,388,o),
(767,498,o),
(699,585,c),
(618,687,l),
(613,684,l),
(632,526,l),
(590,471,o),
(534,404,o),
(367,404,cs),
(161,404,o),
(72,564,o),
(72,744,cs),
(72,920,o),
(165,1076,o),
(367,1076,cs),
(517,1076,o),
(583,1006,o),
(694,889,c),
(791,787,l),
(795,794,l),
(749,935,l),
(810,1006,o),
(903,1092,o),
(1021,1092,cs),
(1232,1092,o),
(1326,927,o),
(1326,744,cs),
(1326,559,o),
(1235,388,o),
(1021,388,cs)
);
},
{
closed = 1;
nodes = (
(1097,645,o),
(1136,693,o),
(1136,740,cs),
(1136,787,o),
(1097,835,o),
(1007,835,cs),
(939,835,o),
(887,787,o),
(838,740,c),
(837,740,l),
(881,693,o),
(934,645,o),
(1007,645,cs)
);
},
{
closed = 1;
nodes = (
(464,645,o),
(517,693,o),
(566,740,c),
(567,740,l),
(519,787,o),
(467,834,o),
(394,834,cs),
(304,834,o),
(265,787,o),
(265,740,cs),
(265,693,o),
(304,645,o),
(394,645,cs)
);
}
);
width = 1398;
}
);
unicode = 8734;
},
{
glyphname = integral;
layers = (
{
layerId = "F0BF49F4-A9AA-409A-9DDE-053E9F81ED51";
shapes = (
{
closed = 1;
nodes = (
(194,-116,o),
(126,-116,o),
(49,-116,c),
(49,197,l),
(407,197,l),
(407,210,l),
(198,319,l),
(198,1365,ls),
(198,1528,o),
(278,1674,o),
(451,1674,cs),
(545,1674,o),
(613,1674,o),
(690,1674,c),
(690,1365,l),
(670,1363,o),
(670,1362,o),
(655,1362,cs),
(545,1362,o),
(532,1332,o),
(532,1281,cs),
(532,195,ls),
(532,35,o),
(457,-116,o),
(288,-116,cs)
);
}
);
width = 739;
}
);
unicode = 8747;
},
{
glyphname = j;
layers = (
{
layerId = "F0BF49F4-A9AA-409A-9DDE-053E9F81ED51";
shapes = (
{
closed = 1;
nodes = (
(81.307,1592,l),
(81.307,1890,l),
(420.729,1890,l),
(420.729,1592,l)
);
},
{
closed = 1;
nodes = (
(-218.853,-371,l),
(-218.853,-69,l),
(286.48,-69,l),
(286.48,-51,l),
(81.307,89,l),
(81.307,1500,l),
(420.729,1500,l),
(420.729,-15,ls),
(420.729,-228,o),
(340.94,-371,o),
(120.569,-371,c)
);
}
);
width = 493;
}
);
unicode = 106;
},
{
glyphname = uni0237;
layers = (
{
anchors = (
{
name = t.acutecomb;
position = "{379, 1500}";
}
);
layerId = "F0BF49F4-A9AA-409A-9DDE-053E9F81ED51";
shapes = (
{
closed = 1;
nodes = (
(-218.371,-371,l),
(-218.371,-69,l),
(243.901,-69,l),
(243.901,-55,l),
(81.789,56,l),
(81.789,1500,l),
(421.211,1500,l),
(421.211,-15,ls),
(421.211,-228,o),
(341.422,-371,o),
(121.051,-371,c)
);
}
);
width = 519;
}
);
unicode = 567;
},
{
glyphname = k;
layers = (
{
anchors = (
{
name = t.acutecomb;
position = "{240, 1760}";
},
{
name = m.uni032E;
position = "{604, 0}";
}
);
layerId = "F0BF49F4-A9AA-409A-9DDE-053E9F81ED51";
shapes = (
{
closed = 1;
nodes = (
(72.18,0,l),
(72.18,1760,l),
(406.536,1760,l),
(406.536,1229,l),
(241.891,724,l),
(267.221,724,l),
(734.56,1500,l),
(1098.045,1500,l),
(699.098,848,l),
(479.993,848,l),
(479.993,834,l),
(785.22,696,l),
(1175.302,0,l),
(800.418,0,l),
(520.521,539,l),
(406.536,354,l),
(406.536,0,l)
);
}
);
width = 1248;
}
);
unicode = 107;
},
{
glyphname = kgreenlandic;
layers = (
{
layerId = "F0BF49F4-A9AA-409A-9DDE-053E9F81ED51";
shapes = (
{
closed = 1;
nodes = (
(72,0,l),
(72,1500,l),
(407,1500,l),
(407,1229,l),
(242,724,l),
(267,724,l),
(735,1500,l),
(1098,1500,l),
(699,848,l),
(521,848,l),
(521,838,l),
(785,696,l),
(1175,0,l),
(800,0,l),
(521,539,l),
(407,354,l),
(407,0,l)
);
}
);
width = 1248;
}
);
unicode = 312;
},
{
glyphname = l;
layers = (
{
anchors = (
{
name = t.uni0304_2;
position = "{775, 988}";
},
{
name = t.acutecomb;
position = "{246, 1760}";
},
{
name = m.uni032E;
position = "{246, 0}";
}
);
layerId = "F0BF49F4-A9AA-409A-9DDE-053E9F81ED51";
shapes = (
{
closed = 1;
nodes = (
(72.18,0,l),
(72.18,1760,l),
(419.201,1760,l),
(419.201,0,l)
);
}
);
width = 492;
}
);
unicode = 108;
},
{
glyphname = arrowleft;
layers = (
{
layerId = "F0BF49F4-A9AA-409A-9DDE-053E9F81ED51";
shapes = (
{
closed = 1;
nodes = (
(493,102,l),
(72,753,l),
(493,1344,l),
(818,1344,l),
(551,993,l),
(335,929,l),
(336,907,l),
(1639,907,l),
(1639,589,l),
(336,589,l),
(335,567,l),
(551,502,l),
(818,102,l)
);
}
);
width = 1711;
}
);
unicode = 8592;
},
{
glyphname = uni25C0;
layers = (
{
layerId = "F0BF49F4-A9AA-409A-9DDE-053E9F81ED51";
shapes = (
{
closed = 1;
nodes = (
(1691,1540,l),
(1691,-101,l),
(252,720,l)
);
}
);
width = 1859;
}
);
unicode = 9664;
},
{
glyphname = uni25C1;
layers = (
{
layerId = "F0BF49F4-A9AA-409A-9DDE-053E9F81ED51";
shapes = (
{
closed = 1;
nodes = (
(1691,1540,l),
(1691,-101,l),
(252,720,l)
);
},
{
closed = 1;
nodes = (
(1550,1322,l),
(493,720,l),
(1550,118,l)
);
}
);
width = 1859;
}
);
unicode = 9665;
},
{
glyphname = uni27E8;
layers = (
{
layerId = "F0BF49F4-A9AA-409A-9DDE-053E9F81ED51";
shapes = (
{
closed = 1;
nodes = (
(488,-102,l),
(72,879,l),
(488,1860,l),
(767,1860,l),
(394,978,l),
(184,892,l),
(184,871,l),
(394,780,l),
(767,-102,l)
);
}
);
width = 839;
}
);
unicode = 10216;
},
{
glyphname = less;
layers = (
{
layerId = "F0BF49F4-A9AA-409A-9DDE-053E9F81ED51";
shapes = (
{
closed = 1;
nodes = (
(687,239,l),
(72,533,l),
(72,971,l),
(687,1262,l),
(687,929,l),
(281,749,l),
(687,570,l)
);
}
);
width = 759;
}
);
unicode = 60;
},
{
glyphname = lessequal;
layers = (
{
layerId = "F0BF49F4-A9AA-409A-9DDE-053E9F81ED51";
shapes = (
{
closed = 1;
nodes = (
(687,331,l),
(72,625,l),
(72,1063,l),
(687,1354,l),
(687,1021,l),
(281,841,l),
(687,662,l)
);
},
{
closed = 1;
nodes = (
(106,0,l),
(106,232,l),
(653,232,l),
(653,0,l)
);
}
);
width = 759;
}
);
unicode = 8804;
},
{
glyphname = lira;
layers = (
{
layerId = "F0BF49F4-A9AA-409A-9DDE-053E9F81ED51";
shapes = (
{
closed = 1;
nodes = (
(89,0,l),
(89,293,l),
(191,341,o),
(290,394,o),
(306,495,c),
(72,495,l),
(72,675,l),
(306,675,l),
(303,711,o),
(296,753,o),
(287,795,c),
(72,795,l),
(72,975,l),
(245,975,l),
(219,1071,o),
(197,1158,o),
(197,1224,cs),
(197,1489,o),
(374,1608,o),
(672,1608,cs),
(999,1608,o),
(1111,1421,o),
(1111,1125,c),
(814,1125,l),
(814,1264,o),
(781,1312,o),
(680,1312,cs),
(587,1312,o),
(555,1277,o),
(555,1216,cs),
(555,1171,o),
(561,1127,o),
(572,1081,c),
(386,993,l),
(386,975,l),
(962,975,l),
(962,795,l),
(650,795,l),
(652,789,ls),
(661,752,o),
(668,714,o),
(675,675,c),
(962,675,l),
(962,495,l),
(681,495,l),
(677,471,o),
(670,449,o),
(661,429,c),
(346,312,l),
(346,291,l),
(1100,291,l),
(1100,0,l)
);
}
);
width = 1183;
}
);
unicode = 8356;
},
{
glyphname = uni20BA;
layers = (
{
layerId = "F0BF49F4-A9AA-409A-9DDE-053E9F81ED51";
shapes = (
{
closed = 1;
nodes = (
(167,0,l),
(167,517,l),
(298,642,l),
(298,654,l),
(72,593,l),
(72,775,l),
(167,805,l),
(167,939,l),
(72,913,l),
(72,1095,l),
(162,1118,l),
(167,1118,l),
(167,1592,l),
(449,1592,l),
(449,1305,l),
(303,1163,l),
(303,1150,l),
(836,1296,l),
(836,1115,l),
(449,1014,l),
(449,873,l),
(836,976,l),
(836,795,l),
(449,694,l),
(449,364,l),
(289,310,l),
(289,297,l),
(635,297,ls),
(749,297,o),
(804,334,o),
(804,407,cs),
(804,642,l),
(1075,642,l),
(1075,412,ls),
(1075,192,o),
(1000,0,o),
(676,0,cs)
);
}
);
width = 1147;
}
);
unicode = 8378;
},
{
glyphname = logicalnot;
layers = (
{
layerId = "F0BF49F4-A9AA-409A-9DDE-053E9F81ED51";
shapes = (
{
closed = 1;
nodes = (
(601,439,l),
(601,623,l),
(799,714,l),
(799,731,l),
(72,731,l),
(72,979,l),
(889,979,l),
(889,439,l)
);
}
);
width = 961;
}
);
unicode = 172;
},
{
glyphname = uni0332;
layers = (
{
anchors = (
{
name = _m.uni032E;
position = "{432, 0}";
},
{
name = _m.uni032E_2;
position = "{432, 0}";
},
{
name = _b.uni032E;
position = "{432, 0}";
},
{
name = b.uni032E;
position = "{432, -362}";
}
);
layerId = "F0BF49F4-A9AA-409A-9DDE-053E9F81ED51";
shapes = (
{
closed = 1;
nodes = (
(72,-362,l),
(72,-130,l),
(792,-130,l),
(792,-362,l)
);
}
);
width = 864;
}
);
unicode = 818;
},
{
glyphname = lozenge;
layers = (
{
layerId = "F0BF49F4-A9AA-409A-9DDE-053E9F81ED51";
shapes = (
{
closed = 1;
nodes = (
(304,0,l),
(72,713,l),
(304,1436,l),
(822,1436,l),
(1048,713,l),
(822,0,l)
);
},
{
closed = 1;
nodes = (
(503,305,l),
(518,81,l),
(544,81,l),
(743,713,l),
(614,1121,l),
(606,1347,l),
(578,1347,l),
(373,713,l)
);
}
);
width = 1120;
}
);
unicode = 9674;
},
{
glyphname = lslash;
layers = (
{
layerId = "F0BF49F4-A9AA-409A-9DDE-053E9F81ED51";
shapes = (
{
closed = 1;
nodes = (
(72,663,l),
(72,922,l),
(713,1119,l),
(713,860,l)
);
},
{
alignment = -1;
pos = (150,0);
ref = l;
}
);
width = 785;
}
);
unicode = 322;
},
{
glyphname = m;
layers = (
{
anchors = (
{
name = t.acutecomb;
position = "{911, 1500}";
},
{
name = m.uni032E;
position = "{908, 0}";
}
);
layerId = "F0BF49F4-A9AA-409A-9DDE-053E9F81ED51";
shapes = (
{
closed = 1;
nodes = (
(72.18,0,l),
(72.18,1500,l),
(1408.338,1500,l),
(1679.369,1500,o),
(1747.76,1343,o),
(1747.76,1096,cs),
(1747.76,0,l),
(1409.604,0,l),
(1409.604,1051,ls),
(1409.604,1148,o),
(1358.944,1186,o),
(1258.891,1186,c),
(896.672,1186,l),
(896.672,1164,l),
(1079.048,1089,l),
(1079.048,0,l),
(740.892,0,l),
(740.892,1051,ls),
(740.892,1142,o),
(726.961,1186,o),
(595.245,1186,c),
(229.226,1186,l),
(229.226,1166,l),
(411.602,1089,l),
(411.602,0,l)
);
}
);
width = 1820;
}
);
unicode = 109;
},
{
glyphname = macron;
layers = (
{
layerId = "F0BF49F4-A9AA-409A-9DDE-053E9F81ED51";
shapes = (
{
closed = 1;
nodes = (
(72.853,1619,l),
(72.853,1772,l),
(789.692,1772,l),
(789.692,1619,l)
);
}
);
width = 862;
}
);
unicode = 175;
},
{
glyphname = uni0331;
layers = (
{
anchors = (
{
name = _m.uni032E;
position = "{431, 0}";
},
{
name = _m.uni032E_2;
position = "{431, 0}";
},
{
name = _b.uni032E;
position = "{431, 0}";
},
{
name = b.uni032E;
position = "{431, -272}";
}
);
layerId = "F0BF49F4-A9AA-409A-9DDE-053E9F81ED51";
shapes = (
{
closed = 1;
nodes = (
(72.581,-272,l),
(72.581,-119,l),
(789.419,-119,l),
(789.419,-272,l)
);
}
);
width = 862;
}
);
unicode = 817;
},
{
glyphname = uni0331.case;
layers = (
{
anchors = (
{
name = _m.uni032E;
position = "{430, 0}";
},
{
name = _m.uni032E_2;
position = "{430, 0}";
},
{
name = _b.uni032E;
position = "{430, 0}";
},
{
name = b.uni032E;
position = "{430, -393}";
}
);
layerId = "F0BF49F4-A9AA-409A-9DDE-053E9F81ED51";
shapes = (
{
closed = 1;
nodes = (
(72,-393,l),
(72,-240,l),
(788,-240,l),
(788,-393,l)
);
}
);
width = 860;
}
);
},
{
glyphname = uni0304;
layers = (
{
anchors = (
{
name = _t.uni0304_2;
position = "{435, 1710}";
},
{
name = _t.acutecomb.case;
position = "{431, 1560}";
},
{
name = _t.acutecomb;
position = "{431, 1500}";
},
{
name = _t.acutecomb_2;
position = "{431, 1500}";
},
{
name = _t.uni0304_1;
position = "{435, 1710}";
},
{
name = _t.acutecomb_3;
position = "{431, 1500}";
},
{
name = t.acutecomb_3;
position = "{431, 1772}";
},
{
name = _t.acutecomb.case_2;
position = "{431, 1560}";
}
);
layerId = "F0BF49F4-A9AA-409A-9DDE-053E9F81ED51";
shapes = (
{
closed = 1;
nodes = (
(72.581,1619,l),
(72.581,1772,l),
(789.419,1772,l),
(789.419,1619,l)
);
}
);
width = 862;
}
);
unicode = 772;
},
{
glyphname = uni0304.case;
layers = (
{
anchors = (
{
name = _t.uni0304_2;
position = "{435, 1969}";
},
{
name = _t.acutecomb;
position = "{431, 1760}";
},
{
name = _t.acutecomb_2;
position = "{431, 1760}";
},
{
name = _t.uni0304_1;
position = "{435, 1969}";
},
{
name = _t.acutecomb_3;
position = "{431, 1760}";
},
{
name = t.acutecomb_3;
position = "{431, 2028}";
}
);
layerId = "F0BF49F4-A9AA-409A-9DDE-053E9F81ED51";
shapes = (
{
closed = 1;
nodes = (
(72.581,1878,l),
(72.581,2031,l),
(789.419,2031,l),
(789.419,1878,l)
);
}
);
width = 862;
}
);
},
{
glyphname = minus;
layers = (
{
layerId = "F0BF49F4-A9AA-409A-9DDE-053E9F81ED51";
shapes = (
{
closed = 1;
nodes = (
(72.183,509,l),
(72.183,741,l),
(619.311,741,l),
(619.311,509,l)
);
}
);
width = 692;
}
);
unicode = 8722;
},
{
glyphname = multiply;
layers = (
{
layerId = "F0BF49F4-A9AA-409A-9DDE-053E9F81ED51";
shapes = (
{
closed = 1;
nodes = (
(277,344,l),
(141,478,l),
(291,625,l),
(141,772,l),
(277,906,l),
(425,756,l),
(578,906,l),
(715,772,l),
(564,625,l),
(715,478,l),
(578,344,l),
(425,494,l)
);
}
);
width = 856;
}
);
unicode = 215;
},
{
glyphname = n;
layers = (
{
anchors = (
{
name = b.uni0327;
position = "{579, 0}";
},
{
name = t.acutecomb;
position = "{574, 1500}";
},
{
name = m.uni032E;
position = "{572, 0}";
}
);
layerId = "F0BF49F4-A9AA-409A-9DDE-053E9F81ED51";
shapes = (
{
closed = 1;
nodes = (
(72.18,0,l),
(72.18,1500,l),
(754.824,1500,l),
(978.994,1500,o),
(1073.982,1380,o),
(1073.982,1157,cs),
(1073.982,0,l),
(740.892,0,l),
(740.892,1063,ls),
(740.892,1122,o),
(697.831,1182,o),
(582.58,1182,c),
(222.894,1182,l),
(222.894,1163,l),
(411.602,1063,l),
(411.602,0,l)
);
}
);
width = 1146;
}
);
unicode = 110;
},
{
glyphname = nine;
layers = (
{
layerId = "F0BF49F4-A9AA-409A-9DDE-053E9F81ED51";
shapes = (
{
closed = 1;
nodes = (
(335,-16,o),
(107,100,o),
(107,329,cs),
(107,519,l),
(430,519,l),
(430,483,ls),
(430,395,o),
(436,293,o),
(595,293,cs),
(734,293,o),
(781,338,o),
(781,419,cs),
(781,772,l),
(761,772,l),
(718,711,o),
(567,668,o),
(478,668,cs),
(153,668,o),
(72,844,o),
(72,1191,cs),
(72,1542,o),
(203,1776,o),
(600,1776,cs),
(1024,1776,o),
(1148,1589,o),
(1148,1211,cs),
(1148,735,ls),
(1148,248,o),
(1089,-16,o),
(587,-16,cs)
);
},
{
closed = 1;
nodes = (
(724,979,o),
(781,1021,o),
(781,1104,cs),
(781,1322,ls),
(781,1409,o),
(726,1452,o),
(616,1452,c),
(272,1452,l),
(272,1440,l),
(454,1353,l),
(454,1265,l),
(454,1123,ls),
(454,1027,o),
(506,979,o),
(610,979,cs)
);
}
);
width = 1220;
}
);
unicode = 57;
},
{
glyphname = nine.dnom;
layers = (
{
layerId = "F0BF49F4-A9AA-409A-9DDE-053E9F81ED51";
shapes = (
{
closed = 1;
nodes = (
(215,-10,o),
(92,43,o),
(92,193,cs),
(92,305,l),
(231,305,l),
(231,265,ls),
(231,203,o),
(284,172,o),
(354,172,cs),
(457,172,o),
(488,217,o),
(488,265,cs),
(488,454,l),
(467,454,l),
(422,417,o),
(355,392,o),
(286,392,cs),
(140,392,o),
(72,508,o),
(72,700,cs),
(72,852,o),
(115,1044,o),
(357,1044,cs),
(620,1044,o),
(653,884,o),
(653,712,cs),
(653,432,ls),
(653,177,o),
(644,-10,o),
(349,-10,cs)
);
},
{
closed = 1;
nodes = (
(446,575,o),
(488,639,o),
(488,688,cs),
(488,744,ls),
(488,795,o),
(448,854,o),
(367,854,c),
(166,854,l),
(166,846,l),
(245,796,l),
(245,744,l),
(245,688,ls),
(245,631,o),
(284,575,o),
(363,575,cs)
);
}
);
width = 725;
}
);
},
{
glyphname = nine.numr;
layers = (
{
layerId = "F0BF49F4-A9AA-409A-9DDE-053E9F81ED51";
shapes = (
{
closed = 1;
nodes = (
(215,704,o),
(92,757,o),
(92,907,cs),
(92,1019,l),
(231,1019,l),
(231,979,ls),
(231,917,o),
(284,886,o),
(354,886,cs),
(457,886,o),
(488,931,o),
(488,979,cs),
(488,1168,l),
(467,1168,l),
(422,1131,o),
(355,1106,o),
(286,1106,cs),
(140,1106,o),
(72,1222,o),
(72,1414,cs),
(72,1566,o),
(115,1758,o),
(357,1758,cs),
(620,1758,o),
(653,1598,o),
(653,1426,cs),
(653,1146,ls),
(653,891,o),
(644,704,o),
(349,704,cs)
);
},
{
closed = 1;
nodes = (
(446,1289,o),
(488,1353,o),
(488,1402,cs),
(488,1458,ls),
(488,1509,o),
(448,1568,o),
(367,1568,c),
(166,1568,l),
(166,1560,l),
(245,1510,l),
(245,1458,l),
(245,1402,ls),
(245,1345,o),
(284,1289,o),
(363,1289,cs)
);
}
);
width = 725;
}
);
},
{
glyphname = uni2089;
layers = (
{
layerId = "F0BF49F4-A9AA-409A-9DDE-053E9F81ED51";
shapes = (
{
closed = 1;
nodes = (
(215,-86,o),
(92,-33,o),
(92,117,cs),
(92,229,l),
(231,229,l),
(231,189,ls),
(231,127,o),
(284,96,o),
(354,96,cs),
(457,96,o),
(488,141,o),
(488,189,cs),
(488,378,l),
(467,378,l),
(422,341,o),
(355,316,o),
(286,316,cs),
(140,316,o),
(72,432,o),
(72,624,cs),
(72,776,o),
(115,968,o),
(357,968,cs),
(620,968,o),
(653,808,o),
(653,636,cs),
(653,356,ls),
(653,101,o),
(644,-86,o),
(349,-86,cs)
);
},
{
closed = 1;
nodes = (
(446,499,o),
(488,563,o),
(488,612,cs),
(488,668,ls),
(488,719,o),
(448,778,o),
(367,778,c),
(166,778,l),
(166,770,l),
(245,720,l),
(245,668,l),
(245,612,ls),
(245,555,o),
(284,499,o),
(363,499,cs)
);
}
);
width = 725;
}
);
unicode = 8329;
},
{
glyphname = uni2079;
layers = (
{
layerId = "F0BF49F4-A9AA-409A-9DDE-053E9F81ED51";
shapes = (
{
closed = 1;
nodes = (
(215,711,o),
(92,764,o),
(92,914,cs),
(92,1026,l),
(231,1026,l),
(231,986,ls),
(231,924,o),
(284,893,o),
(354,893,cs),
(457,893,o),
(488,938,o),
(488,986,cs),
(488,1175,l),
(467,1175,l),
(422,1138,o),
(355,1113,o),
(286,1113,cs),
(140,1113,o),
(72,1229,o),
(72,1421,cs),
(72,1573,o),
(115,1765,o),
(357,1765,cs),
(620,1765,o),
(653,1605,o),
(653,1433,cs),
(653,1153,ls),
(653,898,o),
(644,711,o),
(349,711,cs)
);
},
{
closed = 1;
nodes = (
(446,1296,o),
(488,1360,o),
(488,1409,cs),
(488,1465,ls),
(488,1516,o),
(448,1575,o),
(367,1575,c),
(166,1575,l),
(166,1567,l),
(245,1517,l),
(245,1465,l),
(245,1409,ls),
(245,1352,o),
(284,1296,o),
(363,1296,cs)
);
}
);
width = 725;
}
);
unicode = 8313;
},
{
glyphname = notequal;
layers = (
{
layerId = "F0BF49F4-A9AA-409A-9DDE-053E9F81ED51";
shapes = (
{
closed = 1;
nodes = (
(72,892,l),
(72,1116,l),
(617,1116,l),
(617,892,l)
);
},
{
closed = 1;
nodes = (
(72,509,l),
(72,741,l),
(617,741,l),
(617,509,l)
);
}
);
width = 689;
}
);
unicode = 8800;
},
{
glyphname = numbersign;
layers = (
{
layerId = "F0BF49F4-A9AA-409A-9DDE-053E9F81ED51";
shapes = (
{
closed = 1;
nodes = (
(72,0,l),
(158,347,l),
(397,492,l),
(397,509,l),
(77,509,l),
(77,741,l),
(255,741,l),
(290,886,l),
(151,886,l),
(151,1118,l),
(347,1118,l),
(465,1593,l),
(797,1593,l),
(715,1261,l),
(497,1130,l),
(497,1118,l),
(829,1118,l),
(947,1593,l),
(1288,1593,l),
(1206,1261,l),
(971,1130,l),
(971,1118,l),
(1288,1118,l),
(1288,886,l),
(1113,886,l),
(1078,741,l),
(1215,741,l),
(1215,509,l),
(1020,509,l),
(894,0,l),
(554,0,l),
(637,335,l),
(884,492,l),
(884,509,l),
(529,509,l),
(403,0,l)
);
},
{
closed = 1;
nodes = (
(587,741,l),
(737,741,l),
(772,886,l),
(622,886,l)
);
}
);
width = 1360;
}
);
unicode = 35;
},
{
glyphname = uni2116;
layers = (
{
layerId = "F0BF49F4-A9AA-409A-9DDE-053E9F81ED51";
shapes = (
{
closed = 1;
nodes = (
(1460,674,o),
(1284,815,o),
(1284,1099,cs),
(1284,1351,ls),
(1284,1630,o),
(1455,1776,o),
(1743,1776,cs),
(2028,1776,o),
(2201,1630,o),
(2201,1351,cs),
(2201,1099,ls),
(2201,819,o),
(2026,674,o),
(1743,674,cs)
);
},
{
closed = 1;
nodes = (
(1857,933,o),
(1902,980,o),
(1902,1045,cs),
(1902,1388,ls),
(1902,1473,o),
(1849,1516,o),
(1743,1516,c),
(1415,1516,l),
(1415,1500,l),
(1583,1401,l),
(1583,1045,ls),
(1583,980,o),
(1629,933,o),
(1743,933,cs)
);
},
{
closed = 1;
nodes = (
(1335,317,l),
(1335,567,l),
(2150,567,l),
(2150,317,l)
);
},
{
closed = 1;
nodes = (
(73,0,l),
(73,1760,l),
(453,1760,l),
(976,376,l),
(998,376,l),
(824,1094,l),
(824,1760,l),
(1180,1760,l),
(1180,0,l),
(820,0,l),
(293,1383,l),
(273,1383,l),
(434,676,l),
(434,0,l)
);
}
);
width = 2273;
}
);
unicode = 8470;
},
{
glyphname = o;
layers = (
{
anchors = (
{
name = t.uni031B_1;
position = "{584, 1255}";
},
{
name = m.uni0328_3;
position = "{866, 100}";
},
{
name = t.acutecomb.case;
position = "{584, 1500}";
},
{
name = t.acutecomb;
position = "{584, 1516}";
},
{
name = m.uni032E;
position = "{584, 0}";
}
);
layerId = "F0BF49F4-A9AA-409A-9DDE-053E9F81ED51";
shapes = (
{
closed = 1;
nodes = (
(242.693,-16,o),
(72.982,139,o),
(72.982,449,cs),
(72.982,1051,ls),
(72.982,1201,o),
(117.31,1314,o),
(208.498,1390,cs),
(308.551,1474,o),
(433.935,1516,o),
(583.382,1516,cs),
(734.095,1516,o),
(859.479,1474,o),
(959.532,1390,cs),
(1050.72,1314,o),
(1095.048,1201,o),
(1095.048,1051,cs),
(1095.048,449,ls),
(1095.048,139,o),
(925.337,-16,o),
(583.382,-16,cs)
);
},
{
closed = 1;
nodes = (
(699.9,260,o),
(746.76,308,o),
(746.76,375,cs),
(746.76,1108,ls),
(746.76,1195,o),
(692.301,1239,o),
(583.382,1239,c),
(235.094,1239,l),
(235.094,1215,l),
(420.003,1129,l),
(420.003,375,ls),
(420.003,308,o),
(466.864,260,o),
(583.382,260,cs)
);
}
);
width = 1168;
}
);
leftKerningGroup = c2;
unicode = 111;
},
{
glyphname = oe;
layers = (
{
layerId = "F0BF49F4-A9AA-409A-9DDE-053E9F81ED51";
shapes = (
{
closed = 1;
nodes = (
(242,-18,o),
(72,138,o),
(72,449,cs),
(72,1051,ls),
(72,1201,o),
(116,1314,o),
(207,1391,cs),
(307,1476,o),
(433,1518,o),
(582,1518,cs),
(687,1518,o),
(822,1486,o),
(928,1422,c),
(916,1422,l),
(1007,1486,o),
(1143,1518,o),
(1259,1518,cs),
(1585,1518,o),
(1749,1376,o),
(1749,1092,cs),
(1749,983,ls),
(1749,848,o),
(1747,755,o),
(1744,704,c),
(879,704,l),
(879,684,l),
(1085,597,l),
(1085,427,ls),
(1085,314,o),
(1123,260,o),
(1253,260,cs),
(1379,260,o),
(1414,342,o),
(1414,443,cs),
(1414,579,l),
(1749,579,l),
(1749,494,ls),
(1749,158,o),
(1625,-18,o),
(1236,-18,cs),
(1133,-18,o),
(1007,11,o),
(915,69,c),
(927,69,l),
(831,11,o),
(697,-18,o),
(582,-18,cs)
);
},
{
closed = 1;
nodes = (
(1082,931,l),
(1412,931,l),
(1412,1087,ls),
(1412,1195,o),
(1357,1249,o),
(1250,1249,cs),
(1119,1249,o),
(1082,1196,o),
(1082,1083,cs)
);
},
{
closed = 1;
nodes = (
(699,260,o),
(746,308,o),
(746,375,cs),
(746,1108,ls),
(746,1195,o),
(691,1239,o),
(582,1239,c),
(216,1241,l),
(216,1220,l),
(419,1108,l),
(419,375,ls),
(419,308,o),
(466,260,o),
(582,260,cs)
);
}
);
width = 1821;
}
);
leftKerningGroup = c2;
rightKerningGroup = e;
unicode = 339;
},
{
glyphname = ogonek;
layers = (
{
layerId = "F0BF49F4-A9AA-409A-9DDE-053E9F81ED51";
shapes = (
{
closed = 1;
nodes = (
(250.163,-631,o),
(72.853,-518,o),
(72.853,-330,cs),
(72.853,-201,o),
(175.439,-91,o),
(380.612,0,c),
(581.986,0,l),
(522.46,-49,o),
(475.6,-92,o),
(441.404,-127,cs),
(390.744,-181,o),
(365.414,-231,o),
(365.414,-279,cs),
(365.414,-354,o),
(431.272,-391,o),
(564.255,-391,cs),
(617.448,-391,o),
(647.844,-390,o),
(657.976,-387,c),
(657.976,-602,l),
(599.717,-621,o),
(533.859,-631,o),
(460.402,-631,cs)
);
}
);
width = 730;
}
);
unicode = 731;
},
{
glyphname = ohungarumlaut;
layers = (
{
anchors = (
{
name = t.uni031B_1;
position = "{583, 1255}";
},
{
name = m.uni0328_3;
position = "{865, 100}";
},
{
name = t.acutecomb.case;
position = "{583, 1500}";
},
{
name = t.acutecomb;
position = "{717, 2159}";
},
{
name = m.uni032E;
position = "{583, 0}";
}
);
layerId = "F0BF49F4-A9AA-409A-9DDE-053E9F81ED51";
shapes = (
{
closed = 1;
nodes = (
(901.853,1617,l),
(680.216,1617,l),
(924.65,1980,l),
(1152.62,1980,l)
);
},
{
closed = 1;
nodes = (
(516.837,1617,l),
(300.266,1617,l),
(538.368,1980,l),
(756.206,1980,l)
);
},
{
alignment = -1;
ref = o;
}
);
width = 1225;
}
);
leftKerningGroup = c2;
unicode = 337;
},
{
glyphname = one;
layers = (
{
layerId = "F0BF49F4-A9AA-409A-9DDE-053E9F81ED51";
shapes = (
{
closed = 1;
nodes = (
(348,0,l),
(348,1075,l),
(540,1336,l),
(540,1357,l),
(72,1146,l),
(72,1551,l),
(714,1762,l),
(714,0,l)
);
}
);
width = 786;
}
);
unicode = 49;
},
{
glyphname = one.dnom;
layers = (
{
layerId = "F0BF49F4-A9AA-409A-9DDE-053E9F81ED51";
shapes = (
{
closed = 1;
nodes = (
(235,0,l),
(235,739,l),
(297,845,l),
(297,858,l),
(72,739,l),
(72,910,l),
(297,1034,l),
(399,1034,l),
(399,0,l)
);
}
);
width = 471;
}
);
},
{
glyphname = one.numr;
layers = (
{
layerId = "F0BF49F4-A9AA-409A-9DDE-053E9F81ED51";
shapes = (
{
closed = 1;
nodes = (
(234.5,727,l),
(234.5,1466,l),
(296.559,1572,l),
(296.559,1585,l),
(72.388,1466,l),
(72.388,1637,l),
(296.559,1761,l),
(399.145,1761,l),
(399.145,727,l)
);
}
);
width = 472;
}
);
},
{
glyphname = uni2081;
layers = (
{
layerId = "F0BF49F4-A9AA-409A-9DDE-053E9F81ED51";
shapes = (
{
closed = 1;
nodes = (
(235,0,l),
(235,739,l),
(297,845,l),
(297,858,l),
(72,739,l),
(72,910,l),
(297,1034,l),
(399,1034,l),
(399,0,l)
);
}
);
width = 471;
}
);
unicode = 8321;
},
{
glyphname = uni00B9;
layers = (
{
layerId = "F0BF49F4-A9AA-409A-9DDE-053E9F81ED51";
shapes = (
{
closed = 1;
nodes = (
(235,764,l),
(235,1503,l),
(297,1609,l),
(297,1622,l),
(72,1503,l),
(72,1674,l),
(297,1798,l),
(399,1798,l),
(399,764,l)
);
}
);
width = 471;
}
);
unicode = 185;
},
{
glyphname = ordfeminine;
layers = (
{
layerId = "F0BF49F4-A9AA-409A-9DDE-053E9F81ED51";
shapes = (
{
closed = 1;
nodes = (
(122,834,o),
(77,1032,o),
(77,1226,cs),
(77,1439,o),
(200,1581,o),
(409,1581,cs),
(549,1581,l),
(579,1581,l),
(579,1698,ls),
(579,1760,o),
(538,1790,o),
(459,1790,cs),
(384,1790,o),
(347,1748,o),
(347,1698,cs),
(347,1647,l),
(98,1647,l),
(98,1651,o),
(98,1659,o),
(98,1669,cs),
(98,1867,o),
(178,1996,o),
(478,1996,cs),
(683,1996,o),
(839,1899,o),
(839,1713,cs),
(839,846,l),
(583,846,l),
(583,1046,l),
(563,1046,l),
(532,909,o),
(447,834,o),
(327,834,cs)
);
},
{
closed = 1;
nodes = (
(551,1060,o),
(578,1105,o),
(578,1149,cs),
(578,1291,l),
(718,1359,l),
(718,1374,l),
(456,1374,l),
(398,1374,o),
(341,1326,o),
(341,1254,cs),
(341,1161,ls),
(341,1093,o),
(381,1060,o),
(462,1060,cs)
);
}
);
width = 918;
}
);
unicode = 170;
},
{
glyphname = ordmasculine;
layers = (
{
layerId = "F0BF49F4-A9AA-409A-9DDE-053E9F81ED51";
shapes = (
{
closed = 1;
nodes = (
(203,779,o),
(72,902,o),
(72,1149,cs),
(72,1627,ls),
(72,1864,o),
(234,1997,o),
(465,1997,cs),
(699,1997,o),
(860,1868,o),
(860,1627,cs),
(860,1149,ls),
(860,908,o),
(731,779,o),
(466,779,cs)
);
},
{
closed = 1;
nodes = (
(560,1000,o),
(607,1030,o),
(607,1091,cs),
(607,1672,ls),
(607,1741,o),
(560,1776,o),
(466,1776,cs),
(372,1776,o),
(324,1741,o),
(324,1672,cs),
(324,1560,l),
(162,1560,l),
(162,1549,l),
(324,1456,l),
(324,1091,ls),
(324,1030,o),
(372,1000,o),
(466,1000,cs)
);
}
);
width = 932;
}
);
unicode = 186;
},
{
glyphname = oslash;
layers = (
{
anchors = (
{
name = t.uni031B_1;
position = "{584, 1255}";
},
{
name = m.uni0328_3;
position = "{866, 100}";
},
{
name = t.acutecomb.case;
position = "{584, 1500}";
},
{
name = t.acutecomb;
position = "{584, 1516}";
},
{
name = m.uni032E;
position = "{584, 0}";
}
);
layerId = "F0BF49F4-A9AA-409A-9DDE-053E9F81ED51";
shapes = (
{
closed = 1;
nodes = (
(223.696,-186,l),
(844.281,1702,l),
(912.672,1702,l),
(292.087,-186,l)
);
},
{
alignment = -1;
ref = o;
}
);
width = 1168;
}
);
leftKerningGroup = c2;
unicode = 248;
},
{
glyphname = p;
layers = (
{
layerId = "F0BF49F4-A9AA-409A-9DDE-053E9F81ED51";
shapes = (
{
closed = 1;
nodes = (
(72.18,-250,l),
(72.18,1500,l),
(804.217,1499,l),
(1048.652,1499,o),
(1086.647,1273,o),
(1086.647,1129,cs),
(1086.647,391,ls),
(1086.647,161,o),
(986.593,-16,o),
(743.425,-16,cs),
(656.037,-16,o),
(492.658,43,o),
(438.199,160,c),
(419.201,160,l),
(419.201,-250,l)
);
},
{
closed = 1;
nodes = (
(686.433,263,o),
(740.892,350,o),
(740.892,457,cs),
(740.892,1016,ls),
(740.892,1164,o),
(707.963,1210,o),
(583.846,1210,c),
(229.226,1211,l),
(229.226,1193,l),
(419.201,1081,l),
(419.201,457,ls),
(419.201,350,o),
(479.993,263,o),
(583.846,263,cs)
);
}
);
width = 1159;
}
);
unicode = 112;
},
{
glyphname = paragraph;
layers = (
{
layerId = "F0BF49F4-A9AA-409A-9DDE-053E9F81ED51";
shapes = (
{
closed = 1;
nodes = (
(512,0,l),
(512,704,l),
(640,780,l),
(640,797,l),
(465,797,l),
(197,797,o),
(72,946,o),
(72,1210,cs),
(72,1459,o),
(240,1593,o),
(512,1593,cs),
(1139,1593,l),
(1139,0,l),
(943,0,l),
(943,1287,l),
(717,1287,l),
(717,0,l)
);
}
);
width = 1211;
}
);
unicode = 182;
},
{
glyphname = parenleft;
layers = (
{
layerId = "F0BF49F4-A9AA-409A-9DDE-053E9F81ED51";
shapes = (
{
closed = 1;
nodes = (
(613,-186,l),
(280,-174,o),
(72,54,o),
(72,391,cs),
(72,1245,ls),
(72,1608,o),
(248,1814,o),
(613,1822,c),
(613,1550,l),
(251,1550,l),
(251,1534,l),
(437,1442,l),
(437,279,ls),
(437,185,o),
(513,127,o),
(613,106,c)
);
}
);
width = 685;
}
);
unicode = 40;
},
{
glyphname = parenleft.case;
layers = (
{
layerId = "F0BF49F4-A9AA-409A-9DDE-053E9F81ED51";
shapes = (
{
closed = 1;
nodes = (
(613,-8,l),
(280,4,o),
(72,233,o),
(72,569,cs),
(72,1192,ls),
(72,1555,o),
(248,1761,o),
(613,1769,c),
(613,1497,l),
(245,1498,l),
(245,1472,l),
(437,1366,l),
(437,457,ls),
(437,363,o),
(513,305,o),
(613,284,c)
);
}
);
width = 685;
}
);
},
{
glyphname = parenright;
layers = (
{
layerId = "F0BF49F4-A9AA-409A-9DDE-053E9F81ED51";
shapes = (
{
closed = 1;
nodes = (
(72,106,l),
(172,127,o),
(248,185,o),
(248,279,cs),
(248,1435,l),
(435,1531,l),
(435,1550,l),
(72,1550,l),
(72,1822,l),
(437,1814,o),
(613,1608,o),
(613,1245,cs),
(613,391,ls),
(613,55,o),
(405,-188,o),
(72,-188,c)
);
}
);
width = 685;
}
);
unicode = 41;
},
{
glyphname = parenright.case;
layers = (
{
layerId = "F0BF49F4-A9AA-409A-9DDE-053E9F81ED51";
shapes = (
{
closed = 1;
nodes = (
(72,284,l),
(172,305,o),
(248,363,o),
(248,457,cs),
(248,1353,l),
(426,1472,l),
(426,1497,l),
(72,1497,l),
(72,1769,l),
(437,1761,o),
(613,1555,o),
(613,1192,cs),
(613,569,ls),
(613,233,o),
(405,4,o),
(72,-8,c)
);
}
);
width = 685;
}
);
},
{
glyphname = percent;
layers = (
{
layerId = "F0BF49F4-A9AA-409A-9DDE-053E9F81ED51";
shapes = (
{
closed = 1;
nodes = (
(683,0,l),
(1367,1767,l),
(1673,1767,l),
(988,0,l)
);
},
{
closed = 1;
nodes = (
(384,528,o),
(275,566,o),
(189,643,cs),
(112,711,o),
(72,813,o),
(72,948,cs),
(72,1311,ls),
(72,1580,o),
(218,1729,o),
(514,1729,cs),
(811,1729,o),
(958,1580,o),
(958,1311,cs),
(958,948,ls),
(958,813,o),
(918,711,o),
(841,643,cs),
(755,566,o),
(646,528,o),
(514,528,cs)
);
},
{
closed = 1;
nodes = (
(611,790,o),
(685,833,o),
(685,889,cs),
(685,1375,ls),
(685,1454,o),
(660,1502,o),
(514,1502,c),
(178,1503,l),
(178,1484,l),
(343,1413,l),
(343,889,ls),
(343,833,o),
(418,790,o),
(514,790,cs)
);
},
{
closed = 1;
nodes = (
(1708,-18,o),
(1599,21,o),
(1513,97,cs),
(1435,166,o),
(1396,267,o),
(1396,402,cs),
(1396,765,ls),
(1396,1034,o),
(1542,1183,o),
(1838,1183,cs),
(2134,1183,o),
(2281,1034,o),
(2281,765,cs),
(2281,402,ls),
(2281,267,o),
(2242,165,o),
(2165,97,cs),
(2079,20,o),
(1970,-18,o),
(1838,-18,cs)
);
},
{
closed = 1;
nodes = (
(1934,244,o),
(2009,287,o),
(2009,343,cs),
(2009,829,ls),
(2009,908,o),
(1984,956,o),
(1838,956,c),
(1502,957,l),
(1502,930,l),
(1667,864,l),
(1667,343,ls),
(1667,287,o),
(1742,244,o),
(1838,244,cs)
);
}
);
width = 2353;
}
);
unicode = 37;
},
{
glyphname = period;
layers = (
{
layerId = "F0BF49F4-A9AA-409A-9DDE-053E9F81ED51";
shapes = (
{
closed = 1;
nodes = (
(72,1,l),
(72,299,l),
(419,299,l),
(419,1,l)
);
}
);
width = 491;
}
);
unicode = 46;
},
{
glyphname = period.dnom;
layers = (
{
layerId = "F0BF49F4-A9AA-409A-9DDE-053E9F81ED51";
shapes = (
{
closed = 1;
nodes = (
(72,1,l),
(72,272,l),
(344,272,l),
(344,1,l)
);
}
);
width = 416;
}
);
},
{
glyphname = period.numr;
layers = (
{
layerId = "F0BF49F4-A9AA-409A-9DDE-053E9F81ED51";
shapes = (
{
closed = 1;
nodes = (
(72.18,1141,l),
(72.18,1412,l),
(344.478,1412,l),
(344.478,1141,l)
);
}
);
width = 417;
}
);
},
{
glyphname = periodcentered;
layers = (
{
layerId = "F0BF49F4-A9AA-409A-9DDE-053E9F81ED51";
shapes = (
{
closed = 1;
nodes = (
(72.779,723,l),
(72.779,1021,l),
(369.14,1021,l),
(369.14,723,l)
);
}
);
width = 442;
}
);
unicode = 183;
},
{
glyphname = periodcentered.loclCAT;
layers = (
{
layerId = "F0BF49F4-A9AA-409A-9DDE-053E9F81ED51";
shapes = (
{
closed = 1;
nodes = (
(72.619,713,l),
(72.619,1031,l),
(361.381,1031,l),
(361.381,713,l)
);
}
);
width = 434;
}
);
},
{
glyphname = periodcentered.loclCAT.case;
layers = (
{
layerId = "F0BF49F4-A9AA-409A-9DDE-053E9F81ED51";
shapes = (
{
closed = 1;
nodes = (
(72.487,703,l),
(72.487,1041,l),
(381.513,1041,l),
(381.513,703,l)
);
}
);
width = 454;
}
);
},
{
glyphname = perthousand;
layers = (
{
layerId = "F0BF49F4-A9AA-409A-9DDE-053E9F81ED51";
shapes = (
{
closed = 1;
nodes = (
(683,0,l),
(1367,1767,l),
(1673,1767,l),
(988,0,l)
);
},
{
closed = 1;
nodes = (
(384,528,o),
(275,566,o),
(189,643,cs),
(112,711,o),
(72,813,o),
(72,948,cs),
(72,1311,ls),
(72,1580,o),
(218,1729,o),
(514,1729,cs),
(811,1729,o),
(958,1580,o),
(958,1311,cs),
(958,948,ls),
(958,813,o),
(918,711,o),
(841,643,cs),
(755,566,o),
(646,528,o),
(514,528,cs)
);
},
{
closed = 1;
nodes = (
(611,790,o),
(685,833,o),
(685,889,cs),
(685,1375,ls),
(685,1454,o),
(660,1502,o),
(514,1502,c),
(178,1503,l),
(178,1484,l),
(343,1413,l),
(343,889,ls),
(343,833,o),
(418,790,o),
(514,790,cs)
);
},
{
closed = 1;
nodes = (
(1708,-18,o),
(1599,21,o),
(1513,97,cs),
(1435,166,o),
(1396,267,o),
(1396,402,cs),
(1396,765,ls),
(1396,1034,o),
(1542,1183,o),
(1838,1183,cs),
(2134,1183,o),
(2281,1034,o),
(2281,765,cs),
(2281,402,ls),
(2281,267,o),
(2242,165,o),
(2165,97,cs),
(2079,20,o),
(1970,-18,o),
(1838,-18,cs)
);
},
{
closed = 1;
nodes = (
(1934,244,o),
(2009,287,o),
(2009,343,cs),
(2009,829,ls),
(2009,908,o),
(1984,956,o),
(1838,956,c),
(1502,957,l),
(1502,930,l),
(1667,864,l),
(1667,343,ls),
(1667,287,o),
(1742,244,o),
(1838,244,cs)
);
},
{
closed = 1;
nodes = (
(2664,-18,o),
(2555,21,o),
(2469,97,cs),
(2391,166,o),
(2352,267,o),
(2352,402,cs),
(2352,765,ls),
(2352,1034,o),
(2498,1183,o),
(2794,1183,cs),
(3090,1183,o),
(3237,1034,o),
(3237,765,cs),
(3237,402,ls),
(3237,267,o),
(3198,165,o),
(3121,97,cs),
(3035,20,o),
(2926,-18,o),
(2794,-18,cs)
);
},
{
closed = 1;
nodes = (
(2890,244,o),
(2965,287,o),
(2965,343,cs),
(2965,829,ls),
(2965,908,o),
(2940,956,o),
(2794,956,c),
(2458,957,l),
(2458,930,l),
(2623,864,l),
(2623,343,ls),
(2623,287,o),
(2698,244,o),
(2794,244,cs)
);
}
);
width = 3309;
}
);
unicode = 8240;
},
{
glyphname = pi;
layers = (
{
layerId = "F0BF49F4-A9AA-409A-9DDE-053E9F81ED51";
shapes = (
{
closed = 1;
nodes = (
(247,0,l),
(247,1178,l),
(72,1178,l),
(72,1500,l),
(1438,1500,l),
(1438,1178,l),
(1071,1178,l),
(1071,1159,l),
(1264,1008,l),
(1264,0,l),
(927,0,l),
(927,1178,l),
(391,1178,l),
(391,1159,l),
(584,1008,l),
(584,0,l)
);
}
);
width = 1510;
}
);
unicode = 960;
},
{
glyphname = plus;
layers = (
{
layerId = "F0BF49F4-A9AA-409A-9DDE-053E9F81ED51";
shapes = (
{
closed = 1;
nodes = (
(305,301,l),
(305,509,l),
(72,509,l),
(72,741,l),
(305,741,l),
(305,949,l),
(553,949,l),
(553,741,l),
(786,741,l),
(786,509,l),
(553,509,l),
(553,301,l)
);
}
);
width = 858;
}
);
unicode = 43;
},
{
glyphname = plusminus;
layers = (
{
layerId = "F0BF49F4-A9AA-409A-9DDE-053E9F81ED51";
shapes = (
{
closed = 1;
nodes = (
(302,414,l),
(302,622,l),
(72,622,l),
(72,854,l),
(302,854,l),
(302,1062,l),
(557,1062,l),
(557,854,l),
(787,854,l),
(787,622,l),
(557,622,l),
(557,414,l)
);
},
{
closed = 1;
nodes = (
(124,-1,l),
(124,231,l),
(672,231,l),
(672,-1,l)
);
}
);
width = 859;
}
);
unicode = 177;
},
{
glyphname = uni02B9;
layers = (
{
layerId = "F0BF49F4-A9AA-409A-9DDE-053E9F81ED51";
shapes = (
{
closed = 1;
nodes = (
(72,1500,l),
(344,1927,l),
(564,1927,l),
(286,1500,l)
);
}
);
width = 665;
}
);
unicode = 697;
},
{
glyphname = product;
layers = (
{
layerId = "F0BF49F4-A9AA-409A-9DDE-053E9F81ED51";
shapes = (
{
closed = 1;
nodes = (
(72,0,l),
(72,1760,l),
(1062,1760,l),
(1062,0,l),
(725,0,l),
(725,1459,l),
(205,1459,l),
(205,1432,l),
(409,1327,l),
(409,0,l)
);
}
);
width = 1134;
}
);
unicode = 8719;
},
{
glyphname = q;
layers = (
{
anchors = (
{
name = t.uni0304_2;
position = "{896, 1629}";
},
{
name = t.uni0335_4;
position = "{570, 750}";
},
{
name = t.acutecomb;
position = "{573, 1500}";
},
{
name = m.uni032E;
position = "{573, 0}";
}
);
layerId = "F0BF49F4-A9AA-409A-9DDE-053E9F81ED51";
shapes = (
{
closed = 1;
nodes = (
(1087,-250,l),
(740,-250,l),
(740,160,l),
(721,160,l),
(666,43,o),
(503,-16,o),
(416,-16,cs),
(172,-16,o),
(72,161,o),
(72,391,cs),
(72,1129,ls),
(72,1273,o),
(110,1499,o),
(355,1499,c),
(1087,1500,l)
);
},
{
closed = 1;
nodes = (
(679,263,o),
(740,350,o),
(740,457,cs),
(740,1081,l),
(930,1193,l),
(930,1211,l),
(575,1210,l),
(451,1210,o),
(418,1164,o),
(418,1016,cs),
(418,457,ls),
(418,350,o),
(473,263,o),
(575,263,cs)
);
}
);
width = 1159;
}
);
unicode = 113;
},
{
glyphname = question;
layers = (
{
layerId = "F0BF49F4-A9AA-409A-9DDE-053E9F81ED51";
shapes = (
{
closed = 1;
nodes = (
(454,455,l),
(454,871,l),
(702,871,o),
(772,941,o),
(772,1163,cs),
(772,1350,o),
(750,1457,o),
(618,1457,c),
(240,1457,l),
(240,1438,l),
(429,1325,l),
(429,1125,l),
(72,1125,l),
(72,1303,ls),
(72,1613,o),
(318,1760,o),
(586,1760,cs),
(997,1760,o),
(1143,1470,o),
(1143,1117,cs),
(1143,824,o),
(931,625,o),
(787,625,cs),
(769,625,l),
(769,455,l)
);
},
{
closed = 1;
nodes = (
(440,1,l),
(440,299,l),
(787,299,l),
(787,1,l)
);
}
);
width = 1215;
}
);
unicode = 63;
},
{
glyphname = questiondown;
layers = (
{
layerId = "F0BF49F4-A9AA-409A-9DDE-053E9F81ED51";
shapes = (
{
closed = 1;
nodes = (
(1058,1646,l),
(1058,1348,l),
(711,1348,l),
(711,1646,l)
);
},
{
closed = 1;
nodes = (
(1044,1192,l),
(1044,776,l),
(622,776,o),
(443,736,o),
(443,353,cs),
(443,224,o),
(484,190,o),
(614,190,c),
(1002,190,l),
(1002,207,l),
(787,339,l),
(787,522,l),
(1144,522,l),
(1144,268,ls),
(1144,125,o),
(1096,25,o),
(1002,-32,cs),
(893,-97,o),
(764,-129,o),
(614,-129,cs),
(205,-129,o),
(72,68,o),
(72,421,cs),
(72,767,o),
(267,1022,o),
(675,1022,cs),
(728,1022,l),
(728,1192,l)
);
}
);
width = 1216;
}
);
unicode = 191;
},
{
glyphname = quotedbl;
layers = (
{
layerId = "F0BF49F4-A9AA-409A-9DDE-053E9F81ED51";
shapes = (
{
closed = 1;
nodes = (
(198.769,1124,l),
(72.119,1760,l),
(411.541,1760,l),
(315.287,1124,l)
);
},
{
closed = 1;
nodes = (
(756.029,1124,l),
(629.379,1760,l),
(968.801,1760,l),
(872.547,1124,l)
);
}
);
width = 1041;
}
);
unicode = 34;
},
{
glyphname = quotedblbase;
layers = (
{
layerId = "F0BF49F4-A9AA-409A-9DDE-053E9F81ED51";
shapes = (
{
closed = 1;
nodes = (
(631,-236,l),
(683,-86,l),
(839,-12,l),
(839,0,l),
(555,0,l),
(555,298,l),
(921,298,l),
(921,1,l),
(797,-236,l)
);
},
{
closed = 1;
nodes = (
(149,-236,l),
(200,-86,l),
(356,-12,l),
(356,0,l),
(73,0,l),
(73,298,l),
(439,298,l),
(439,1,l),
(314,-236,l)
);
}
);
width = 969;
}
);
unicode = 8222;
},
{
glyphname = quotedblleft;
layers = (
{
layerId = "F0BF49F4-A9AA-409A-9DDE-053E9F81ED51";
shapes = (
{
closed = 1;
nodes = (
(362.612,1760,l),
(310.686,1610,l),
(154.906,1536,l),
(154.906,1524,l),
(438.602,1524,l),
(438.602,1226,l),
(72.584,1226,l),
(72.584,1523,l),
(196.701,1760,l)
);
},
{
closed = 1;
nodes = (
(845.149,1760,l),
(793.222,1610,l),
(637.443,1536,l),
(637.443,1524,l),
(921.139,1524,l),
(921.139,1226,l),
(555.12,1226,l),
(555.12,1523,l),
(679.237,1760,l)
);
}
);
width = 987;
}
);
unicode = 8220;
},
{
glyphname = quotedblright;
layers = (
{
layerId = "F0BF49F4-A9AA-409A-9DDE-053E9F81ED51";
shapes = (
{
closed = 1;
nodes = (
(631.044,1226,l),
(682.971,1376,l),
(838.75,1450,l),
(838.75,1462,l),
(555.054,1462,l),
(555.054,1760,l),
(921.073,1760,l),
(921.073,1463,l),
(796.956,1226,l)
);
},
{
closed = 1;
nodes = (
(148.508,1226,l),
(200.434,1376,l),
(356.214,1450,l),
(356.214,1462,l),
(72.518,1462,l),
(72.518,1760,l),
(438.536,1760,l),
(438.536,1463,l),
(314.419,1226,l)
);
}
);
width = 986;
}
);
unicode = 8221;
},
{
glyphname = quoteleft;
layers = (
{
layerId = "F0BF49F4-A9AA-409A-9DDE-053E9F81ED51";
shapes = (
{
closed = 1;
nodes = (
(362.612,1760,l),
(310.686,1610,l),
(154.906,1536,l),
(154.906,1524,l),
(438.602,1524,l),
(438.602,1226,l),
(72.584,1226,l),
(72.584,1523,l),
(196.701,1760,l)
);
}
);
width = 512;
}
);
unicode = 8216;
},
{
glyphname = quoteright;
layers = (
{
layerId = "F0BF49F4-A9AA-409A-9DDE-053E9F81ED51";
shapes = (
{
closed = 1;
nodes = (
(148.508,1243,l),
(200.434,1393,l),
(356.214,1467,l),
(356.214,1479,l),
(72.518,1479,l),
(72.518,1777,l),
(438.536,1777,l),
(438.536,1480,l),
(314.419,1243,l)
);
}
);
width = 512;
}
);
unicode = 8217;
},
{
glyphname = quotesinglbase;
layers = (
{
layerId = "F0BF49F4-A9AA-409A-9DDE-053E9F81ED51";
shapes = (
{
closed = 1;
nodes = (
(148,-236,l),
(201,-86,l),
(356,-12,l),
(356,0,l),
(72,0,l),
(72,298,l),
(439,298,l),
(439,1,l),
(314,-236,l)
);
}
);
width = 511;
}
);
unicode = 8218;
},
{
glyphname = quotesingle;
layers = (
{
layerId = "F0BF49F4-A9AA-409A-9DDE-053E9F81ED51";
shapes = (
{
closed = 1;
nodes = (
(198.769,1124,l),
(72.119,1760,l),
(411.541,1760,l),
(315.287,1124,l)
);
}
);
width = 484;
}
);
unicode = 39;
},
{
glyphname = r;
layers = (
{
anchors = (
{
name = t.acutecomb;
position = "{429, 1500}";
},
{
name = m.uni032E;
position = "{268, 0}";
}
);
layerId = "F0BF49F4-A9AA-409A-9DDE-053E9F81ED51";
shapes = (
{
closed = 1;
nodes = (
(72.18,0,l),
(72.18,1238,ls),
(72.18,1382,o),
(165.901,1500,o),
(328.013,1500,cs),
(745.958,1500,l),
(745.958,1183,l),
(217.828,1183,l),
(217.828,1171,l),
(419.201,1068,l),
(419.201,0,l)
);
}
);
width = 818;
}
);
unicode = 114;
},
{
glyphname = radical;
layers = (
{
layerId = "F0BF49F4-A9AA-409A-9DDE-053E9F81ED51";
shapes = (
{
closed = 1;
nodes = (
(349,0,l),
(72,741,l),
(369,741,l),
(513,338,l),
(558,338,l),
(732,1501,l),
(1680,1501,l),
(1680,1269,l),
(838,1269,l),
(838,1247,l),
(997,1170,l),
(756,0,l)
);
}
);
width = 1752;
}
);
unicode = 8730;
},
{
glyphname = registered;
layers = (
{
layerId = "F0BF49F4-A9AA-409A-9DDE-053E9F81ED51";
shapes = (
{
closed = 1;
nodes = (
(272,793,o),
(73,1002,o),
(73,1276,cs),
(73,1551,o),
(272,1760,o),
(533,1760,cs),
(795,1760,o),
(994,1551,o),
(994,1276,cs),
(994,1002,o),
(795,793,o),
(533,793,cs)
);
},
{
closed = 1;
nodes = (
(714,857,o),
(927,993,o),
(927,1276,cs),
(927,1558,o),
(709,1695,o),
(533,1695,cs),
(353,1695,o),
(140,1559,o),
(140,1276,cs),
(140,997,o),
(360,857,o),
(533,857,cs)
);
},
{
closed = 1;
nodes = (
(382,973,l),
(382,1560,l),
(592,1560,ls),
(691,1560,o),
(709,1495,o),
(709,1396,cs),
(709,1328,o),
(660,1270,o),
(602,1256,c),
(602,1248,l),
(640,1238,l),
(709,973,l),
(598,973,l),
(533,1241,l),
(430,1241,l),
(430,1233,l),
(496,1206,l),
(496,973,l)
);
},
{
closed = 1;
nodes = (
(497,1343,l),
(551,1343,ls),
(583,1343,o),
(599,1361,o),
(599,1396,cs),
(599,1417,o),
(597,1432,o),
(591,1441,cs),
(586,1448,o),
(573,1452,o),
(550,1452,cs),
(431,1452,l),
(430,1445,l),
(497,1420,l)
);
}
);
width = 1067;
}
);
unicode = 174;
},
{
glyphname = arrowright;
layers = (
{
layerId = "F0BF49F4-A9AA-409A-9DDE-053E9F81ED51";
shapes = (
{
closed = 1;
nodes = (
(1218,102,l),
(893,102,l),
(1160,502,l),
(1376,567,l),
(1375,589,l),
(72,589,l),
(72,907,l),
(1375,907,l),
(1376,929,l),
(1160,993,l),
(893,1344,l),
(1218,1344,l),
(1639,753,l)
);
}
);
width = 1711;
}
);
unicode = 8594;
},
{
glyphname = uni25B6;
layers = (
{
layerId = "F0BF49F4-A9AA-409A-9DDE-053E9F81ED51";
shapes = (
{
closed = 1;
nodes = (
(252,1540,l),
(1691,720,l),
(252,-101,l)
);
}
);
width = 1859;
}
);
unicode = 9654;
},
{
glyphname = uni25B7;
layers = (
{
layerId = "F0BF49F4-A9AA-409A-9DDE-053E9F81ED51";
shapes = (
{
closed = 1;
nodes = (
(252,1540,l),
(1691,720,l),
(252,-101,l)
);
},
{
closed = 1;
nodes = (
(393,1322,l),
(393,118,l),
(1450,720,l)
);
}
);
width = 1859;
}
);
unicode = 9655;
},
{
glyphname = uni27E9;
layers = (
{
layerId = "F0BF49F4-A9AA-409A-9DDE-053E9F81ED51";
shapes = (
{
closed = 1;
nodes = (
(351,-102,l),
(72,-102,l),
(445,780,l),
(655,871,l),
(655,892,l),
(445,978,l),
(72,1860,l),
(351,1860,l),
(767,879,l)
);
}
);
width = 839;
}
);
unicode = 10217;
},
{
glyphname = ring;
layers = (
{
layerId = "F0BF49F4-A9AA-409A-9DDE-053E9F81ED51";
shapes = (
{
closed = 1;
nodes = (
(246.094,1558,o),
(134.642,1652,o),
(134.642,1782,cs),
(134.642,1911,o),
(246.094,2005,o),
(466.465,2005,cs),
(686.836,2005,o),
(799.555,1911,o),
(799.555,1782,cs),
(799.555,1652,o),
(686.836,1558,o),
(466.465,1558,cs)
);
},
{
closed = 1;
nodes = (
(532.323,1719,o),
(570.318,1746,o),
(570.318,1782,cs),
(570.318,1817,o),
(532.323,1844,o),
(467.732,1844,cs),
(403.14,1844,o),
(365.145,1817,o),
(365.145,1782,cs),
(365.145,1746,o),
(403.14,1719,o),
(467.732,1719,cs)
);
}
);
width = 934;
}
);
unicode = 730;
},
{
glyphname = s;
layers = (
{
anchors = (
{
name = b.uni0327;
position = "{572, 0}";
},
{
name = t.acutecomb;
position = "{586, 1500}";
},
{
name = m.uni032E;
position = "{582, 0}";
}
);
layerId = "F0BF49F4-A9AA-409A-9DDE-053E9F81ED51";
shapes = (
{
closed = 1;
nodes = (
(240.83,-16,o),
(72.386,134,o),
(72.386,434,cs),
(72.386,553,l),
(414.341,553,l),
(414.341,377,ls),
(414.341,309,o),
(463.734,268,o),
(577.719,268,cs),
(681.572,268,o),
(733.499,307,o),
(733.499,385,cs),
(733.499,504,o),
(642.311,559,o),
(532.125,625,cs),
(290.224,772,ls),
(231.965,808,o),
(178.772,857,o),
(130.645,920,cs),
(96.449,965,o),
(79.985,1037,o),
(79.985,1137,cs),
(79.985,1395,o),
(316.82,1516,o),
(585.318,1516,cs),
(915.875,1516,o),
(1080.52,1371,o),
(1080.52,1081,cs),
(1080.52,1053,l),
(725.9,1053,l),
(725.9,1110,ls),
(725.9,1168,o),
(689.171,1197,o),
(572.653,1197,c),
(291.49,1197,l),
(291.49,1177,l),
(805.689,870,ls),
(874.08,829,o),
(945.004,771,o),
(1013.395,692,cs),
(1065.322,631,o),
(1091.918,540,o),
(1091.918,418,cs),
(1091.918,135,o),
(896.877,-16,o),
(577.719,-16,cs)
);
}
);
width = 1164;
}
);
unicode = 115;
},
{
glyphname = s_t;
layers = (
{
anchors = (
{
name = t.acutecomb_2_ligComponent_1;
position = "{353, 1500}";
},
{
name = t.acutecomb_2_ligComponent_2;
position = "{1363, 1760}";
},
{
name = m.uni032E_2_ligComponent_1;
position = "{349, 0}";
},
{
name = m.uni032E_2_ligComponent_2;
position = "{1448, 0}";
},
{
name = b.uni0327;
position = "{511, 16}";
},
{
name = t.acutecomb;
position = "{525, 1561}";
},
{
name = m.uni032E;
position = "{521, 16}";
},
{
name = t.uni0304_2;
position = "{1363, 776}";
}
);
layerId = "F0BF49F4-A9AA-409A-9DDE-053E9F81ED51";
shapes = (
{
closed = 1;
nodes = (
(240.622,0,o),
(72.178,150,o),
(72.178,450,cs),
(72.178,569,l),
(414.133,569,l),
(414.133,393,ls),
(414.133,325,o),
(463.526,284,o),
(577.511,284,cs),
(681.364,284,o),
(733.291,323,o),
(733.291,401,cs),
(733.291,520,o),
(642.103,574,o),
(531.917,641,cs),
(290.016,788,ls),
(231.757,824,o),
(178.564,873,o),
(130.437,936,cs),
(96.241,981,o),
(79.777,1053,o),
(79.777,1153,cs),
(79.777,1411,o),
(291.282,1496,o),
(559.78,1496,c),
(1032.185,1496,l),
(1032.185,1223,l),
(291.282,1223,l),
(291.282,1193,l),
(805.481,886,ls),
(873.872,845,o),
(944.796,787,o),
(1013.187,708,cs),
(1065.114,647,o),
(1091.71,556,o),
(1091.71,434,cs),
(1091.71,151,o),
(896.669,0,o),
(577.511,0,cs)
);
},
{
closed = 1;
nodes = (
(1190.497,1760,l),
(1526.12,1760,l),
(1526.12,1500,l),
(1711.029,1500,l),
(1711.029,1223,l),
(1341.211,1223,l),
(1341.211,1204,l),
(1517.254,1093,l),
(1517.254,415,ls),
(1517.254,323,o),
(1551.45,282,o),
(1646.437,284,c),
(1711.029,283,l),
(1711.029,0,l),
(1546.384,0,ls),
(1308.282,0,o),
(1190.497,116,o),
(1190.497,345,cs),
(1190.497,1223,l),
(1013.187,1223,l),
(1013.187,1496,l),
(1190.497,1496,l)
);
}
);
width = 1784;
}
);
},
{
glyphname = uniA78C;
layers = (
{
layerId = "F0BF49F4-A9AA-409A-9DDE-053E9F81ED51";
shapes = (
{
closed = 1;
nodes = (
(160,779,l),
(72,1660,l),
(411,1660,l),
(322,779,l)
);
}
);
width = 483;
}
);
unicode = 42892;
},
{
glyphname = scedilla;
layers = (
{
anchors = (
{
name = b.uni0327;
position = "{572, 0}";
},
{
name = t.acutecomb;
position = "{586, 1500}";
},
{
name = m.uni032E;
position = "{887, -631}";
}
);
layerId = "F0BF49F4-A9AA-409A-9DDE-053E9F81ED51";
shapes = (
{
closed = 1;
nodes = (
(540.385,-631,o),
(474.527,-621,o),
(416.268,-602,c),
(416.268,-386,l),
(428.933,-389,o),
(454.263,-391,o),
(512.522,-391,cs),
(627.774,-391,o),
(713.896,-360,o),
(713.896,-273,cs),
(713.896,-205,o),
(661.969,-104,o),
(573.314,0,c),
(697.431,0,l),
(849.411,-105,o),
(938.066,-255,o),
(938.066,-387,cs),
(938.066,-549,o),
(816.482,-631,o),
(613.842,-631,cs)
);
},
{
alignment = -1;
ref = s;
}
);
width = 1164;
}
);
unicode = 351;
},
{
glyphname = uni02CA;
layers = (
{
layerId = "F0BF49F4-A9AA-409A-9DDE-053E9F81ED51";
shapes = (
{
closed = 1;
nodes = (
(73,1563,l),
(73,1787,l),
(568,1895,l),
(568,1660,l)
);
}
);
width = 640;
}
);
unicode = 714;
},
{
glyphname = section;
layers = (
{
layerId = "F0BF49F4-A9AA-409A-9DDE-053E9F81ED51";
shapes = (
{
closed = 1;
nodes = (
(250,-19,o),
(72,95,o),
(72,367,c),
(390,367,l),
(394,284,o),
(454,242,o),
(572,242,cs),
(672,242,o),
(723,274,o),
(723,314,cs),
(723,365,o),
(661,399,o),
(399,482,cs),
(234,536,o),
(97,648,o),
(97,795,cs),
(97,892,o),
(149,971,o),
(250,1031,c),
(149,1090,o),
(97,1171,o),
(97,1275,cs),
(97,1481,o),
(311,1607,o),
(558,1607,cs),
(861,1607,o),
(1023,1488,o),
(1023,1221,c),
(743,1221,l),
(739,1304,o),
(680,1346,o),
(566,1346,cs),
(457,1346,o),
(397,1317,o),
(397,1274,cs),
(397,1250,o),
(424,1223,o),
(478,1193,cs),
(508,1176,o),
(581,1147,o),
(699,1106,cs),
(877,1043,o),
(1022,958,o),
(1022,792,cs),
(1022,696,o),
(970,618,o),
(867,557,c),
(869,557,l),
(971,497,o),
(1023,415,o),
(1023,313,cs),
(1023,107,o),
(810,-19,o),
(562,-19,cs)
);
},
{
closed = 1;
nodes = (
(699,679,l),
(760,726,o),
(780,758,o),
(780,780,cs),
(780,822,o),
(518,960,o),
(321,1000,c),
(317,986,l),
(430,917,l),
(380,870,o),
(354,835,o),
(354,813,cs),
(354,765,o),
(581,639,o),
(780,590,c),
(788,603,l)
);
}
);
width = 1095;
}
);
unicode = 167;
},
{
glyphname = semicolon;
layers = (
{
layerId = "F0BF49F4-A9AA-409A-9DDE-053E9F81ED51";
shapes = (
{
closed = 1;
nodes = (
(72,976,l),
(72,1274,l),
(419,1274,l),
(419,976,l)
);
},
{
closed = 1;
nodes = (
(148,0,l),
(201,150,l),
(356,224,l),
(356,236,l),
(72,236,l),
(72,534,l),
(439,534,l),
(439,237,l),
(314,0,l)
);
}
);
width = 511;
}
);
unicode = 59;
},
{
glyphname = seven;
layers = (
{
layerId = "F0BF49F4-A9AA-409A-9DDE-053E9F81ED51";
shapes = (
{
closed = 1;
nodes = (
(167,1,l),
(573,1198,l),
(605,1259,l),
(903,1412,l),
(903,1435,l),
(72,1435,l),
(72,1761,l),
(1090,1761,l),
(1090,1569,l),
(565,1,l)
);
}
);
width = 1162;
}
);
unicode = 55;
},
{
glyphname = seven.dnom;
layers = (
{
layerId = "F0BF49F4-A9AA-409A-9DDE-053E9F81ED51";
shapes = (
{
closed = 1;
nodes = (
(98,0,l),
(379,735,l),
(519,828,l),
(519,843,l),
(72,843,l),
(72,1034,l),
(619,1034,l),
(619,864,l),
(310,0,l)
);
}
);
width = 691;
}
);
},
{
glyphname = seven.numr;
layers = (
{
layerId = "F0BF49F4-A9AA-409A-9DDE-053E9F81ED51";
shapes = (
{
closed = 1;
nodes = (
(99.244,727,l),
(380.407,1462,l),
(519.722,1555,l),
(519.722,1570,l),
(72.647,1570,l),
(72.647,1761,l),
(619.775,1761,l),
(619.775,1591,l),
(310.749,727,l)
);
}
);
width = 692;
}
);
},
{
glyphname = uni2087;
layers = (
{
layerId = "F0BF49F4-A9AA-409A-9DDE-053E9F81ED51";
shapes = (
{
closed = 1;
nodes = (
(98,0,l),
(379,735,l),
(519,828,l),
(519,843,l),
(72,843,l),
(72,1034,l),
(619,1034,l),
(619,864,l),
(310,0,l)
);
}
);
width = 691;
}
);
unicode = 8327;
},
{
glyphname = uni2077;
layers = (
{
layerId = "F0BF49F4-A9AA-409A-9DDE-053E9F81ED51";
shapes = (
{
closed = 1;
nodes = (
(98,796,l),
(379,1531,l),
(519,1624,l),
(519,1639,l),
(72,1639,l),
(72,1830,l),
(619,1830,l),
(619,1660,l),
(310,796,l)
);
}
);
width = 691;
}
);
unicode = 8311;
},
{
glyphname = six;
layers = (
{
layerId = "F0BF49F4-A9AA-409A-9DDE-053E9F81ED51";
shapes = (
{
closed = 1;
nodes = (
(197,-16,o),
(72,172,o),
(72,549,cs),
(72,1025,ls),
(72,1512,o),
(131,1776,o),
(633,1776,cs),
(885,1776,o),
(1113,1661,o),
(1113,1431,cs),
(1113,1241,l),
(790,1241,l),
(790,1277,ls),
(790,1365,o),
(785,1467,o),
(625,1467,c),
(259,1470,l),
(259,1448,l),
(439,1365,l),
(439,988,l),
(455,988,l),
(497,1051,o),
(652,1092,o),
(742,1092,cs),
(1068,1092,o),
(1148,916,o),
(1148,569,cs),
(1148,218,o),
(1016,-16,o),
(620,-16,cs)
);
},
{
closed = 1;
nodes = (
(691,308,o),
(739,326,o),
(749,361,cs),
(761,399,o),
(766,443,o),
(766,495,cs),
(766,637,ls),
(766,733,o),
(714,781,o),
(610,781,cs),
(496,781,o),
(439,739,o),
(439,656,cs),
(439,438,ls),
(439,351,o),
(493,308,o),
(604,308,cs)
);
}
);
width = 1220;
}
);
unicode = 54;
},
{
glyphname = six.dnom;
layers = (
{
layerId = "F0BF49F4-A9AA-409A-9DDE-053E9F81ED51";
shapes = (
{
closed = 1;
nodes = (
(107,-10,o),
(72,152,o),
(72,322,cs),
(72,713,ls),
(72,967,o),
(221,1044,o),
(376,1044,cs),
(512,1044,o),
(633,992,o),
(633,841,cs),
(633,729,l),
(495,729,l),
(495,751,ls),
(495,848,o),
(474,862,o),
(373,862,c),
(156,863,l),
(156,858,l),
(237,803,l),
(237,581,l),
(257,581,l),
(299,617,o),
(368,642,o),
(441,642,cs),
(646,642,o),
(654,453,o),
(654,334,cs),
(654,183,o),
(611,-10,o),
(369,-10,cs)
);
},
{
closed = 1;
nodes = (
(456,181,o),
(480,226,o),
(480,291,cs),
(480,374,ls),
(480,431,o),
(441,459,o),
(364,459,cs),
(280,459,o),
(237,434,o),
(237,385,cs),
(237,257,ls),
(237,206,o),
(279,181,o),
(360,181,cs)
);
}
);
width = 726;
}
);
},
{
glyphname = six.numr;
layers = (
{
layerId = "F0BF49F4-A9AA-409A-9DDE-053E9F81ED51";
shapes = (
{
closed = 1;
nodes = (
(107,790,o),
(72,952,o),
(72,1122,cs),
(72,1513,ls),
(72,1767,o),
(221,1844,o),
(376,1844,cs),
(512,1844,o),
(633,1792,o),
(633,1641,cs),
(633,1529,l),
(495,1529,l),
(495,1551,ls),
(495,1648,o),
(474,1662,o),
(373,1662,c),
(156,1663,l),
(156,1658,l),
(237,1603,l),
(237,1381,l),
(257,1381,l),
(299,1417,o),
(368,1442,o),
(441,1442,cs),
(646,1442,o),
(654,1253,o),
(654,1134,cs),
(654,983,o),
(611,790,o),
(369,790,cs)
);
},
{
closed = 1;
nodes = (
(456,981,o),
(480,1026,o),
(480,1091,cs),
(480,1174,ls),
(480,1231,o),
(441,1259,o),
(364,1259,cs),
(280,1259,o),
(237,1234,o),
(237,1185,cs),
(237,1057,ls),
(237,1006,o),
(279,981,o),
(360,981,cs)
);
}
);
width = 726;
}
);
},
{
glyphname = uni2086;
layers = (
{
layerId = "F0BF49F4-A9AA-409A-9DDE-053E9F81ED51";
shapes = (
{
closed = 1;
nodes = (
(107,-10,o),
(72,152,o),
(72,322,cs),
(72,713,ls),
(72,967,o),
(221,1044,o),
(376,1044,cs),
(512,1044,o),
(633,992,o),
(633,841,cs),
(633,729,l),
(495,729,l),
(495,751,ls),
(495,848,o),
(474,862,o),
(373,862,c),
(156,863,l),
(156,858,l),
(237,803,l),
(237,581,l),
(257,581,l),
(299,617,o),
(368,642,o),
(441,642,cs),
(646,642,o),
(654,453,o),
(654,334,cs),
(654,183,o),
(611,-10,o),
(369,-10,cs)
);
},
{
closed = 1;
nodes = (
(456,181,o),
(480,226,o),
(480,291,cs),
(480,374,ls),
(480,431,o),
(441,459,o),
(364,459,cs),
(280,459,o),
(237,434,o),
(237,385,cs),
(237,257,ls),
(237,206,o),
(279,181,o),
(360,181,cs)
);
}
);
width = 726;
}
);
unicode = 8326;
},
{
glyphname = uni2076;
layers = (
{
layerId = "F0BF49F4-A9AA-409A-9DDE-053E9F81ED51";
shapes = (
{
closed = 1;
nodes = (
(107,790,o),
(72,952,o),
(72,1122,cs),
(72,1513,ls),
(72,1767,o),
(221,1844,o),
(376,1844,cs),
(512,1844,o),
(633,1792,o),
(633,1641,cs),
(633,1529,l),
(495,1529,l),
(495,1551,ls),
(495,1648,o),
(474,1662,o),
(373,1662,c),
(156,1663,l),
(156,1658,l),
(237,1603,l),
(237,1381,l),
(257,1381,l),
(299,1417,o),
(368,1442,o),
(441,1442,cs),
(646,1442,o),
(654,1253,o),
(654,1134,cs),
(654,983,o),
(611,790,o),
(369,790,cs)
);
},
{
closed = 1;
nodes = (
(456,981,o),
(480,1026,o),
(480,1091,cs),
(480,1174,ls),
(480,1231,o),
(441,1259,o),
(364,1259,cs),
(280,1259,o),
(237,1234,o),
(237,1185,cs),
(237,1057,ls),
(237,1006,o),
(279,981,o),
(360,981,cs)
);
}
);
width = 726;
}
);
unicode = 8310;
},
{
glyphname = slash;
layers = (
{
layerId = "F0BF49F4-A9AA-409A-9DDE-053E9F81ED51";
shapes = (
{
closed = 1;
nodes = (
(72,0,l),
(591,1767,l),
(948,1767,l),
(428,0,l)
);
}
);
width = 1020;
}
);
unicode = 47;
},
{
glyphname = slash.case;
layers = (
{
layerId = "F0BF49F4-A9AA-409A-9DDE-053E9F81ED51";
shapes = (
{
closed = 1;
nodes = (
(72,0,l),
(591,1760,l),
(948,1760,l),
(428,0,l)
);
}
);
width = 1020;
}
);
},
{
glyphname = sterling;
layers = (
{
layerId = "F0BF49F4-A9AA-409A-9DDE-053E9F81ED51";
shapes = (
{
closed = 1;
nodes = (
(72,0,l),
(72,293,l),
(226,366,o),
(295,412,o),
(295,568,c),
(295,590,l),
(465,659,l),
(465,673,l),
(79,673,l),
(79,905,l),
(248,905,l),
(243,925,o),
(237,944,o),
(231,964,cs),
(214,1019,o),
(180,1157,o),
(180,1224,cs),
(180,1489,o),
(357,1608,o),
(655,1608,cs),
(982,1608,o),
(1094,1421,o),
(1094,1125,c),
(797,1125,l),
(797,1272,o),
(764,1312,o),
(663,1312,cs),
(576,1312,o),
(538,1291,o),
(538,1226,cs),
(538,1203,ls),
(538,1162,o),
(567,1064,o),
(592,978,c),
(429,917,l),
(429,905,l),
(969,905,l),
(969,673,l),
(654,673,l),
(668,542,l),
(658,413,o),
(594,330,o),
(513,291,c),
(1083,291,l),
(1083,0,l)
);
}
);
width = 1166;
}
);
unicode = 163;
},
{
glyphname = uni0335;
layers = (
{
anchors = (
{
name = _t.uni0335_4;
position = "{437, 765}";
}
);
layerId = "F0BF49F4-A9AA-409A-9DDE-053E9F81ED51";
shapes = (
{
closed = 1;
nodes = (
(72.248,649,l),
(72.248,881,l),
(801.752,881,l),
(801.752,649,l)
);
}
);
width = 874;
}
);
unicode = 821;
},
{
glyphname = summation;
layers = (
{
layerId = "F0BF49F4-A9AA-409A-9DDE-053E9F81ED51";
shapes = (
{
closed = 1;
nodes = (
(72,0,l),
(72,279,l),
(284,771,l),
(529,873,l),
(529,902,l),
(284,1004,l),
(72,1481,l),
(72,1760,l),
(933,1760,l),
(933,1459,l),
(269,1459,l),
(269,1430,l),
(514,1302,l),
(709,891,l),
(507,451,l),
(269,326,l),
(269,301,l),
(933,301,l),
(933,0,l)
);
}
);
width = 1005;
}
);
unicode = 8721;
},
{
glyphname = t;
layers = (
{
anchors = (
{
name = t.uni0304_2;
position = "{422, 776}";
},
{
name = t.acutecomb;
position = "{422, 1760}";
},
{
name = m.uni032E;
position = "{507, 0}";
}
);
layerId = "F0BF49F4-A9AA-409A-9DDE-053E9F81ED51";
shapes = (
{
closed = 1;
nodes = (
(249.703,1760,l),
(585.326,1760,l),
(585.326,1500,l),
(770.235,1500,l),
(770.235,1223,l),
(400.417,1223,l),
(400.417,1204,l),
(576.46,1093,l),
(576.46,415,l),
(576.46,323,o),
(610.656,282,o),
(705.643,284,c),
(770.235,283,l),
(770.235,0,l),
(605.59,0,l),
(367.488,0,o),
(249.703,116,o),
(249.703,345,c),
(249.703,1223,l),
(72.393,1223,l),
(72.393,1496,l),
(249.703,1496,l)
);
}
);
width = 843;
}
);
unicode = 116;
},
{
glyphname = tbar;
layers = (
{
layerId = "F0BF49F4-A9AA-409A-9DDE-053E9F81ED51";
shapes = (
{
closed = 1;
nodes = (
(72,653,l),
(770,653,l),
(770,938,l),
(72,938,l)
);
},
{
alignment = -1;
ref = t;
}
);
width = 843;
}
);
unicode = 359;
},
{
glyphname = thorn;
layers = (
{
layerId = "F0BF49F4-A9AA-409A-9DDE-053E9F81ED51";
shapes = (
{
closed = 1;
nodes = (
(72,-250,l),
(72,1769,l),
(424,1769,l),
(424,1519,l),
(734,1519,l),
(1033,1519,o),
(1091,1307,o),
(1091,1114,cs),
(1091,391,ls),
(1091,161,o),
(991,-18,o),
(748,-18,cs),
(622,-18,o),
(521,41,o),
(441,160,c),
(424,160,l),
(424,-250,l)
);
},
{
closed = 1;
nodes = (
(741,263,o),
(745,323,o),
(745,457,cs),
(745,1081,ls),
(745,1207,o),
(727,1239,o),
(592,1239,c),
(211,1239,l),
(211,1223,l),
(424,1084,l),
(424,457,ls),
(424,321,o),
(433,263,o),
(587,263,cs)
);
}
);
width = 1163;
}
);
unicode = 254;
},
{
glyphname = three;
layers = (
{
layerId = "F0BF49F4-A9AA-409A-9DDE-053E9F81ED51";
shapes = (
{
closed = 1;
nodes = (
(226,-20,o),
(72,143,o),
(72,474,cs),
(72,718,l),
(422,718,l),
(422,528,ls),
(422,393,o),
(495,306,o),
(597,306,cs),
(708,306,o),
(772,393,o),
(772,530,cs),
(772,659,ls),
(772,785,o),
(708,856,o),
(539,856,c),
(539,1164,l),
(776,1400,l),
(776,1440,l),
(246,1441,l),
(246,1426,l),
(440,1351,l),
(440,1152,l),
(86,1152,l),
(83,1760,l),
(1126,1763,l),
(1128,1295,l),
(890,1056,l),
(890,1041,l),
(1104,927,o),
(1133,774,o),
(1133,530,cs),
(1133,229,o),
(1016,-20,o),
(582,-20,cs)
);
}
);
width = 1205;
}
);
unicode = 51;
},
{
glyphname = three.dnom;
layers = (
{
layerId = "F0BF49F4-A9AA-409A-9DDE-053E9F81ED51";
shapes = (
{
closed = 1;
nodes = (
(155.975,-10,o),
(72.386,124,o),
(72.386,319,cs),
(72.386,389,l),
(252.229,389,l),
(252.229,298,ls),
(252.229,231,o),
(297.823,183,o),
(368.747,183,cs),
(433.338,183,o),
(483.998,231,o),
(483.998,294,cs),
(483.998,366,ls),
(483.998,438,o),
(410.541,472,o),
(347.216,472,c),
(347.216,658,l),
(487.798,840,l),
(486.531,854,l),
(163.574,854,l),
(163.574,844,l),
(273.759,799,l),
(273.759,727,l),
(79.985,727,l),
(79.985,1044,l),
(642.311,1044,l),
(642.311,756,l),
(500.463,578,l),
(500.463,568,l),
(641.044,527,o),
(663.841,396,o),
(663.841,328,cs),
(663.841,120,o),
(559.988,-10,o),
(347.216,-10,cs)
);
}
);
width = 736;
}
);
},
{
glyphname = three.numr;
layers = (
{
layerId = "F0BF49F4-A9AA-409A-9DDE-053E9F81ED51";
shapes = (
{
closed = 1;
nodes = (
(155.975,688,o),
(72.386,822,o),
(72.386,1017,cs),
(72.386,1087,l),
(252.229,1087,l),
(252.229,996,ls),
(252.229,929,o),
(297.823,881,o),
(368.747,881,cs),
(433.338,881,o),
(483.998,929,o),
(483.998,992,cs),
(483.998,1064,ls),
(483.998,1136,o),
(410.541,1170,o),
(347.216,1170,c),
(347.216,1356,l),
(487.798,1538,l),
(486.531,1552,l),
(163.574,1552,l),
(163.574,1542,l),
(273.759,1497,l),
(273.759,1425,l),
(79.985,1425,l),
(79.985,1742,l),
(642.311,1742,l),
(642.311,1454,l),
(500.463,1276,l),
(500.463,1266,l),
(641.044,1225,o),
(663.841,1094,o),
(663.841,1026,cs),
(663.841,818,o),
(559.988,688,o),
(347.216,688,cs)
);
}
);
width = 736;
}
);
},
{
glyphname = uni2083;
layers = (
{
layerId = "F0BF49F4-A9AA-409A-9DDE-053E9F81ED51";
shapes = (
{
closed = 1;
nodes = (
(156,-57,o),
(72,77,o),
(72,272,cs),
(72,342,l),
(252,342,l),
(252,251,ls),
(252,184,o),
(298,136,o),
(369,136,cs),
(433,136,o),
(484,184,o),
(484,247,cs),
(484,319,ls),
(484,391,o),
(411,425,o),
(347,425,c),
(347,611,l),
(488,793,l),
(487,807,l),
(164,807,l),
(164,797,l),
(274,752,l),
(274,680,l),
(80,680,l),
(80,997,l),
(642,997,l),
(642,709,l),
(500,531,l),
(500,521,l),
(641,480,o),
(664,349,o),
(664,281,cs),
(664,73,o),
(560,-57,o),
(347,-57,cs)
);
}
);
width = 736;
}
);
unicode = 8323;
},
{
glyphname = uni00B3;
layers = (
{
layerId = "F0BF49F4-A9AA-409A-9DDE-053E9F81ED51";
shapes = (
{
closed = 1;
nodes = (
(156,743,o),
(72,877,o),
(72,1072,cs),
(72,1142,l),
(252,1142,l),
(252,1051,ls),
(252,984,o),
(298,936,o),
(369,936,cs),
(433,936,o),
(484,984,o),
(484,1047,cs),
(484,1119,ls),
(484,1191,o),
(411,1225,o),
(347,1225,c),
(347,1411,l),
(488,1593,l),
(487,1607,l),
(164,1607,l),
(164,1597,l),
(274,1552,l),
(274,1480,l),
(80,1480,l),
(80,1797,l),
(642,1797,l),
(642,1509,l),
(500,1331,l),
(500,1321,l),
(641,1280,o),
(664,1149,o),
(664,1081,cs),
(664,873,o),
(560,743,o),
(347,743,cs)
);
}
);
width = 736;
}
);
unicode = 179;
},
{
glyphname = tilde;
layers = (
{
layerId = "F0BF49F4-A9AA-409A-9DDE-053E9F81ED51";
shapes = (
{
closed = 1;
nodes = (
(658.702,1611,o),
(566.247,1650,o),
(487.724,1695,cs),
(435.798,1724,o),
(404.135,1741,o),
(349.676,1741,cs),
(299.016,1741,o),
(262.287,1694,o),
(233.158,1636,c),
(72.312,1704,l),
(105.241,1812,o),
(204.028,1935,o),
(339.544,1935,cs),
(426.932,1935,o),
(504.189,1906,o),
(566.247,1870,cs),
(615.641,1841,o),
(658.702,1814,o),
(722.027,1814,cs),
(798.017,1814,o),
(825.88,1886,o),
(842.344,1944,c),
(1025.987,1880,l),
(981.659,1739,o),
(899.337,1611,o),
(758.755,1611,cs)
);
}
);
width = 1098;
}
);
unicode = 732;
},
{
glyphname = tildecomb;
layers = (
{
anchors = (
{
name = _t.acutecomb;
position = "{550, 1500}";
},
{
name = _t.acutecomb_2;
position = "{550, 1500}";
},
{
name = _t.acutecomb_3;
position = "{550, 1500}";
},
{
name = t.acutecomb_3;
position = "{550, 1935}";
}
);
layerId = "F0BF49F4-A9AA-409A-9DDE-053E9F81ED51";
shapes = (
{
closed = 1;
nodes = (
(658.919,1611,o),
(566.464,1650,o),
(487.942,1695,cs),
(436.015,1724,o),
(385.355,1741,o),
(330.896,1741,cs),
(280.236,1741,o),
(243.507,1685,o),
(214.378,1627,c),
(72.53,1704,l),
(105.459,1812,o),
(204.246,1935,o),
(339.761,1935,cs),
(427.15,1935,o),
(504.406,1906,o),
(566.464,1870,cs),
(615.858,1841,o),
(682.982,1814,o),
(746.307,1814,cs),
(822.297,1814,o),
(846.361,1883,o),
(862.825,1941,c),
(1026.204,1880,l),
(981.876,1739,o),
(899.554,1611,o),
(758.972,1611,cs)
);
}
);
width = 1099;
}
);
unicode = 771;
},
{
glyphname = tildecomb.case;
layers = (
{
anchors = (
{
name = _t.acutecomb.case;
position = "{551, 1500}";
},
{
name = _t.acutecomb.case_2;
position = "{551, 1500}";
},
{
name = t.acutecomb.case_2;
position = "{551, 1907}";
}
);
layerId = "F0BF49F4-A9AA-409A-9DDE-053E9F81ED51";
shapes = (
{
closed = 1;
nodes = (
(672.584,1581,o),
(581.396,1611,o),
(504.14,1637,cs),
(447.147,1655,o),
(396.487,1672,o),
(331.896,1672,cs),
(292.634,1672,o),
(282.502,1628,o),
(260.972,1595,c),
(72.263,1674,l),
(138.121,1788,o),
(203.979,1885,o),
(340.761,1885,cs),
(424.35,1885,o),
(511.739,1857,o),
(585.195,1833,cs),
(638.388,1816,o),
(685.249,1801,o),
(746.041,1801,cs),
(795.434,1801,o),
(795.434,1849,o),
(822.031,1894,c),
(1027.204,1830,l),
(963.879,1701,o),
(901.82,1581,o),
(759.972,1581,cs)
);
}
);
width = 1100;
}
);
},
{
glyphname = trademark;
layers = (
{
layerId = "F0BF49F4-A9AA-409A-9DDE-053E9F81ED51";
shapes = (
{
closed = 1;
nodes = (
(336,555,l),
(336,1422,l),
(72,1422,l),
(72,1760,l),
(940,1760,l),
(940,1422,l),
(493,1422,l),
(493,1406,l),
(676,1301,l),
(676,555,l)
);
},
{
closed = 1;
nodes = (
(1009,555,l),
(1009,1760,l),
(1532,1760,l),
(1659,1277,l),
(1649,949,l),
(1671,949,l),
(1883,1760,l),
(2411,1760,l),
(2411,555,l),
(2104,555,l),
(2104,1316,l),
(2079,1316,l),
(2079,1311,l),
(2062,1248,l),
(1841,555,l),
(1588,555,l),
(1336,1316,l),
(1312,1316,l),
(1312,1310,l),
(1312,1248,l),
(1312,555,l)
);
}
);
width = 2483;
}
);
unicode = 8482;
},
{
glyphname = two;
layers = (
{
layerId = "F0BF49F4-A9AA-409A-9DDE-053E9F81ED51";
shapes = (
{
closed = 1;
nodes = (
(77,0,l),
(77,84,ls),
(77,358,o),
(250,519,o),
(420,689,cs),
(762,1031,o),
(777,1092,o),
(777,1339,c),
(953,1414,l),
(953,1437,l),
(604,1437,l),
(493,1437,o),
(439,1385,o),
(439,1280,cs),
(439,1065,l),
(77,1065,l),
(77,1073,o),
(77,1081,o),
(75,1090,cs),
(74,1116,o),
(72,1146,o),
(72,1173,cs),
(72,1552,o),
(186,1767,o),
(610,1767,c),
(1142,1767,l),
(1142,1293,l),
(1142,970,o),
(979,803,o),
(785,619,cs),
(682,521,o),
(582,424,o),
(524,332,c),
(1127,332,l),
(1127,0,l)
);
}
);
width = 1214;
}
);
unicode = 50;
},
{
glyphname = two.dnom;
layers = (
{
layerId = "F0BF49F4-A9AA-409A-9DDE-053E9F81ED51";
shapes = (
{
closed = 1;
nodes = (
(72.716,0,l),
(72.716,55,ls),
(72.716,139,o),
(91.713,205,o),
(129.708,253,cs),
(182.901,319,o),
(229.762,372,o),
(271.556,411,cs),
(380.475,516,o),
(485.595,619,o),
(485.595,762,c),
(485.595,801,l),
(572.983,839,l),
(572.983,850,l),
(361.478,850,l),
(281.688,850,o),
(242.427,820,o),
(242.427,759,cs),
(242.427,632,l),
(72.716,632,l),
(72.716,696,ls),
(72.716,863,o),
(104.378,1044,o),
(366.544,1044,c),
(656.572,1044,l),
(656.572,767,l),
(656.572,572,o),
(553.986,470,o),
(451.399,369,cs),
(386.808,306,o),
(328.549,246,o),
(295.62,195,c),
(646.44,195,l),
(646.44,0,l)
);
}
);
width = 729;
}
);
},
{
glyphname = two.numr;
layers = (
{
layerId = "F0BF49F4-A9AA-409A-9DDE-053E9F81ED51";
shapes = (
{
closed = 1;
nodes = (
(72.716,722,l),
(72.716,777,ls),
(72.716,861,o),
(91.713,927,o),
(129.708,975,cs),
(182.901,1041,o),
(229.762,1094,o),
(271.556,1133,cs),
(380.475,1238,o),
(485.595,1341,o),
(485.595,1484,c),
(485.595,1523,l),
(572.983,1561,l),
(572.983,1572,l),
(361.478,1572,l),
(281.688,1572,o),
(242.427,1542,o),
(242.427,1481,cs),
(242.427,1354,l),
(72.716,1354,l),
(72.716,1418,ls),
(72.716,1585,o),
(104.378,1766,o),
(366.544,1766,c),
(656.572,1766,l),
(656.572,1489,l),
(656.572,1294,o),
(553.986,1192,o),
(451.399,1091,cs),
(386.808,1028,o),
(328.549,968,o),
(295.62,917,c),
(646.44,917,l),
(646.44,722,l)
);
}
);
width = 729;
}
);
},
{
glyphname = uni2082;
layers = (
{
layerId = "F0BF49F4-A9AA-409A-9DDE-053E9F81ED51";
shapes = (
{
closed = 1;
nodes = (
(72,-66,l),
(72,-11,ls),
(72,73,o),
(91,139,o),
(129,187,cs),
(182,253,o),
(229,306,o),
(270,345,cs),
(380,450,o),
(485,553,o),
(485,696,c),
(485,735,l),
(572,773,l),
(572,784,l),
(361,784,l),
(281,784,o),
(242,754,o),
(242,693,cs),
(242,566,l),
(72,566,l),
(72,630,ls),
(72,797,o),
(103,978,o),
(365,978,c),
(655,978,l),
(655,701,l),
(655,506,o),
(553,404,o),
(450,303,cs),
(386,240,o),
(327,180,o),
(294,129,c),
(646,129,l),
(646,-66,l)
);
}
);
width = 727;
}
);
unicode = 8322;
},
{
glyphname = uni00B2;
layers = (
{
layerId = "F0BF49F4-A9AA-409A-9DDE-053E9F81ED51";
shapes = (
{
closed = 1;
nodes = (
(72,792,l),
(72,847,ls),
(72,931,o),
(91,997,o),
(129,1045,cs),
(182,1111,o),
(229,1164,o),
(270,1203,cs),
(380,1308,o),
(485,1411,o),
(485,1554,c),
(485,1593,l),
(572,1631,l),
(572,1642,l),
(361,1642,l),
(281,1642,o),
(242,1612,o),
(242,1551,cs),
(242,1424,l),
(72,1424,l),
(72,1488,ls),
(72,1655,o),
(103,1836,o),
(365,1836,c),
(655,1836,l),
(655,1559,l),
(655,1364,o),
(552,1263,o),
(450,1161,cs),
(385,1099,o),
(327,1038,o),
(294,987,c),
(646,987,l),
(646,792,l)
);
}
);
width = 727;
}
);
unicode = 178;
},
{
glyphname = u;
layers = (
{
anchors = (
{
name = t.uni031B_1;
position = "{812, 1239}";
},
{
name = m.uni0328_3;
position = "{886, 0}";
},
{
name = t.acutecomb;
position = "{578, 1500}";
},
{
name = m.uni032E;
position = "{612, 0}";
}
);
layerId = "F0BF49F4-A9AA-409A-9DDE-053E9F81ED51";
shapes = (
{
closed = 1;
nodes = (
(386.206,1,l),
(127.84,1,o),
(72.114,144,o),
(72.114,383,cs),
(72.114,1500,l),
(414.069,1500,l),
(414.069,467,ls),
(414.069,347,o),
(435.6,306,o),
(572.382,306,c),
(908.004,304,l),
(908.004,326,l),
(737.027,448,l),
(737.027,1500,l),
(1075.182,1500,l),
(1075.182,0,l)
);
}
);
width = 1148;
}
);
unicode = 117;
},
{
glyphname = uhungarumlaut;
layers = (
{
anchors = (
{
name = t.uni031B_1;
position = "{812, 1239}";
},
{
name = m.uni0328_3;
position = "{886, 0}";
},
{
name = t.acutecomb;
position = "{679, 2143}";
},
{
name = m.uni032E;
position = "{612, 0}";
}
);
layerId = "F0BF49F4-A9AA-409A-9DDE-053E9F81ED51";
shapes = (
{
closed = 1;
nodes = (
(856.853,1601,l),
(635.216,1601,l),
(879.65,1964,l),
(1107.62,1964,l)
);
},
{
closed = 1;
nodes = (
(471.837,1601,l),
(255.266,1601,l),
(493.368,1964,l),
(711.206,1964,l)
);
},
{
alignment = -1;
ref = u;
}
);
width = 1147;
}
);
unicode = 369;
},
{
glyphname = underscore;
layers = (
{
layerId = "F0BF49F4-A9AA-409A-9DDE-053E9F81ED51";
shapes = (
{
closed = 1;
nodes = (
(72,-362,l),
(72,-130,l),
(791,-130,l),
(791,-362,l)
);
}
);
width = 863;
}
);
unicode = 95;
},
{
glyphname = arrowup;
layers = (
{
layerId = "F0BF49F4-A9AA-409A-9DDE-053E9F81ED51";
shapes = (
{
closed = 1;
nodes = (
(69,1086,l),
(720,1507,l),
(1311,1086,l),
(1311,761,l),
(960,1028,l),
(896,1244,l),
(874,1243,l),
(874,-61,l),
(556,-61,l),
(556,1243,l),
(534,1244,l),
(469,1028,l),
(69,761,l)
);
}
);
width = 1408;
}
);
unicode = 8593;
},
{
glyphname = triagup;
layers = (
{
layerId = "F0BF49F4-A9AA-409A-9DDE-053E9F81ED51";
shapes = (
{
closed = 1;
nodes = (
(151,0,l),
(971,1439,l),
(1791,0,l)
);
}
);
width = 1942;
}
);
unicode = 9650;
},
{
glyphname = uni25B3;
layers = (
{
layerId = "F0BF49F4-A9AA-409A-9DDE-053E9F81ED51";
shapes = (
{
closed = 1;
nodes = (
(151,0,l),
(971,1439,l),
(1791,0,l)
);
},
{
closed = 1;
nodes = (
(369,141,l),
(1573,141,l),
(971,1198,l)
);
}
);
width = 1942;
}
);
unicode = 9651;
},
{
glyphname = v;
layers = (
{
anchors = (
{
name = t.acutecomb;
position = "{587, 1500}";
},
{
name = m.uni032E;
position = "{587, 0}";
}
);
layerId = "F0BF49F4-A9AA-409A-9DDE-053E9F81ED51";
shapes = (
{
closed = 1;
nodes = (
(377.815,0,l),
(72.589,1500,l),
(414.544,1500,l),
(531.062,750,l),
(529.795,232,l),
(550.059,232,l),
(760.298,1500,l),
(1100.987,1500,l),
(790.694,0,l)
);
}
);
width = 1173;
}
);
unicode = 118;
},
{
glyphname = w;
layers = (
{
anchors = (
{
name = t.acutecomb;
position = "{859, 1500}";
},
{
name = m.uni032E;
position = "{859, 0}";
}
);
layerId = "F0BF49F4-A9AA-409A-9DDE-053E9F81ED51";
shapes = (
{
closed = 1;
nodes = (
(301.754,0,l),
(72.518,1500,l),
(395.475,1500,l),
(491.729,850,l),
(485.397,349,l),
(510.727,349,l),
(665.24,1500,l),
(1051.522,1500,l),
(1161.708,879,l),
(1161.708,349,l),
(1185.771,349,l),
(1322.553,1500,l),
(1645.511,1500,l),
(1413.741,0,l),
(1047.723,0,l),
(917.273,664,l),
(909.674,1185,l),
(884.344,1185,l),
(680.438,0,l)
);
}
);
width = 1718;
}
);
unicode = 119;
},
{
glyphname = uni25C7;
layers = (
{
layerId = "F0BF49F4-A9AA-409A-9DDE-053E9F81ED51";
shapes = (
{
closed = 1;
nodes = (
(1088,1733,l),
(2103,718,l),
(1087,-297,l),
(72,718,l)
);
},
{
closed = 1;
nodes = (
(1088,1544,l),
(262,718,l),
(1087,-108,l),
(1913,718,l)
);
}
);
width = 2175;
}
);
unicode = 9671;
},
{
glyphname = uni25A1;
layers = (
{
layerId = "F0BF49F4-A9AA-409A-9DDE-053E9F81ED51";
shapes = (
{
closed = 1;
nodes = (
(277,1436,l),
(1712,1436,l),
(1712,0,l),
(277,0,l)
);
},
{
closed = 1;
nodes = (
(411,1302,l),
(411,134,l),
(1578,134,l),
(1578,1302,l)
);
}
);
width = 1932;
}
);
unicode = 9633;
},
{
glyphname = x;
layers = (
{
anchors = (
{
name = t.acutecomb;
position = "{668, 1500}";
},
{
name = m.uni032E;
position = "{605, 0}";
}
);
layerId = "F0BF49F4-A9AA-409A-9DDE-053E9F81ED51";
shapes = (
{
closed = 1;
nodes = (
(72.325,0,l),
(350.955,781,l),
(530.798,781,l),
(530.798,792,l),
(297.762,935,l),
(103.987,1501,l),
(434.544,1501,l),
(599.189,966,l),
(624.519,966,l),
(818.293,1501,l),
(1120.987,1501,l),
(863.887,781,l),
(685.311,781,l),
(685.311,775,l),
(912.014,642,l),
(1136.185,0,l),
(818.293,0,l),
(624.519,593,l),
(599.189,593,l),
(386.417,0,l)
);
}
);
width = 1209;
}
);
leftKerningGroup = x2;
rightKerningGroup = x;
unicode = 120;
},
{
glyphname = y;
layers = (
{
anchors = (
{
name = t.acutecomb;
position = "{594, 1500}";
}
);
layerId = "F0BF49F4-A9AA-409A-9DDE-053E9F81ED51";
shapes = (
{
closed = 1;
nodes = (
(108.452,-402,l),
(108.452,-85,l),
(269.297,-85,ls),
(346.554,-85,o),
(384.549,-34,o),
(370.617,33,cs),
(72.99,1500,l),
(394.681,1500,l),
(528.93,667,l),
(520.064,189,l),
(546.661,189,l),
(783.496,1500,l),
(1108.987,1500,l),
(756.9,-78,ls),
(731.57,-191,o),
(655.58,-402,o),
(487.135,-402,cs)
);
}
);
width = 1181;
}
);
unicode = 121;
},
{
glyphname = yen;
layers = (
{
layerId = "F0BF49F4-A9AA-409A-9DDE-053E9F81ED51";
shapes = (
{
closed = 1;
nodes = (
(181,478,l),
(1000,478,l),
(1000,731,l),
(181,731,l)
);
},
{
closed = 1;
nodes = (
(181,136,l),
(1000,136,l),
(1000,389,l),
(181,389,l)
);
},
{
alignment = -1;
ref = Y;
scale = (1,0.908);
}
);
width = 1171;
}
);
unicode = 165;
},
{
glyphname = z;
layers = (
{
anchors = (
{
name = t.acutecomb;
position = "{533, 1500}";
},
{
name = m.uni032E;
position = "{481, 0}";
}
);
layerId = "F0BF49F4-A9AA-409A-9DDE-053E9F81ED51";
shapes = (
{
closed = 1;
nodes = (
(72.454,0,l),
(72.454,227,l),
(477.734,1081,l),
(709.504,1195,l),
(709.504,1216,l),
(95.251,1216,l),
(95.251,1500,l),
(902.012,1500,l),
(902.012,1249,l),
(541.059,450,l),
(291.559,300,l),
(291.559,268,l),
(905.811,268,l),
(905.811,0,l)
);
}
);
width = 978;
}
);
unicode = 122;
},
{
glyphname = zero;
layers = (
{
layerId = "F0BF49F4-A9AA-409A-9DDE-053E9F81ED51";
shapes = (
{
closed = 1;
nodes = (
(267.894,-16,o),
(72.853,156,o),
(72.853,469,cs),
(72.853,1263,ls),
(72.853,1594,o),
(248.896,1776,o),
(609.849,1776,cs),
(972.068,1776,o),
(1146.845,1594,o),
(1146.845,1263,cs),
(1146.845,469,ls),
(1146.845,156,o),
(953.07,-16,o),
(609.849,-16,cs)
);
},
{
closed = 1;
nodes = (
(712.435,308,o),
(773.227,367,o),
(773.227,428,cs),
(773.227,1297,ls),
(773.227,1402,o),
(703.57,1452,o),
(609.849,1452,cs),
(516.128,1452,o),
(446.47,1402,o),
(446.47,1297,cs),
(446.47,1023,l),
(202.036,1023,l),
(202.036,991,l),
(446.47,852,l),
(446.47,428,ls),
(446.47,367,o),
(509.795,308,o),
(609.849,308,cs)
);
}
);
width = 1219;
}
);
unicode = 48;
},
{
glyphname = zero.dnom;
layers = (
{
layerId = "F0BF49F4-A9AA-409A-9DDE-053E9F81ED51";
shapes = (
{
closed = 1;
nodes = (
(178,32,o),
(72,133,o),
(72,317,cs),
(72,784,ls),
(72,979,o),
(167,1086,o),
(366,1086,cs),
(565,1086,o),
(660,979,o),
(660,784,cs),
(660,317,ls),
(660,133,o),
(553,32,o),
(366,32,cs)
);
},
{
closed = 1;
nodes = (
(440,223,o),
(483,257,o),
(483,293,cs),
(483,804,ls),
(483,853,o),
(475,896,o),
(366,896,cs),
(257,896,o),
(248,853,o),
(248,804,cs),
(248,705,l),
(131,705,l),
(131,689,l),
(248,610,l),
(248,293,ls),
(248,257,o),
(291,223,o),
(366,223,cs)
);
}
);
width = 732;
}
);
},
{
glyphname = zero.numr;
layers = (
{
layerId = "F0BF49F4-A9AA-409A-9DDE-053E9F81ED51";
shapes = (
{
closed = 1;
nodes = (
(178,742,o),
(72,843,o),
(72,1027,cs),
(72,1494,ls),
(72,1689,o),
(167,1796,o),
(366,1796,cs),
(565,1796,o),
(660,1689,o),
(660,1494,cs),
(660,1027,ls),
(660,843,o),
(553,742,o),
(366,742,cs)
);
},
{
closed = 1;
nodes = (
(440,933,o),
(483,967,o),
(483,1003,cs),
(483,1514,ls),
(483,1563,o),
(475,1606,o),
(366,1606,cs),
(257,1606,o),
(248,1563,o),
(248,1514,cs),
(248,1415,l),
(131,1415,l),
(131,1399,l),
(248,1320,l),
(248,1003,ls),
(248,967,o),
(291,933,o),
(366,933,cs)
);
}
);
width = 732;
}
);
},
{
glyphname = uni2080;
layers = (
{
layerId = "F0BF49F4-A9AA-409A-9DDE-053E9F81ED51";
shapes = (
{
closed = 1;
nodes = (
(178,-33,o),
(72,68,o),
(72,252,cs),
(72,719,ls),
(72,914,o),
(167,1021,o),
(366,1021,cs),
(565,1021,o),
(660,914,o),
(660,719,cs),
(660,252,ls),
(660,68,o),
(553,-33,o),
(366,-33,cs)
);
},
{
closed = 1;
nodes = (
(440,158,o),
(483,192,o),
(483,228,cs),
(483,739,ls),
(483,788,o),
(475,831,o),
(366,831,cs),
(257,831,o),
(248,788,o),
(248,739,cs),
(248,640,l),
(131,640,l),
(131,624,l),
(248,545,l),
(248,228,ls),
(248,192,o),
(291,158,o),
(366,158,cs)
);
}
);
width = 732;
}
);
unicode = 8320;
},
{
glyphname = uni2070;
layers = (
{
layerId = "F0BF49F4-A9AA-409A-9DDE-053E9F81ED51";
shapes = (
{
closed = 1;
nodes = (
(178,782,o),
(72,883,o),
(72,1067,cs),
(72,1534,ls),
(72,1729,o),
(167,1836,o),
(366,1836,cs),
(565,1836,o),
(660,1729,o),
(660,1534,cs),
(660,1067,ls),
(660,883,o),
(553,782,o),
(366,782,cs)
);
},
{
closed = 1;
nodes = (
(440,973,o),
(483,1007,o),
(483,1043,cs),
(483,1554,ls),
(483,1603,o),
(475,1646,o),
(366,1646,cs),
(257,1646,o),
(248,1603,o),
(248,1554,cs),
(248,1455,l),
(131,1455,l),
(131,1439,l),
(248,1360,l),
(248,1043,ls),
(248,1007,o),
(291,973,o),
(366,973,cs)
);
}
);
width = 732;
}
);
unicode = 8304;
},
